<?xml version="1.0" encoding="UTF-8"?>
<!DOCTYPE svg PUBLIC "-//W3C//DTD SVG 1.1//EN" "http://www.w3.org/Graphics/SVG/1.1/DTD/svg11.dtd">
<svg width="457mm" height="265mm" viewBox="0 0 45700 26500" version="1.1" xmlns="http://www.w3.org/2000/svg" xmlns:xlink="http://www.w3.org/1999/xlink" stroke-width="28.222" stroke-linejoin="round" xml:space="preserve">
 <path fill="rgb(255,255,255)" stroke="none" d="M 22854,26522 L -13,26522 -13,-13 45720,-13 45720,26522 22854,26522 Z "/>
 <path fill="none" stroke="rgb(179,179,179)" stroke-linejoin="round" d="M 22275,25345 L 1917,25345 1917,716 42633,716 42633,25345 22275,25345 Z "/>
 <path fill="none" stroke="rgb(179,179,179)" stroke-linejoin="round" d="M 1917,715 L 1917,25344 "/>
 <path fill="none" stroke="rgb(179,179,179)" stroke-linejoin="round" d="M 7006,715 L 7006,25344 "/>
 <path fill="none" stroke="rgb(179,179,179)" stroke-linejoin="round" d="M 12096,715 L 12096,25344 "/>
 <path fill="none" stroke="rgb(179,179,179)" stroke-linejoin="round" d="M 17185,715 L 17185,25344 "/>
 <path fill="none" stroke="rgb(179,179,179)" stroke-linejoin="round" d="M 22275,715 L 22275,25344 "/>
 <path fill="none" stroke="rgb(179,179,179)" stroke-linejoin="round" d="M 27364,715 L 27364,25344 "/>
 <path fill="none" stroke="rgb(179,179,179)" stroke-linejoin="round" d="M 32453,715 L 32453,25344 "/>
 <path fill="none" stroke="rgb(179,179,179)" stroke-linejoin="round" d="M 37543,715 L 37543,25344 "/>
 <path fill="none" stroke="rgb(179,179,179)" stroke-linejoin="round" d="M 42633,715 L 42633,25344 "/>
 <path fill="none" stroke="rgb(221,221,221)" stroke-linejoin="round" d="M 4461,715 L 4461,25344 "/>
 <path fill="none" stroke="rgb(221,221,221)" stroke-linejoin="round" d="M 9551,715 L 9551,25344 "/>
 <path fill="none" stroke="rgb(221,221,221)" stroke-linejoin="round" d="M 14641,715 L 14641,25344 "/>
 <path fill="none" stroke="rgb(221,221,221)" stroke-linejoin="round" d="M 19730,715 L 19730,25344 "/>
 <path fill="none" stroke="rgb(221,221,221)" stroke-linejoin="round" d="M 24819,715 L 24819,25344 "/>
 <path fill="none" stroke="rgb(221,221,221)" stroke-linejoin="round" d="M 29908,715 L 29908,25344 "/>
 <path fill="none" stroke="rgb(221,221,221)" stroke-linejoin="round" d="M 34998,715 L 34998,25344 "/>
 <path fill="none" stroke="rgb(221,221,221)" stroke-linejoin="round" d="M 40088,715 L 40088,25344 "/>
 <path fill="none" stroke="rgb(179,179,179)" stroke-linejoin="round" d="M 42633,25344 L 1917,25344 "/>
 <path fill="none" stroke="rgb(179,179,179)" stroke-linejoin="round" d="M 42633,17134 L 1917,17134 "/>
 <path fill="none" stroke="rgb(179,179,179)" stroke-linejoin="round" d="M 42633,8924 L 1917,8924 "/>
 <path fill="none" stroke="rgb(179,179,179)" stroke-linejoin="round" d="M 42633,714 L 1917,714 "/>
 <path fill="none" stroke="rgb(221,221,221)" stroke-linejoin="round" d="M 42633,22872 L 1917,22872 "/>
 <path fill="none" stroke="rgb(221,221,221)" stroke-linejoin="round" d="M 42633,21426 L 1917,21426 "/>
 <path fill="none" stroke="rgb(221,221,221)" stroke-linejoin="round" d="M 42633,20401 L 1917,20401 "/>
 <path fill="none" stroke="rgb(221,221,221)" stroke-linejoin="round" d="M 42633,19605 L 1917,19605 "/>
 <path fill="none" stroke="rgb(221,221,221)" stroke-linejoin="round" d="M 42633,18955 L 1917,18955 "/>
 <path fill="none" stroke="rgb(221,221,221)" stroke-linejoin="round" d="M 42633,18405 L 1917,18405 "/>
 <path fill="none" stroke="rgb(221,221,221)" stroke-linejoin="round" d="M 42633,17929 L 1917,17929 "/>
 <path fill="none" stroke="rgb(221,221,221)" stroke-linejoin="round" d="M 42633,17509 L 1917,17509 "/>
 <path fill="none" stroke="rgb(221,221,221)" stroke-linejoin="round" d="M 42633,14662 L 1917,14662 "/>
 <path fill="none" stroke="rgb(221,221,221)" stroke-linejoin="round" d="M 42633,13217 L 1917,13217 "/>
 <path fill="none" stroke="rgb(221,221,221)" stroke-linejoin="round" d="M 42633,12192 L 1917,12192 "/>
 <path fill="none" stroke="rgb(221,221,221)" stroke-linejoin="round" d="M 42633,11396 L 1917,11396 "/>
 <path fill="none" stroke="rgb(221,221,221)" stroke-linejoin="round" d="M 42633,10746 L 1917,10746 "/>
 <path fill="none" stroke="rgb(221,221,221)" stroke-linejoin="round" d="M 42633,10196 L 1917,10196 "/>
 <path fill="none" stroke="rgb(221,221,221)" stroke-linejoin="round" d="M 42633,9720 L 1917,9720 "/>
 <path fill="none" stroke="rgb(221,221,221)" stroke-linejoin="round" d="M 42633,9300 L 1917,9300 "/>
 <path fill="none" stroke="rgb(221,221,221)" stroke-linejoin="round" d="M 42633,6453 L 1917,6453 "/>
 <path fill="none" stroke="rgb(221,221,221)" stroke-linejoin="round" d="M 42633,5007 L 1917,5007 "/>
 <path fill="none" stroke="rgb(221,221,221)" stroke-linejoin="round" d="M 42633,3982 L 1917,3982 "/>
 <path fill="none" stroke="rgb(221,221,221)" stroke-linejoin="round" d="M 42633,3186 L 1917,3186 "/>
 <path fill="none" stroke="rgb(221,221,221)" stroke-linejoin="round" d="M 42633,2536 L 1917,2536 "/>
 <path fill="none" stroke="rgb(221,221,221)" stroke-linejoin="round" d="M 42633,1986 L 1917,1986 "/>
 <path fill="none" stroke="rgb(221,221,221)" stroke-linejoin="round" d="M 42633,1510 L 1917,1510 "/>
 <path fill="none" stroke="rgb(221,221,221)" stroke-linejoin="round" d="M 42633,1090 L 1917,1090 "/>
 <path fill="none" stroke="rgb(179,179,179)" stroke-linejoin="round" d="M 1917,25494 L 1917,25344 "/>
 <path fill="none" stroke="rgb(179,179,179)" stroke-linejoin="round" d="M 1917,25494 L 1917,25344 "/>
 <path fill="none" stroke="rgb(179,179,179)" stroke-linejoin="round" d="M 7006,25494 L 7006,25344 "/>
 <path fill="none" stroke="rgb(179,179,179)" stroke-linejoin="round" d="M 7006,25494 L 7006,25344 "/>
 <path fill="none" stroke="rgb(179,179,179)" stroke-linejoin="round" d="M 12096,25494 L 12096,25344 "/>
 <path fill="none" stroke="rgb(179,179,179)" stroke-linejoin="round" d="M 12096,25494 L 12096,25344 "/>
 <path fill="none" stroke="rgb(179,179,179)" stroke-linejoin="round" d="M 17185,25494 L 17185,25344 "/>
 <path fill="none" stroke="rgb(179,179,179)" stroke-linejoin="round" d="M 17185,25494 L 17185,25344 "/>
 <path fill="none" stroke="rgb(179,179,179)" stroke-linejoin="round" d="M 22275,25494 L 22275,25344 "/>
 <path fill="none" stroke="rgb(179,179,179)" stroke-linejoin="round" d="M 22275,25494 L 22275,25344 "/>
 <path fill="none" stroke="rgb(179,179,179)" stroke-linejoin="round" d="M 27364,25494 L 27364,25344 "/>
 <path fill="none" stroke="rgb(179,179,179)" stroke-linejoin="round" d="M 27364,25494 L 27364,25344 "/>
 <path fill="none" stroke="rgb(179,179,179)" stroke-linejoin="round" d="M 32453,25494 L 32453,25344 "/>
 <path fill="none" stroke="rgb(179,179,179)" stroke-linejoin="round" d="M 32453,25494 L 32453,25344 "/>
 <path fill="none" stroke="rgb(179,179,179)" stroke-linejoin="round" d="M 37543,25494 L 37543,25344 "/>
 <path fill="none" stroke="rgb(179,179,179)" stroke-linejoin="round" d="M 37543,25494 L 37543,25344 "/>
 <path fill="none" stroke="rgb(179,179,179)" stroke-linejoin="round" d="M 42633,25494 L 42633,25344 "/>
 <path fill="none" stroke="rgb(179,179,179)" stroke-linejoin="round" d="M 42633,25494 L 42633,25344 "/>
 <path fill="none" stroke="rgb(179,179,179)" stroke-linejoin="round" d="M 1917,25344 L 42633,25344 "/>
 <path fill="none" stroke="rgb(179,179,179)" stroke-linejoin="round" d="M 1767,25344 L 1917,25344 "/>
 <path fill="none" stroke="rgb(179,179,179)" stroke-linejoin="round" d="M 1767,25344 L 1917,25344 "/>
 <path fill="none" stroke="rgb(179,179,179)" stroke-linejoin="round" d="M 1767,17134 L 1917,17134 "/>
 <path fill="none" stroke="rgb(179,179,179)" stroke-linejoin="round" d="M 1767,17134 L 1917,17134 "/>
 <path fill="none" stroke="rgb(179,179,179)" stroke-linejoin="round" d="M 1767,8924 L 1917,8924 "/>
 <path fill="none" stroke="rgb(179,179,179)" stroke-linejoin="round" d="M 1767,8924 L 1917,8924 "/>
 <path fill="none" stroke="rgb(179,179,179)" stroke-linejoin="round" d="M 1767,715 L 1917,715 "/>
 <path fill="none" stroke="rgb(179,179,179)" stroke-linejoin="round" d="M 1767,715 L 1917,715 "/>
 <path fill="none" stroke="rgb(179,179,179)" stroke-linejoin="round" d="M 1917,25344 L 1917,715 "/>
 <path fill="rgb(255,66,14)" stroke="none" d="M 7844,11382 L 7969,11507 8094,11382 7969,11257 7844,11382 Z "/>
 <path fill="none" stroke="rgb(255,66,14)" stroke-linejoin="round" d="M 7844,11382 L 7969,11507 8094,11382 7969,11257 7844,11382 Z "/>
 <path fill="rgb(255,66,14)" stroke="none" d="M 7997,20685 L 8122,20810 8247,20685 8122,20560 7997,20685 Z "/>
 <path fill="none" stroke="rgb(255,66,14)" stroke-linejoin="round" d="M 7997,20685 L 8122,20810 8247,20685 8122,20560 7997,20685 Z "/>
 <path fill="rgb(255,66,14)" stroke="none" d="M 7997,19609 L 8122,19734 8247,19609 8122,19484 7997,19609 Z "/>
 <path fill="none" stroke="rgb(255,66,14)" stroke-linejoin="round" d="M 7997,19609 L 8122,19734 8247,19609 8122,19484 7997,19609 Z "/>
 <path fill="rgb(255,66,14)" stroke="none" d="M 8003,21006 L 8128,21131 8253,21006 8128,20881 8003,21006 Z "/>
 <path fill="none" stroke="rgb(255,66,14)" stroke-linejoin="round" d="M 8003,21006 L 8128,21131 8253,21006 8128,20881 8003,21006 Z "/>
 <path fill="rgb(255,66,14)" stroke="none" d="M 8003,19891 L 8128,20016 8253,19891 8128,19766 8003,19891 Z "/>
 <path fill="none" stroke="rgb(255,66,14)" stroke-linejoin="round" d="M 8003,19891 L 8128,20016 8253,19891 8128,19766 8003,19891 Z "/>
 <path fill="rgb(255,66,14)" stroke="none" d="M 8551,11655 L 8676,11780 8801,11655 8676,11530 8551,11655 Z "/>
 <path fill="none" stroke="rgb(255,66,14)" stroke-linejoin="round" d="M 8551,11655 L 8676,11780 8801,11655 8676,11530 8551,11655 Z "/>
 <path fill="rgb(255,66,14)" stroke="none" d="M 9532,12705 L 9657,12830 9782,12705 9657,12580 9532,12705 Z "/>
 <path fill="none" stroke="rgb(255,66,14)" stroke-linejoin="round" d="M 9532,12705 L 9657,12830 9782,12705 9657,12580 9532,12705 Z "/>
 <path fill="rgb(255,66,14)" stroke="none" d="M 10134,13280 L 10259,13405 10384,13280 10259,13156 10134,13280 Z "/>
 <path fill="none" stroke="rgb(255,66,14)" stroke-linejoin="round" d="M 10134,13280 L 10259,13405 10384,13280 10259,13156 10134,13280 Z "/>
 <path fill="rgb(255,66,14)" stroke="none" d="M 9772,21531 L 9897,21656 10022,21531 9897,21406 9772,21531 Z "/>
 <path fill="none" stroke="rgb(255,66,14)" stroke-linejoin="round" d="M 9772,21531 L 9897,21656 10022,21531 9897,21406 9772,21531 Z "/>
 <path fill="rgb(255,66,14)" stroke="none" d="M 9772,20626 L 9897,20751 10022,20626 9897,20501 9772,20626 Z "/>
 <path fill="none" stroke="rgb(255,66,14)" stroke-linejoin="round" d="M 9772,20626 L 9897,20751 10022,20626 9897,20501 9772,20626 Z "/>
 <path fill="rgb(255,66,14)" stroke="none" d="M 11190,22033 L 11315,22158 11440,22033 11315,21908 11190,22033 Z "/>
 <path fill="none" stroke="rgb(255,66,14)" stroke-linejoin="round" d="M 11190,22033 L 11315,22158 11440,22033 11315,21908 11190,22033 Z "/>
 <path fill="rgb(255,66,14)" stroke="none" d="M 11190,21711 L 11315,21836 11440,21711 11315,21586 11190,21711 Z "/>
 <path fill="none" stroke="rgb(255,66,14)" stroke-linejoin="round" d="M 11190,21711 L 11315,21836 11440,21711 11315,21586 11190,21711 Z "/>
 <path fill="rgb(255,66,14)" stroke="none" d="M 14891,9388 L 15016,9513 15141,9388 15016,9263 14891,9388 Z "/>
 <path fill="none" stroke="rgb(255,66,14)" stroke-linejoin="round" d="M 14891,9388 L 15016,9513 15141,9388 15016,9263 14891,9388 Z "/>
 <path fill="rgb(255,66,14)" stroke="none" d="M 19320,16108 L 19445,16233 19570,16108 19445,15983 19320,16108 Z "/>
 <path fill="none" stroke="rgb(255,66,14)" stroke-linejoin="round" d="M 19320,16108 L 19445,16233 19570,16108 19445,15983 19320,16108 Z "/>
 <path fill="rgb(255,66,14)" stroke="none" d="M 24808,16577 L 24933,16702 25058,16577 24933,16452 24808,16577 Z "/>
 <path fill="none" stroke="rgb(255,66,14)" stroke-linejoin="round" d="M 24808,16577 L 24933,16702 25058,16577 24933,16452 24808,16577 Z "/>
 <path fill="rgb(255,66,14)" stroke="none" d="M 40368,18828 L 40493,18953 40618,18828 40493,18703 40368,18828 Z "/>
 <path fill="none" stroke="rgb(255,66,14)" stroke-linejoin="round" d="M 40368,18828 L 40493,18953 40618,18828 40493,18703 40368,18828 Z "/>
 <path fill="rgb(0,69,134)" stroke="none" d="M 7844,3603 L 7844,3853 8094,3853 8094,3603 7844,3603 Z "/>
 <path fill="none" stroke="rgb(0,69,134)" stroke-linejoin="round" d="M 7844,3603 L 7844,3853 8094,3853 8094,3603 7844,3603 Z "/>
 <path fill="rgb(0,69,134)" stroke="none" d="M 7997,20527 L 7997,20777 8247,20777 8247,20527 7997,20527 Z "/>
 <path fill="none" stroke="rgb(0,69,134)" stroke-linejoin="round" d="M 7997,20527 L 7997,20777 8247,20777 8247,20527 7997,20527 Z "/>
 <path fill="rgb(0,69,134)" stroke="none" d="M 7997,19085 L 7997,19335 8247,19335 8247,19085 7997,19085 Z "/>
 <path fill="none" stroke="rgb(0,69,134)" stroke-linejoin="round" d="M 7997,19085 L 7997,19335 8247,19335 8247,19085 7997,19085 Z "/>
 <path fill="rgb(0,69,134)" stroke="none" d="M 8003,20840 L 8003,21090 8253,21090 8253,20840 8003,20840 Z "/>
 <path fill="none" stroke="rgb(0,69,134)" stroke-linejoin="round" d="M 8003,20840 L 8003,21090 8253,21090 8253,20840 8003,20840 Z "/>
 <path fill="rgb(0,69,134)" stroke="none" d="M 8003,19389 L 8003,19639 8253,19639 8253,19389 8003,19389 Z "/>
 <path fill="none" stroke="rgb(0,69,134)" stroke-linejoin="round" d="M 8003,19389 L 8003,19639 8253,19639 8253,19389 8003,19389 Z "/>
 <path fill="rgb(0,69,134)" stroke="none" d="M 8551,5258 L 8551,5508 8801,5508 8801,5258 8551,5258 Z "/>
 <path fill="none" stroke="rgb(0,69,134)" stroke-linejoin="round" d="M 8551,5258 L 8551,5508 8801,5508 8801,5258 8551,5258 Z "/>
 <path fill="rgb(0,69,134)" stroke="none" d="M 9532,7938 L 9532,8188 9782,8188 9782,7938 9532,7938 Z "/>
 <path fill="none" stroke="rgb(0,69,134)" stroke-linejoin="round" d="M 9532,7938 L 9532,8188 9782,8188 9782,7938 9532,7938 Z "/>
 <path fill="rgb(0,69,134)" stroke="none" d="M 10134,12110 L 10134,12360 10384,12360 10384,12110 10134,12110 Z "/>
 <path fill="none" stroke="rgb(0,69,134)" stroke-linejoin="round" d="M 10134,12110 L 10134,12360 10384,12360 10384,12110 10134,12110 Z "/>
 <path fill="rgb(0,69,134)" stroke="none" d="M 9772,21291 L 9772,21541 10022,21541 10022,21291 9772,21291 Z "/>
 <path fill="none" stroke="rgb(0,69,134)" stroke-linejoin="round" d="M 9772,21291 L 9772,21541 10022,21541 10022,21291 9772,21291 Z "/>
 <path fill="rgb(0,69,134)" stroke="none" d="M 9772,19920 L 9772,20170 10022,20170 10022,19920 9772,19920 Z "/>
 <path fill="none" stroke="rgb(0,69,134)" stroke-linejoin="round" d="M 9772,19920 L 9772,20170 10022,20170 10022,19920 9772,19920 Z "/>
 <path fill="rgb(0,69,134)" stroke="none" d="M 11190,21486 L 11190,21736 11440,21736 11440,21486 11190,21486 Z "/>
 <path fill="none" stroke="rgb(0,69,134)" stroke-linejoin="round" d="M 11190,21486 L 11190,21736 11440,21736 11440,21486 11190,21486 Z "/>
 <path fill="rgb(0,69,134)" stroke="none" d="M 11190,20760 L 11190,21010 11440,21010 11440,20760 11190,20760 Z "/>
 <path fill="none" stroke="rgb(0,69,134)" stroke-linejoin="round" d="M 11190,20760 L 11190,21010 11440,21010 11440,20760 11190,20760 Z "/>
 <path fill="rgb(0,69,134)" stroke="none" d="M 14891,9951 L 14891,10201 15141,10201 15141,9951 14891,9951 Z "/>
 <path fill="none" stroke="rgb(0,69,134)" stroke-linejoin="round" d="M 14891,9951 L 14891,10201 15141,10201 15141,9951 14891,9951 Z "/>
 <path fill="rgb(0,69,134)" stroke="none" d="M 19320,14641 L 19320,14891 19570,14891 19570,14641 19320,14641 Z "/>
 <path fill="none" stroke="rgb(0,69,134)" stroke-linejoin="round" d="M 19320,14641 L 19320,14891 19570,14891 19570,14641 19320,14641 Z "/>
 <path fill="rgb(0,69,134)" stroke="none" d="M 24808,20785 L 24808,21035 25058,21035 25058,20785 24808,20785 Z "/>
 <path fill="none" stroke="rgb(0,69,134)" stroke-linejoin="round" d="M 24808,20785 L 24808,21035 25058,21035 25058,20785 24808,20785 Z "/>
 <path fill="rgb(0,69,134)" stroke="none" d="M 40368,6667 L 40368,6917 40618,6917 40618,6667 40368,6667 Z "/>
 <path fill="none" stroke="rgb(0,69,134)" stroke-linejoin="round" d="M 40368,6667 L 40368,6917 40618,6917 40618,6667 40368,6667 Z "/>
 <text class="SVGTextShape"><tspan class="TextParagraph"><tspan class="TextPosition" x="1057" y="25912"><tspan font-family="Liberation Sans, sans-serif" font-size="353px" font-weight="400" fill="rgb(0,0,0)" stroke="none" style="white-space: pre">280000000</tspan></tspan></tspan></text>
 <text class="SVGTextShape"><tspan class="TextParagraph"><tspan class="TextPosition" x="6146" y="25912"><tspan font-family="Liberation Sans, sans-serif" font-size="353px" font-weight="400" fill="rgb(0,0,0)" stroke="none" style="white-space: pre">300000000</tspan></tspan></tspan></text>
 <text class="SVGTextShape"><tspan class="TextParagraph"><tspan class="TextPosition" x="11236" y="25912"><tspan font-family="Liberation Sans, sans-serif" font-size="353px" font-weight="400" fill="rgb(0,0,0)" stroke="none" style="white-space: pre">320000000</tspan></tspan></tspan></text>
 <text class="SVGTextShape"><tspan class="TextParagraph"><tspan class="TextPosition" x="16325" y="25912"><tspan font-family="Liberation Sans, sans-serif" font-size="353px" font-weight="400" fill="rgb(0,0,0)" stroke="none" style="white-space: pre">340000000</tspan></tspan></tspan></text>
 <text class="SVGTextShape"><tspan class="TextParagraph"><tspan class="TextPosition" x="21415" y="25912"><tspan font-family="Liberation Sans, sans-serif" font-size="353px" font-weight="400" fill="rgb(0,0,0)" stroke="none" style="white-space: pre">360000000</tspan></tspan></tspan></text>
 <text class="SVGTextShape"><tspan class="TextParagraph"><tspan class="TextPosition" x="26504" y="25912"><tspan font-family="Liberation Sans, sans-serif" font-size="353px" font-weight="400" fill="rgb(0,0,0)" stroke="none" style="white-space: pre">380000000</tspan></tspan></tspan></text>
 <text class="SVGTextShape"><tspan class="TextParagraph"><tspan class="TextPosition" x="31593" y="25912"><tspan font-family="Liberation Sans, sans-serif" font-size="353px" font-weight="400" fill="rgb(0,0,0)" stroke="none" style="white-space: pre">400000000</tspan></tspan></tspan></text>
 <text class="SVGTextShape"><tspan class="TextParagraph"><tspan class="TextPosition" x="36683" y="25912"><tspan font-family="Liberation Sans, sans-serif" font-size="353px" font-weight="400" fill="rgb(0,0,0)" stroke="none" style="white-space: pre">420000000</tspan></tspan></tspan></text>
 <text class="SVGTextShape"><tspan class="TextParagraph"><tspan class="TextPosition" x="41773" y="25912"><tspan font-family="Liberation Sans, sans-serif" font-size="353px" font-weight="400" fill="rgb(0,0,0)" stroke="none" style="white-space: pre">440000000</tspan></tspan></tspan></text>
 <text class="SVGTextShape"><tspan class="TextParagraph"><tspan class="TextPosition" x="1476" y="25465"><tspan font-family="Liberation Sans, sans-serif" font-size="353px" font-weight="400" fill="rgb(0,0,0)" stroke="none" style="white-space: pre">1</tspan></tspan></tspan></text>
 <text class="SVGTextShape"><tspan class="TextParagraph"><tspan class="TextPosition" x="1284" y="17255"><tspan font-family="Liberation Sans, sans-serif" font-size="353px" font-weight="400" fill="rgb(0,0,0)" stroke="none" style="white-space: pre">10</tspan></tspan></tspan></text>
 <text class="SVGTextShape"><tspan class="TextParagraph"><tspan class="TextPosition" x="1093" y="9045"><tspan font-family="Liberation Sans, sans-serif" font-size="353px" font-weight="400" fill="rgb(0,0,0)" stroke="none" style="white-space: pre">100</tspan></tspan></tspan></text>
 <text class="SVGTextShape"><tspan class="TextParagraph"><tspan class="TextPosition" x="902" y="836"><tspan font-family="Liberation Sans, sans-serif" font-size="353px" font-weight="400" fill="rgb(0,0,0)" stroke="none" style="white-space: pre">1000</tspan></tspan></tspan></text>
 <text class="SVGTextShape"><tspan class="TextParagraph"><tspan class="TextPosition" x="7652" y="11077"><tspan font-family="Liberation Sans, sans-serif" font-size="423px" font-weight="400" fill="rgb(0,0,0)" stroke="none" style="white-space: pre">jxl6</tspan></tspan></tspan></text>
 <text class="SVGTextShape"><tspan class="TextParagraph"><tspan class="TextPosition" x="7287" y="20380"><tspan font-family="Liberation Sans, sans-serif" font-size="423px" font-weight="400" fill="rgb(0,0,0)" stroke="none" style="white-space: pre">l1c2avx2</tspan></tspan></tspan></text>
 <text class="SVGTextShape"><tspan class="TextParagraph"><tspan class="TextPosition" x="7170" y="19304"><tspan font-family="Liberation Sans, sans-serif" font-size="423px" font-weight="400" fill="rgb(0,0,0)" stroke="none" style="white-space: pre">l1c3sse41</tspan></tspan></tspan></text>
 <text class="SVGTextShape"><tspan class="TextParagraph"><tspan class="TextPosition" x="7293" y="20701"><tspan font-family="Liberation Sans, sans-serif" font-size="423px" font-weight="400" fill="rgb(0,0,0)" stroke="none" style="white-space: pre">l1c2avx2</tspan></tspan></tspan></text>
 <text class="SVGTextShape"><tspan class="TextParagraph"><tspan class="TextPosition" x="7176" y="19586"><tspan font-family="Liberation Sans, sans-serif" font-size="423px" font-weight="400" fill="rgb(0,0,0)" stroke="none" style="white-space: pre">l1c2sse41</tspan></tspan></tspan></text>
 <text class="SVGTextShape"><tspan class="TextParagraph"><tspan class="TextPosition" x="8359" y="11350"><tspan font-family="Liberation Sans, sans-serif" font-size="423px" font-weight="400" fill="rgb(0,0,0)" stroke="none" style="white-space: pre">jxl5</tspan></tspan></tspan></text>
 <text class="SVGTextShape"><tspan class="TextParagraph"><tspan class="TextPosition" x="9340" y="12400"><tspan font-family="Liberation Sans, sans-serif" font-size="423px" font-weight="400" fill="rgb(0,0,0)" stroke="none" style="white-space: pre">jxl4</tspan></tspan></tspan></text>
 <text class="SVGTextShape"><tspan class="TextParagraph"><tspan class="TextPosition" x="9942" y="12976"><tspan font-family="Liberation Sans, sans-serif" font-size="423px" font-weight="400" fill="rgb(0,0,0)" stroke="none" style="white-space: pre">jxl3</tspan></tspan></tspan></text>
 <text class="SVGTextShape"><tspan class="TextParagraph"><tspan class="TextPosition" x="9062" y="21226"><tspan font-family="Liberation Sans, sans-serif" font-size="423px" font-weight="400" fill="rgb(0,0,0)" stroke="none" style="white-space: pre">l1c1avx2</tspan></tspan></tspan></text>
 <text class="SVGTextShape"><tspan class="TextParagraph"><tspan class="TextPosition" x="8945" y="20321"><tspan font-family="Liberation Sans, sans-serif" font-size="423px" font-weight="400" fill="rgb(0,0,0)" stroke="none" style="white-space: pre">l1c1sse41</tspan></tspan></tspan></text>
 <text class="SVGTextShape"><tspan class="TextParagraph"><tspan class="TextPosition" x="10480" y="21728"><tspan font-family="Liberation Sans, sans-serif" font-size="423px" font-weight="400" fill="rgb(0,0,0)" stroke="none" style="white-space: pre">l1c0avx2</tspan></tspan></tspan></text>
 <text class="SVGTextShape"><tspan class="TextParagraph"><tspan class="TextPosition" x="10363" y="21406"><tspan font-family="Liberation Sans, sans-serif" font-size="423px" font-weight="400" fill="rgb(0,0,0)" stroke="none" style="white-space: pre">l1c0sse41</tspan></tspan></tspan></text>
 <text class="SVGTextShape"><tspan class="TextParagraph"><tspan class="TextPosition" x="14746" y="9083"><tspan font-family="Liberation Sans, sans-serif" font-size="423px" font-weight="400" fill="rgb(0,0,0)" stroke="none" style="white-space: pre">j2k</tspan></tspan></tspan></text>
 <text class="SVGTextShape"><tspan class="TextParagraph"><tspan class="TextPosition" x="19128" y="15803"><tspan font-family="Liberation Sans, sans-serif" font-size="423px" font-weight="400" fill="rgb(0,0,0)" stroke="none" style="white-space: pre">jxl2</tspan></tspan></tspan></text>
 <text class="SVGTextShape"><tspan class="TextParagraph"><tspan class="TextPosition" x="24616" y="16272"><tspan font-family="Liberation Sans, sans-serif" font-size="423px" font-weight="400" fill="rgb(0,0,0)" stroke="none" style="white-space: pre">jxl1</tspan></tspan></tspan></text>
 <text class="SVGTextShape"><tspan class="TextParagraph"><tspan class="TextPosition" x="40141" y="18523"><tspan font-family="Liberation Sans, sans-serif" font-size="423px" font-weight="400" fill="rgb(0,0,0)" stroke="none" style="white-space: pre">png</tspan></tspan></tspan></text>
 <text class="SVGTextShape"><tspan class="TextParagraph"><tspan class="TextPosition" x="7652" y="3423"><tspan font-family="Liberation Sans, sans-serif" font-size="423px" font-weight="400" fill="rgb(0,0,0)" stroke="none" style="white-space: pre">jxl6</tspan></tspan></tspan></text>
 <text class="SVGTextShape"><tspan class="TextParagraph"><tspan class="TextPosition" x="7287" y="20347"><tspan font-family="Liberation Sans, sans-serif" font-size="423px" font-weight="400" fill="rgb(0,0,0)" stroke="none" style="white-space: pre">l1c2avx2</tspan></tspan></tspan></text>
 <text class="SVGTextShape"><tspan class="TextParagraph"><tspan class="TextPosition" x="7170" y="18905"><tspan font-family="Liberation Sans, sans-serif" font-size="423px" font-weight="400" fill="rgb(0,0,0)" stroke="none" style="white-space: pre">l1c3sse41</tspan></tspan></tspan></text>
 <text class="SVGTextShape"><tspan class="TextParagraph"><tspan class="TextPosition" x="7293" y="20660"><tspan font-family="Liberation Sans, sans-serif" font-size="423px" font-weight="400" fill="rgb(0,0,0)" stroke="none" style="white-space: pre">l1c2avx2</tspan></tspan></tspan></text>
 <text class="SVGTextShape"><tspan class="TextParagraph"><tspan class="TextPosition" x="7176" y="19209"><tspan font-family="Liberation Sans, sans-serif" font-size="423px" font-weight="400" fill="rgb(0,0,0)" stroke="none" style="white-space: pre">l1c2sse41</tspan></tspan></tspan></text>
 <text class="SVGTextShape"><tspan class="TextParagraph"><tspan class="TextPosition" x="8359" y="5078"><tspan font-family="Liberation Sans, sans-serif" font-size="423px" font-weight="400" fill="rgb(0,0,0)" stroke="none" style="white-space: pre">jxl5</tspan></tspan></tspan></text>
 <text class="SVGTextShape"><tspan class="TextParagraph"><tspan class="TextPosition" x="9340" y="7758"><tspan font-family="Liberation Sans, sans-serif" font-size="423px" font-weight="400" fill="rgb(0,0,0)" stroke="none" style="white-space: pre">jxl4</tspan></tspan></tspan></text>
 <text class="SVGTextShape"><tspan class="TextParagraph"><tspan class="TextPosition" x="9942" y="11930"><tspan font-family="Liberation Sans, sans-serif" font-size="423px" font-weight="400" fill="rgb(0,0,0)" stroke="none" style="white-space: pre">jxl3</tspan></tspan></tspan></text>
 <text class="SVGTextShape"><tspan class="TextParagraph"><tspan class="TextPosition" x="9062" y="21111"><tspan font-family="Liberation Sans, sans-serif" font-size="423px" font-weight="400" fill="rgb(0,0,0)" stroke="none" style="white-space: pre">l1c1avx2</tspan></tspan></tspan></text>
 <text class="SVGTextShape"><tspan class="TextParagraph"><tspan class="TextPosition" x="8945" y="19740"><tspan font-family="Liberation Sans, sans-serif" font-size="423px" font-weight="400" fill="rgb(0,0,0)" stroke="none" style="white-space: pre">l1c1sse41</tspan></tspan></tspan></text>
 <text class="SVGTextShape"><tspan class="TextParagraph"><tspan class="TextPosition" x="10480" y="21306"><tspan font-family="Liberation Sans, sans-serif" font-size="423px" font-weight="400" fill="rgb(0,0,0)" stroke="none" style="white-space: pre">l1c0avx2</tspan></tspan></tspan></text>
 <text class="SVGTextShape"><tspan class="TextParagraph"><tspan class="TextPosition" x="10363" y="20580"><tspan font-family="Liberation Sans, sans-serif" font-size="423px" font-weight="400" fill="rgb(0,0,0)" stroke="none" style="white-space: pre">l1c0sse41</tspan></tspan></tspan></text>
 <text class="SVGTextShape"><tspan class="TextParagraph"><tspan class="TextPosition" x="14746" y="9771"><tspan font-family="Liberation Sans, sans-serif" font-size="423px" font-weight="400" fill="rgb(0,0,0)" stroke="none" style="white-space: pre">j2k</tspan></tspan></tspan></text>
 <text class="SVGTextShape"><tspan class="TextParagraph"><tspan class="TextPosition" x="19128" y="14461"><tspan font-family="Liberation Sans, sans-serif" font-size="423px" font-weight="400" fill="rgb(0,0,0)" stroke="none" style="white-space: pre">jxl2</tspan></tspan></tspan></text>
 <text class="SVGTextShape"><tspan class="TextParagraph"><tspan class="TextPosition" x="24616" y="20605"><tspan font-family="Liberation Sans, sans-serif" font-size="423px" font-weight="400" fill="rgb(0,0,0)" stroke="none" style="white-space: pre">jxl1</tspan></tspan></tspan></text>
 <text class="SVGTextShape"><tspan class="TextParagraph"><tspan class="TextPosition" x="40141" y="6487"><tspan font-family="Liberation Sans, sans-serif" font-size="423px" font-weight="400" fill="rgb(0,0,0)" stroke="none" style="white-space: pre">png</tspan></tspan></tspan></text>
 <path fill="rgb(0,69,134)" stroke="none" d="M 44526,12900 L 44526,13111 44737,13111 44737,12900 44526,12900 Z "/>
 <path fill="none" stroke="rgb(0,69,134)" stroke-linejoin="round" d="M 44526,12900 L 44526,13111 44737,13111 44737,12900 44526,12900 Z "/>
 <path fill="rgb(255,66,14)" stroke="none" d="M 44526,13502 L 44631,13608 44737,13502 44631,13397 44526,13502 Z "/>
 <path fill="none" stroke="rgb(255,66,14)" stroke-linejoin="round" d="M 44526,13502 L 44631,13608 44737,13502 44631,13397 44526,13502 Z "/>
 <text class="SVGTextShape"><tspan class="TextParagraph"><tspan class="TextPosition" x="44837" y="13125"><tspan font-family="Liberation Sans, sans-serif" font-size="353px" font-weight="400" fill="rgb(0,0,0)" stroke="none" style="white-space: pre">enc</tspan></tspan></tspan></text>
 <text class="SVGTextShape"><tspan class="TextParagraph"><tspan class="TextPosition" x="44837" y="13622"><tspan font-family="Liberation Sans, sans-serif" font-size="353px" font-weight="400" fill="rgb(0,0,0)" stroke="none" style="white-space: pre">dec</tspan></tspan></tspan></text>
</svg>