<?xml version="1.0" encoding="UTF-8"?>
<!DOCTYPE svg PUBLIC "-//W3C//DTD SVG 1.1//EN" "http://www.w3.org/Graphics/SVG/1.1/DTD/svg11.dtd">
<svg width="290mm" height="196mm" viewBox="0 0 29000 19600" version="1.1" xmlns="http://www.w3.org/2000/svg" xmlns:xlink="http://www.w3.org/1999/xlink" stroke-width="28.222" stroke-linejoin="round" xml:space="preserve">
 <path fill="rgb(255,255,255)" stroke="none" d="M 14507,19537 L -13,19537 -13,-13 29027,-13 29027,19537 14507,19537 Z"/>
 <path fill="none" stroke="rgb(179,179,179)" stroke-linejoin="round" d="M 14357,17518 L 2412,17518 2412,1884 26301,1884 26301,17518 14357,17518 Z"/>
 <path fill="none" stroke="rgb(179,179,179)" stroke-linejoin="round" d="M 2412,1883 L 2412,17517"/>
 <path fill="none" stroke="rgb(179,179,179)" stroke-linejoin="round" d="M 5398,1883 L 5398,17517"/>
 <path fill="none" stroke="rgb(179,179,179)" stroke-linejoin="round" d="M 8384,1883 L 8384,17517"/>
 <path fill="none" stroke="rgb(179,179,179)" stroke-linejoin="round" d="M 11370,1883 L 11370,17517"/>
 <path fill="none" stroke="rgb(179,179,179)" stroke-linejoin="round" d="M 14357,1883 L 14357,17517"/>
 <path fill="none" stroke="rgb(179,179,179)" stroke-linejoin="round" d="M 17342,1883 L 17342,17517"/>
 <path fill="none" stroke="rgb(179,179,179)" stroke-linejoin="round" d="M 20328,1883 L 20328,17517"/>
 <path fill="none" stroke="rgb(179,179,179)" stroke-linejoin="round" d="M 23314,1883 L 23314,17517"/>
 <path fill="none" stroke="rgb(179,179,179)" stroke-linejoin="round" d="M 26301,1883 L 26301,17517"/>
 <path fill="none" stroke="rgb(221,221,221)" stroke-linejoin="round" d="M 3009,1883 L 3009,17517"/>
 <path fill="none" stroke="rgb(221,221,221)" stroke-linejoin="round" d="M 3606,1883 L 3606,17517"/>
 <path fill="none" stroke="rgb(221,221,221)" stroke-linejoin="round" d="M 4203,1883 L 4203,17517"/>
 <path fill="none" stroke="rgb(221,221,221)" stroke-linejoin="round" d="M 4801,1883 L 4801,17517"/>
 <path fill="none" stroke="rgb(221,221,221)" stroke-linejoin="round" d="M 5995,1883 L 5995,17517"/>
 <path fill="none" stroke="rgb(221,221,221)" stroke-linejoin="round" d="M 6592,1883 L 6592,17517"/>
 <path fill="none" stroke="rgb(221,221,221)" stroke-linejoin="round" d="M 7190,1883 L 7190,17517"/>
 <path fill="none" stroke="rgb(221,221,221)" stroke-linejoin="round" d="M 7787,1883 L 7787,17517"/>
 <path fill="none" stroke="rgb(221,221,221)" stroke-linejoin="round" d="M 8981,1883 L 8981,17517"/>
 <path fill="none" stroke="rgb(221,221,221)" stroke-linejoin="round" d="M 9579,1883 L 9579,17517"/>
 <path fill="none" stroke="rgb(221,221,221)" stroke-linejoin="round" d="M 10176,1883 L 10176,17517"/>
 <path fill="none" stroke="rgb(221,221,221)" stroke-linejoin="round" d="M 10773,1883 L 10773,17517"/>
 <path fill="none" stroke="rgb(221,221,221)" stroke-linejoin="round" d="M 11968,1883 L 11968,17517"/>
 <path fill="none" stroke="rgb(221,221,221)" stroke-linejoin="round" d="M 12565,1883 L 12565,17517"/>
 <path fill="none" stroke="rgb(221,221,221)" stroke-linejoin="round" d="M 13162,1883 L 13162,17517"/>
 <path fill="none" stroke="rgb(221,221,221)" stroke-linejoin="round" d="M 13759,1883 L 13759,17517"/>
 <path fill="none" stroke="rgb(221,221,221)" stroke-linejoin="round" d="M 14953,1883 L 14953,17517"/>
 <path fill="none" stroke="rgb(221,221,221)" stroke-linejoin="round" d="M 15550,1883 L 15550,17517"/>
 <path fill="none" stroke="rgb(221,221,221)" stroke-linejoin="round" d="M 16147,1883 L 16147,17517"/>
 <path fill="none" stroke="rgb(221,221,221)" stroke-linejoin="round" d="M 16745,1883 L 16745,17517"/>
 <path fill="none" stroke="rgb(221,221,221)" stroke-linejoin="round" d="M 17939,1883 L 17939,17517"/>
 <path fill="none" stroke="rgb(221,221,221)" stroke-linejoin="round" d="M 18536,1883 L 18536,17517"/>
 <path fill="none" stroke="rgb(221,221,221)" stroke-linejoin="round" d="M 19134,1883 L 19134,17517"/>
 <path fill="none" stroke="rgb(221,221,221)" stroke-linejoin="round" d="M 19731,1883 L 19731,17517"/>
 <path fill="none" stroke="rgb(221,221,221)" stroke-linejoin="round" d="M 20925,1883 L 20925,17517"/>
 <path fill="none" stroke="rgb(221,221,221)" stroke-linejoin="round" d="M 21523,1883 L 21523,17517"/>
 <path fill="none" stroke="rgb(221,221,221)" stroke-linejoin="round" d="M 22120,1883 L 22120,17517"/>
 <path fill="none" stroke="rgb(221,221,221)" stroke-linejoin="round" d="M 22717,1883 L 22717,17517"/>
 <path fill="none" stroke="rgb(221,221,221)" stroke-linejoin="round" d="M 23912,1883 L 23912,17517"/>
 <path fill="none" stroke="rgb(221,221,221)" stroke-linejoin="round" d="M 24509,1883 L 24509,17517"/>
 <path fill="none" stroke="rgb(221,221,221)" stroke-linejoin="round" d="M 25106,1883 L 25106,17517"/>
 <path fill="none" stroke="rgb(221,221,221)" stroke-linejoin="round" d="M 25703,1883 L 25703,17517"/>
 <path fill="none" stroke="rgb(179,179,179)" stroke-linejoin="round" d="M 26301,17517 L 2412,17517"/>
 <path fill="none" stroke="rgb(179,179,179)" stroke-linejoin="round" d="M 26301,15562 L 2412,15562"/>
 <path fill="none" stroke="rgb(179,179,179)" stroke-linejoin="round" d="M 26301,13608 L 2412,13608"/>
 <path fill="none" stroke="rgb(179,179,179)" stroke-linejoin="round" d="M 26301,11653 L 2412,11653"/>
 <path fill="none" stroke="rgb(179,179,179)" stroke-linejoin="round" d="M 26301,9700 L 2412,9700"/>
 <path fill="none" stroke="rgb(179,179,179)" stroke-linejoin="round" d="M 26301,7746 L 2412,7746"/>
 <path fill="none" stroke="rgb(179,179,179)" stroke-linejoin="round" d="M 26301,5791 L 2412,5791"/>
 <path fill="none" stroke="rgb(179,179,179)" stroke-linejoin="round" d="M 26301,3837 L 2412,3837"/>
 <path fill="none" stroke="rgb(179,179,179)" stroke-linejoin="round" d="M 26301,1883 L 2412,1883"/>
 <path fill="none" stroke="rgb(221,221,221)" stroke-linejoin="round" d="M 26301,16539 L 2412,16539"/>
 <path fill="none" stroke="rgb(221,221,221)" stroke-linejoin="round" d="M 26301,14585 L 2412,14585"/>
 <path fill="none" stroke="rgb(221,221,221)" stroke-linejoin="round" d="M 26301,12631 L 2412,12631"/>
 <path fill="none" stroke="rgb(221,221,221)" stroke-linejoin="round" d="M 26301,10676 L 2412,10676"/>
 <path fill="none" stroke="rgb(221,221,221)" stroke-linejoin="round" d="M 26301,8723 L 2412,8723"/>
 <path fill="none" stroke="rgb(221,221,221)" stroke-linejoin="round" d="M 26301,6768 L 2412,6768"/>
 <path fill="none" stroke="rgb(221,221,221)" stroke-linejoin="round" d="M 26301,4814 L 2412,4814"/>
 <path fill="none" stroke="rgb(221,221,221)" stroke-linejoin="round" d="M 26301,2860 L 2412,2860"/>
 <path fill="none" stroke="rgb(179,179,179)" stroke-linejoin="round" d="M 2412,17667 L 2412,17517"/>
 <path fill="none" stroke="rgb(179,179,179)" stroke-linejoin="round" d="M 2412,17667 L 2412,17517"/>
 <path fill="none" stroke="rgb(179,179,179)" stroke-linejoin="round" d="M 5398,17667 L 5398,17517"/>
 <path fill="none" stroke="rgb(179,179,179)" stroke-linejoin="round" d="M 5398,17667 L 5398,17517"/>
 <path fill="none" stroke="rgb(179,179,179)" stroke-linejoin="round" d="M 8384,17667 L 8384,17517"/>
 <path fill="none" stroke="rgb(179,179,179)" stroke-linejoin="round" d="M 8384,17667 L 8384,17517"/>
 <path fill="none" stroke="rgb(179,179,179)" stroke-linejoin="round" d="M 11370,17667 L 11370,17517"/>
 <path fill="none" stroke="rgb(179,179,179)" stroke-linejoin="round" d="M 11370,17667 L 11370,17517"/>
 <path fill="none" stroke="rgb(179,179,179)" stroke-linejoin="round" d="M 14357,17667 L 14357,17517"/>
 <path fill="none" stroke="rgb(179,179,179)" stroke-linejoin="round" d="M 14357,17667 L 14357,17517"/>
 <path fill="none" stroke="rgb(179,179,179)" stroke-linejoin="round" d="M 17342,17667 L 17342,17517"/>
 <path fill="none" stroke="rgb(179,179,179)" stroke-linejoin="round" d="M 17342,17667 L 17342,17517"/>
 <path fill="none" stroke="rgb(179,179,179)" stroke-linejoin="round" d="M 20328,17667 L 20328,17517"/>
 <path fill="none" stroke="rgb(179,179,179)" stroke-linejoin="round" d="M 20328,17667 L 20328,17517"/>
 <path fill="none" stroke="rgb(179,179,179)" stroke-linejoin="round" d="M 23314,17667 L 23314,17517"/>
 <path fill="none" stroke="rgb(179,179,179)" stroke-linejoin="round" d="M 23314,17667 L 23314,17517"/>
 <path fill="none" stroke="rgb(179,179,179)" stroke-linejoin="round" d="M 26301,17667 L 26301,17517"/>
 <path fill="none" stroke="rgb(179,179,179)" stroke-linejoin="round" d="M 26301,17667 L 26301,17517"/>
 <path fill="none" stroke="rgb(179,179,179)" stroke-linejoin="round" d="M 2412,17517 L 26301,17517"/>
 <path fill="none" stroke="rgb(179,179,179)" stroke-linejoin="round" d="M 2262,17517 L 2412,17517"/>
 <path fill="none" stroke="rgb(179,179,179)" stroke-linejoin="round" d="M 2262,17517 L 2412,17517"/>
 <path fill="none" stroke="rgb(179,179,179)" stroke-linejoin="round" d="M 2262,15562 L 2412,15562"/>
 <path fill="none" stroke="rgb(179,179,179)" stroke-linejoin="round" d="M 2262,15562 L 2412,15562"/>
 <path fill="none" stroke="rgb(179,179,179)" stroke-linejoin="round" d="M 2262,13608 L 2412,13608"/>
 <path fill="none" stroke="rgb(179,179,179)" stroke-linejoin="round" d="M 2262,13608 L 2412,13608"/>
 <path fill="none" stroke="rgb(179,179,179)" stroke-linejoin="round" d="M 2262,11653 L 2412,11653"/>
 <path fill="none" stroke="rgb(179,179,179)" stroke-linejoin="round" d="M 2262,11653 L 2412,11653"/>
 <path fill="none" stroke="rgb(179,179,179)" stroke-linejoin="round" d="M 2262,9700 L 2412,9700"/>
 <path fill="none" stroke="rgb(179,179,179)" stroke-linejoin="round" d="M 2262,9700 L 2412,9700"/>
 <path fill="none" stroke="rgb(179,179,179)" stroke-linejoin="round" d="M 2262,7746 L 2412,7746"/>
 <path fill="none" stroke="rgb(179,179,179)" stroke-linejoin="round" d="M 2262,7746 L 2412,7746"/>
 <path fill="none" stroke="rgb(179,179,179)" stroke-linejoin="round" d="M 2262,5791 L 2412,5791"/>
 <path fill="none" stroke="rgb(179,179,179)" stroke-linejoin="round" d="M 2262,5791 L 2412,5791"/>
 <path fill="none" stroke="rgb(179,179,179)" stroke-linejoin="round" d="M 2262,3837 L 2412,3837"/>
 <path fill="none" stroke="rgb(179,179,179)" stroke-linejoin="round" d="M 2262,3837 L 2412,3837"/>
 <path fill="none" stroke="rgb(179,179,179)" stroke-linejoin="round" d="M 2262,1883 L 2412,1883"/>
 <path fill="none" stroke="rgb(179,179,179)" stroke-linejoin="round" d="M 2262,1883 L 2412,1883"/>
 <path fill="none" stroke="rgb(179,179,179)" stroke-linejoin="round" d="M 2412,17517 L 2412,1883"/>
 <path fill="rgb(255,66,14)" stroke="none" d="M 4918,10915 L 5043,11040 5168,10915 5043,10790 4918,10915 Z"/>
 <path fill="none" stroke="rgb(255,66,14)" stroke-linejoin="round" d="M 4918,10915 L 5043,11040 5168,10915 5043,10790 4918,10915 Z"/>
 <path fill="rgb(255,66,14)" stroke="none" d="M 4918,5561 L 5043,5686 5168,5561 5043,5436 4918,5561 Z"/>
 <path fill="none" stroke="rgb(255,66,14)" stroke-linejoin="round" d="M 4918,5561 L 5043,5686 5168,5561 5043,5436 4918,5561 Z"/>
 <path fill="rgb(255,66,14)" stroke="none" d="M 8266,11778 L 8391,11903 8516,11778 8391,11653 8266,11778 Z"/>
 <path fill="none" stroke="rgb(255,66,14)" stroke-linejoin="round" d="M 8266,11778 L 8391,11903 8516,11778 8391,11653 8266,11778 Z"/>
 <path fill="rgb(255,66,14)" stroke="none" d="M 9071,11769 L 9196,11894 9321,11769 9196,11644 9071,11769 Z"/>
 <path fill="none" stroke="rgb(255,66,14)" stroke-linejoin="round" d="M 9071,11769 L 9196,11894 9321,11769 9196,11644 9071,11769 Z"/>
 <path fill="rgb(255,66,14)" stroke="none" d="M 9071,8181 L 9196,8306 9321,8181 9196,8056 9071,8181 Z"/>
 <path fill="none" stroke="rgb(255,66,14)" stroke-linejoin="round" d="M 9071,8181 L 9196,8306 9321,8181 9196,8056 9071,8181 Z"/>
 <path fill="rgb(255,66,14)" stroke="none" d="M 11051,12851 L 11176,12976 11301,12851 11176,12726 11051,12851 Z"/>
 <path fill="none" stroke="rgb(255,66,14)" stroke-linejoin="round" d="M 11051,12851 L 11176,12976 11301,12851 11176,12726 11051,12851 Z"/>
 <path fill="rgb(255,66,14)" stroke="none" d="M 12400,12599 L 12525,12724 12650,12599 12525,12474 12400,12599 Z"/>
 <path fill="none" stroke="rgb(255,66,14)" stroke-linejoin="round" d="M 12400,12599 L 12525,12724 12650,12599 12525,12474 12400,12599 Z"/>
 <path fill="rgb(255,66,14)" stroke="none" d="M 12400,10547 L 12525,10672 12650,10547 12525,10422 12400,10547 Z"/>
 <path fill="none" stroke="rgb(255,66,14)" stroke-linejoin="round" d="M 12400,10547 L 12525,10672 12650,10547 12525,10422 12400,10547 Z"/>
 <path fill="rgb(255,66,14)" stroke="none" d="M 12986,13252 L 13111,13377 13236,13252 13111,13127 12986,13252 Z"/>
 <path fill="none" stroke="rgb(255,66,14)" stroke-linejoin="round" d="M 12986,13252 L 13111,13377 13236,13252 13111,13127 12986,13252 Z"/>
 <path fill="rgb(255,66,14)" stroke="none" d="M 17898,7843 L 18023,7968 18148,7843 18023,7718 17898,7843 Z"/>
 <path fill="none" stroke="rgb(255,66,14)" stroke-linejoin="round" d="M 17898,7843 L 18023,7968 18148,7843 18023,7718 17898,7843 Z"/>
 <path fill="rgb(255,66,14)" stroke="none" d="M 22964,8434 L 23089,8559 23214,8434 23089,8309 22964,8434 Z"/>
 <path fill="none" stroke="rgb(255,66,14)" stroke-linejoin="round" d="M 22964,8434 L 23089,8559 23214,8434 23089,8309 22964,8434 Z"/>
 <path fill="rgb(0,69,134)" stroke="none" d="M 4918,10838 L 4918,11088 5168,11088 5168,10838 4918,10838 Z"/>
 <path fill="none" stroke="rgb(0,69,134)" stroke-linejoin="round" d="M 4918,10838 L 4918,11088 5168,11088 5168,10838 4918,10838 Z"/>
 <path fill="rgb(0,69,134)" stroke="none" d="M 4918,3890 L 4918,4140 5168,4140 5168,3890 4918,3890 Z"/>
 <path fill="none" stroke="rgb(0,69,134)" stroke-linejoin="round" d="M 4918,3890 L 4918,4140 5168,4140 5168,3890 4918,3890 Z"/>
 <path fill="rgb(0,69,134)" stroke="none" d="M 8266,10827 L 8266,11077 8516,11077 8516,10827 8266,10827 Z"/>
 <path fill="none" stroke="rgb(0,69,134)" stroke-linejoin="round" d="M 8266,10827 L 8266,11077 8516,11077 8516,10827 8266,10827 Z"/>
 <path fill="rgb(0,69,134)" stroke="none" d="M 9071,11610 L 9071,11860 9321,11860 9321,11610 9071,11610 Z"/>
 <path fill="none" stroke="rgb(0,69,134)" stroke-linejoin="round" d="M 9071,11610 L 9071,11860 9321,11860 9321,11610 9071,11610 Z"/>
 <path fill="rgb(0,69,134)" stroke="none" d="M 9071,6683 L 9071,6933 9321,6933 9321,6683 9071,6683 Z"/>
 <path fill="none" stroke="rgb(0,69,134)" stroke-linejoin="round" d="M 9071,6683 L 9071,6933 9321,6933 9321,6683 9071,6683 Z"/>
 <path fill="rgb(0,69,134)" stroke="none" d="M 11051,11691 L 11051,11941 11301,11941 11301,11691 11051,11691 Z"/>
 <path fill="none" stroke="rgb(0,69,134)" stroke-linejoin="round" d="M 11051,11691 L 11051,11941 11301,11941 11301,11691 11051,11691 Z"/>
 <path fill="rgb(0,69,134)" stroke="none" d="M 12400,11966 L 12400,12216 12650,12216 12650,11966 12400,11966 Z"/>
 <path fill="none" stroke="rgb(0,69,134)" stroke-linejoin="round" d="M 12400,11966 L 12400,12216 12650,12216 12650,11966 12400,11966 Z"/>
 <path fill="rgb(0,69,134)" stroke="none" d="M 12400,8897 L 12400,9147 12650,9147 12650,8897 12400,8897 Z"/>
 <path fill="none" stroke="rgb(0,69,134)" stroke-linejoin="round" d="M 12400,8897 L 12400,9147 12650,9147 12650,8897 12400,8897 Z"/>
 <path fill="rgb(0,69,134)" stroke="none" d="M 12986,12195 L 12986,12445 13236,12445 13236,12195 12986,12195 Z"/>
 <path fill="none" stroke="rgb(0,69,134)" stroke-linejoin="round" d="M 12986,12195 L 12986,12445 13236,12445 13236,12195 12986,12195 Z"/>
 <path fill="rgb(0,69,134)" stroke="none" d="M 17898,6536 L 17898,6786 18148,6786 18148,6536 17898,6536 Z"/>
 <path fill="none" stroke="rgb(0,69,134)" stroke-linejoin="round" d="M 17898,6536 L 17898,6786 18148,6786 18148,6536 17898,6536 Z"/>
 <path fill="rgb(0,69,134)" stroke="none" d="M 22964,10489 L 22964,10739 23214,10739 23214,10489 22964,10489 Z"/>
 <path fill="none" stroke="rgb(0,69,134)" stroke-linejoin="round" d="M 22964,10489 L 22964,10739 23214,10739 23214,10489 22964,10489 Z"/>
 <text class="SVGTextShape"><tspan class="TextParagraph" font-family="Liberation Sans, sans-serif" font-size="353px" font-weight="400"><tspan class="TextPosition" x="1578" y="18085"><tspan fill="rgb(0,0,0)" stroke="none" style="white-space: pre">300000000</tspan></tspan></tspan></text>
 <text class="SVGTextShape"><tspan class="TextParagraph" font-family="Liberation Sans, sans-serif" font-size="353px" font-weight="400"><tspan class="TextPosition" x="4564" y="18085"><tspan fill="rgb(0,0,0)" stroke="none" style="white-space: pre">305000000</tspan></tspan></tspan></text>
 <text class="SVGTextShape"><tspan class="TextParagraph" font-family="Liberation Sans, sans-serif" font-size="353px" font-weight="400"><tspan class="TextPosition" x="7550" y="18085"><tspan fill="rgb(0,0,0)" stroke="none" style="white-space: pre">310000000</tspan></tspan></tspan></text>
 <text class="SVGTextShape"><tspan class="TextParagraph" font-family="Liberation Sans, sans-serif" font-size="353px" font-weight="400"><tspan class="TextPosition" x="10536" y="18085"><tspan fill="rgb(0,0,0)" stroke="none" style="white-space: pre">315000000</tspan></tspan></tspan></text>
 <text class="SVGTextShape"><tspan class="TextParagraph" font-family="Liberation Sans, sans-serif" font-size="353px" font-weight="400"><tspan class="TextPosition" x="13523" y="18085"><tspan fill="rgb(0,0,0)" stroke="none" style="white-space: pre">320000000</tspan></tspan></tspan></text>
 <text class="SVGTextShape"><tspan class="TextParagraph" font-family="Liberation Sans, sans-serif" font-size="353px" font-weight="400"><tspan class="TextPosition" x="16508" y="18085"><tspan fill="rgb(0,0,0)" stroke="none" style="white-space: pre">325000000</tspan></tspan></tspan></text>
 <text class="SVGTextShape"><tspan class="TextParagraph" font-family="Liberation Sans, sans-serif" font-size="353px" font-weight="400"><tspan class="TextPosition" x="19494" y="18085"><tspan fill="rgb(0,0,0)" stroke="none" style="white-space: pre">330000000</tspan></tspan></tspan></text>
 <text class="SVGTextShape"><tspan class="TextParagraph" font-family="Liberation Sans, sans-serif" font-size="353px" font-weight="400"><tspan class="TextPosition" x="22480" y="18085"><tspan fill="rgb(0,0,0)" stroke="none" style="white-space: pre">335000000</tspan></tspan></tspan></text>
 <text class="SVGTextShape"><tspan class="TextParagraph" font-family="Liberation Sans, sans-serif" font-size="353px" font-weight="400"><tspan class="TextPosition" x="25467" y="18085"><tspan fill="rgb(0,0,0)" stroke="none" style="white-space: pre">340000000</tspan></tspan></tspan></text>
 <text class="SVGTextShape"><tspan class="TextParagraph" font-family="Liberation Sans, sans-serif" font-size="353px" font-weight="400"><tspan class="TextPosition" x="1977" y="17637"><tspan fill="rgb(0,0,0)" stroke="none" style="white-space: pre">0</tspan></tspan></tspan></text>
 <text class="SVGTextShape"><tspan class="TextParagraph" font-family="Liberation Sans, sans-serif" font-size="353px" font-weight="400"><tspan class="TextPosition" x="1977" y="15682"><tspan fill="rgb(0,0,0)" stroke="none" style="white-space: pre">1</tspan></tspan></tspan></text>
 <text class="SVGTextShape"><tspan class="TextParagraph" font-family="Liberation Sans, sans-serif" font-size="353px" font-weight="400"><tspan class="TextPosition" x="1977" y="13728"><tspan fill="rgb(0,0,0)" stroke="none" style="white-space: pre">2</tspan></tspan></tspan></text>
 <text class="SVGTextShape"><tspan class="TextParagraph" font-family="Liberation Sans, sans-serif" font-size="353px" font-weight="400"><tspan class="TextPosition" x="1977" y="11773"><tspan fill="rgb(0,0,0)" stroke="none" style="white-space: pre">3</tspan></tspan></tspan></text>
 <text class="SVGTextShape"><tspan class="TextParagraph" font-family="Liberation Sans, sans-serif" font-size="353px" font-weight="400"><tspan class="TextPosition" x="1977" y="9819"><tspan fill="rgb(0,0,0)" stroke="none" style="white-space: pre">4</tspan></tspan></tspan></text>
 <text class="SVGTextShape"><tspan class="TextParagraph" font-family="Liberation Sans, sans-serif" font-size="353px" font-weight="400"><tspan class="TextPosition" x="1977" y="7866"><tspan fill="rgb(0,0,0)" stroke="none" style="white-space: pre">5</tspan></tspan></tspan></text>
 <text class="SVGTextShape"><tspan class="TextParagraph" font-family="Liberation Sans, sans-serif" font-size="353px" font-weight="400"><tspan class="TextPosition" x="1977" y="5911"><tspan fill="rgb(0,0,0)" stroke="none" style="white-space: pre">6</tspan></tspan></tspan></text>
 <text class="SVGTextShape"><tspan class="TextParagraph" font-family="Liberation Sans, sans-serif" font-size="353px" font-weight="400"><tspan class="TextPosition" x="1977" y="3957"><tspan fill="rgb(0,0,0)" stroke="none" style="white-space: pre">7</tspan></tspan></tspan></text>
 <text class="SVGTextShape"><tspan class="TextParagraph" font-family="Liberation Sans, sans-serif" font-size="353px" font-weight="400"><tspan class="TextPosition" x="1977" y="2003"><tspan fill="rgb(0,0,0)" stroke="none" style="white-space: pre">8</tspan></tspan></tspan></text>
 <text class="SVGTextShape"><tspan class="TextParagraph" font-family="Liberation Sans, sans-serif" font-size="282px" font-weight="400"><tspan class="TextPosition" x="4461" y="10637"><tspan fill="rgb(0,0,0)" stroke="none" style="white-space: pre">l1c2avx2</tspan></tspan></tspan></text>
 <text class="SVGTextShape"><tspan class="TextParagraph" font-family="Liberation Sans, sans-serif" font-size="282px" font-weight="400"><tspan class="TextPosition" x="4540" y="5283"><tspan fill="rgb(0,0,0)" stroke="none" style="white-space: pre">l1c2x86</tspan></tspan></tspan></text>
 <text class="SVGTextShape"><tspan class="TextParagraph" font-family="Liberation Sans, sans-serif" font-size="282px" font-weight="400"><tspan class="TextPosition" x="7650" y="11500"><tspan fill="rgb(0,0,0)" stroke="none" style="white-space: pre">l1c2avx512</tspan></tspan></tspan></text>
 <text class="SVGTextShape"><tspan class="TextParagraph" font-family="Liberation Sans, sans-serif" font-size="282px" font-weight="400"><tspan class="TextPosition" x="8614" y="11491"><tspan fill="rgb(0,0,0)" stroke="none" style="white-space: pre">l1c1avx2</tspan></tspan></tspan></text>
 <text class="SVGTextShape"><tspan class="TextParagraph" font-family="Liberation Sans, sans-serif" font-size="282px" font-weight="400"><tspan class="TextPosition" x="8693" y="7903"><tspan fill="rgb(0,0,0)" stroke="none" style="white-space: pre">l1c1x86</tspan></tspan></tspan></text>
 <text class="SVGTextShape"><tspan class="TextParagraph" font-family="Liberation Sans, sans-serif" font-size="282px" font-weight="400"><tspan class="TextPosition" x="10435" y="12573"><tspan fill="rgb(0,0,0)" stroke="none" style="white-space: pre">l1c1avx512</tspan></tspan></tspan></text>
 <text class="SVGTextShape"><tspan class="TextParagraph" font-family="Liberation Sans, sans-serif" font-size="282px" font-weight="400"><tspan class="TextPosition" x="11943" y="12321"><tspan fill="rgb(0,0,0)" stroke="none" style="white-space: pre">l1c0avx2</tspan></tspan></tspan></text>
 <text class="SVGTextShape"><tspan class="TextParagraph" font-family="Liberation Sans, sans-serif" font-size="282px" font-weight="400"><tspan class="TextPosition" x="12022" y="10269"><tspan fill="rgb(0,0,0)" stroke="none" style="white-space: pre">l1c0x86</tspan></tspan></tspan></text>
 <text class="SVGTextShape"><tspan class="TextParagraph" font-family="Liberation Sans, sans-serif" font-size="282px" font-weight="400"><tspan class="TextPosition" x="12370" y="12974"><tspan fill="rgb(0,0,0)" stroke="none" style="white-space: pre">l1c0avx512</tspan></tspan></tspan></text>
 <text class="SVGTextShape"><tspan class="TextParagraph" font-family="Liberation Sans, sans-serif" font-size="282px" font-weight="400"><tspan class="TextPosition" x="17732" y="7565"><tspan fill="rgb(0,0,0)" stroke="none" style="white-space: pre">qlic2</tspan></tspan></tspan></text>
 <text class="SVGTextShape"><tspan class="TextParagraph" font-family="Liberation Sans, sans-serif" font-size="282px" font-weight="400"><tspan class="TextPosition" x="22560" y="8156"><tspan fill="rgb(0,0,0)" stroke="none" style="white-space: pre">halic072</tspan></tspan></tspan></text>
 <text class="SVGTextShape"><tspan class="TextParagraph" font-family="Liberation Sans, sans-serif" font-size="282px" font-weight="400"><tspan class="TextPosition" x="4461" y="10685"><tspan fill="rgb(0,0,0)" stroke="none" style="white-space: pre">l1c2avx2</tspan></tspan></tspan></text>
 <text class="SVGTextShape"><tspan class="TextParagraph" font-family="Liberation Sans, sans-serif" font-size="282px" font-weight="400"><tspan class="TextPosition" x="4540" y="3737"><tspan fill="rgb(0,0,0)" stroke="none" style="white-space: pre">l1c2x86</tspan></tspan></tspan></text>
 <text class="SVGTextShape"><tspan class="TextParagraph" font-family="Liberation Sans, sans-serif" font-size="282px" font-weight="400"><tspan class="TextPosition" x="7650" y="10674"><tspan fill="rgb(0,0,0)" stroke="none" style="white-space: pre">l1c2avx512</tspan></tspan></tspan></text>
 <text class="SVGTextShape"><tspan class="TextParagraph" font-family="Liberation Sans, sans-serif" font-size="282px" font-weight="400"><tspan class="TextPosition" x="8614" y="11457"><tspan fill="rgb(0,0,0)" stroke="none" style="white-space: pre">l1c1avx2</tspan></tspan></tspan></text>
 <text class="SVGTextShape"><tspan class="TextParagraph" font-family="Liberation Sans, sans-serif" font-size="282px" font-weight="400"><tspan class="TextPosition" x="8693" y="6530"><tspan fill="rgb(0,0,0)" stroke="none" style="white-space: pre">l1c1x86</tspan></tspan></tspan></text>
 <text class="SVGTextShape"><tspan class="TextParagraph" font-family="Liberation Sans, sans-serif" font-size="282px" font-weight="400"><tspan class="TextPosition" x="10435" y="11538"><tspan fill="rgb(0,0,0)" stroke="none" style="white-space: pre">l1c1avx512</tspan></tspan></tspan></text>
 <text class="SVGTextShape"><tspan class="TextParagraph" font-family="Liberation Sans, sans-serif" font-size="282px" font-weight="400"><tspan class="TextPosition" x="11943" y="11813"><tspan fill="rgb(0,0,0)" stroke="none" style="white-space: pre">l1c0avx2</tspan></tspan></tspan></text>
 <text class="SVGTextShape"><tspan class="TextParagraph" font-family="Liberation Sans, sans-serif" font-size="282px" font-weight="400"><tspan class="TextPosition" x="12022" y="8744"><tspan fill="rgb(0,0,0)" stroke="none" style="white-space: pre">l1c0x86</tspan></tspan></tspan></text>
 <text class="SVGTextShape"><tspan class="TextParagraph" font-family="Liberation Sans, sans-serif" font-size="282px" font-weight="400"><tspan class="TextPosition" x="12370" y="12042"><tspan fill="rgb(0,0,0)" stroke="none" style="white-space: pre">l1c0avx512</tspan></tspan></tspan></text>
 <text class="SVGTextShape"><tspan class="TextParagraph" font-family="Liberation Sans, sans-serif" font-size="282px" font-weight="400"><tspan class="TextPosition" x="17732" y="6383"><tspan fill="rgb(0,0,0)" stroke="none" style="white-space: pre">qlic2</tspan></tspan></tspan></text>
 <text class="SVGTextShape"><tspan class="TextParagraph" font-family="Liberation Sans, sans-serif" font-size="282px" font-weight="400"><tspan class="TextPosition" x="22560" y="10336"><tspan fill="rgb(0,0,0)" stroke="none" style="white-space: pre">halic072</tspan></tspan></tspan></text>
 <text class="SVGTextShape"><tspan class="TextParagraph" font-family="Liberation Sans, sans-serif" font-size="459px" font-weight="400"><tspan class="TextPosition" x="12866" y="1049"><tspan fill="rgb(0,0,0)" stroke="none" style="white-space: pre">DIV2K validation</tspan></tspan></tspan></text>
 <path fill="rgb(0,69,134)" stroke="none" d="M 27832,9407 L 27832,9618 28043,9618 28043,9407 27832,9407 Z"/>
 <path fill="none" stroke="rgb(0,69,134)" stroke-linejoin="round" d="M 27832,9407 L 27832,9618 28043,9618 28043,9407 27832,9407 Z"/>
 <path fill="rgb(255,66,14)" stroke="none" d="M 27832,10009 L 27937,10115 28043,10009 27937,9904 27832,10009 Z"/>
 <path fill="none" stroke="rgb(255,66,14)" stroke-linejoin="round" d="M 27832,10009 L 27937,10115 28043,10009 27937,9904 27832,10009 Z"/>
 <text class="SVGTextShape"><tspan class="TextParagraph" font-family="Liberation Sans, sans-serif" font-size="353px" font-weight="400"><tspan class="TextPosition" x="28143" y="9632"><tspan fill="rgb(0,0,0)" stroke="none" style="white-space: pre">enc</tspan></tspan></tspan></text>
 <text class="SVGTextShape"><tspan class="TextParagraph" font-family="Liberation Sans, sans-serif" font-size="353px" font-weight="400"><tspan class="TextPosition" x="28143" y="10129"><tspan fill="rgb(0,0,0)" stroke="none" style="white-space: pre">dec</tspan></tspan></tspan></text>
 <text class="SVGTextShape"><tspan class="TextParagraph" font-family="Liberation Sans, sans-serif" font-size="318px" font-weight="400"><tspan class="TextPosition" x="13510" y="18942"><tspan fill="rgb(0,0,0)" stroke="none" style="white-space: pre">Size (bytes)</tspan></tspan></tspan></text>
 <text class="SVGTextShape" transform="rotate(-90 -4373 -10753)"><tspan class="TextParagraph" font-family="Liberation Sans, sans-serif" font-size="318px" font-weight="400"><tspan class="TextPosition" x="824" y="10677"><tspan fill="rgb(0,0,0)" stroke="none" style="white-space: pre">Time (sec)</tspan></tspan></tspan></text>
</svg>