<?xml version="1.0" encoding="UTF-8"?>
<!DOCTYPE svg PUBLIC "-//W3C//DTD SVG 1.1//EN" "http://www.w3.org/Graphics/SVG/1.1/DTD/svg11.dtd">
<svg width="322mm" height="196mm" viewBox="0 0 32200 19600" version="1.1" xmlns="http://www.w3.org/2000/svg" xmlns:xlink="http://www.w3.org/1999/xlink" stroke-width="28.222" stroke-linejoin="round" xml:space="preserve">
 <path fill="rgb(255,255,255)" stroke="none" d="M 16103,19537 L -13,19537 -13,-13 32219,-13 32219,19537 16103,19537 Z"/>
 <path fill="none" stroke="rgb(179,179,179)" stroke-linejoin="round" d="M 15953,17518 L 2476,17518 2476,1884 29429,1884 29429,17518 15953,17518 Z"/>
 <path fill="none" stroke="rgb(179,179,179)" stroke-linejoin="round" d="M 2476,1883 L 2476,17517"/>
 <path fill="none" stroke="rgb(179,179,179)" stroke-linejoin="round" d="M 5171,1883 L 5171,17517"/>
 <path fill="none" stroke="rgb(179,179,179)" stroke-linejoin="round" d="M 7866,1883 L 7866,17517"/>
 <path fill="none" stroke="rgb(179,179,179)" stroke-linejoin="round" d="M 10562,1883 L 10562,17517"/>
 <path fill="none" stroke="rgb(179,179,179)" stroke-linejoin="round" d="M 13257,1883 L 13257,17517"/>
 <path fill="none" stroke="rgb(179,179,179)" stroke-linejoin="round" d="M 15952,1883 L 15952,17517"/>
 <path fill="none" stroke="rgb(179,179,179)" stroke-linejoin="round" d="M 18647,1883 L 18647,17517"/>
 <path fill="none" stroke="rgb(179,179,179)" stroke-linejoin="round" d="M 21342,1883 L 21342,17517"/>
 <path fill="none" stroke="rgb(179,179,179)" stroke-linejoin="round" d="M 24038,1883 L 24038,17517"/>
 <path fill="none" stroke="rgb(179,179,179)" stroke-linejoin="round" d="M 26733,1883 L 26733,17517"/>
 <path fill="none" stroke="rgb(179,179,179)" stroke-linejoin="round" d="M 29429,1883 L 29429,17517"/>
 <path fill="none" stroke="rgb(221,221,221)" stroke-linejoin="round" d="M 3823,1883 L 3823,17517"/>
 <path fill="none" stroke="rgb(221,221,221)" stroke-linejoin="round" d="M 6519,1883 L 6519,17517"/>
 <path fill="none" stroke="rgb(221,221,221)" stroke-linejoin="round" d="M 9214,1883 L 9214,17517"/>
 <path fill="none" stroke="rgb(221,221,221)" stroke-linejoin="round" d="M 11909,1883 L 11909,17517"/>
 <path fill="none" stroke="rgb(221,221,221)" stroke-linejoin="round" d="M 14605,1883 L 14605,17517"/>
 <path fill="none" stroke="rgb(221,221,221)" stroke-linejoin="round" d="M 17299,1883 L 17299,17517"/>
 <path fill="none" stroke="rgb(221,221,221)" stroke-linejoin="round" d="M 19995,1883 L 19995,17517"/>
 <path fill="none" stroke="rgb(221,221,221)" stroke-linejoin="round" d="M 22690,1883 L 22690,17517"/>
 <path fill="none" stroke="rgb(221,221,221)" stroke-linejoin="round" d="M 25385,1883 L 25385,17517"/>
 <path fill="none" stroke="rgb(221,221,221)" stroke-linejoin="round" d="M 28081,1883 L 28081,17517"/>
 <path fill="none" stroke="rgb(179,179,179)" stroke-linejoin="round" d="M 29429,17517 L 2476,17517"/>
 <path fill="none" stroke="rgb(179,179,179)" stroke-linejoin="round" d="M 29429,15779 L 2476,15779"/>
 <path fill="none" stroke="rgb(179,179,179)" stroke-linejoin="round" d="M 29429,14042 L 2476,14042"/>
 <path fill="none" stroke="rgb(179,179,179)" stroke-linejoin="round" d="M 29429,12305 L 2476,12305"/>
 <path fill="none" stroke="rgb(179,179,179)" stroke-linejoin="round" d="M 29429,10568 L 2476,10568"/>
 <path fill="none" stroke="rgb(179,179,179)" stroke-linejoin="round" d="M 29429,8831 L 2476,8831"/>
 <path fill="none" stroke="rgb(179,179,179)" stroke-linejoin="round" d="M 29429,7094 L 2476,7094"/>
 <path fill="none" stroke="rgb(179,179,179)" stroke-linejoin="round" d="M 29429,5357 L 2476,5357"/>
 <path fill="none" stroke="rgb(179,179,179)" stroke-linejoin="round" d="M 29429,3620 L 2476,3620"/>
 <path fill="none" stroke="rgb(179,179,179)" stroke-linejoin="round" d="M 29429,1883 L 2476,1883"/>
 <path fill="none" stroke="rgb(221,221,221)" stroke-linejoin="round" d="M 29429,16648 L 2476,16648"/>
 <path fill="none" stroke="rgb(221,221,221)" stroke-linejoin="round" d="M 29429,14911 L 2476,14911"/>
 <path fill="none" stroke="rgb(221,221,221)" stroke-linejoin="round" d="M 29429,13173 L 2476,13173"/>
 <path fill="none" stroke="rgb(221,221,221)" stroke-linejoin="round" d="M 29429,11436 L 2476,11436"/>
 <path fill="none" stroke="rgb(221,221,221)" stroke-linejoin="round" d="M 29429,9700 L 2476,9700"/>
 <path fill="none" stroke="rgb(221,221,221)" stroke-linejoin="round" d="M 29429,7963 L 2476,7963"/>
 <path fill="none" stroke="rgb(221,221,221)" stroke-linejoin="round" d="M 29429,6226 L 2476,6226"/>
 <path fill="none" stroke="rgb(221,221,221)" stroke-linejoin="round" d="M 29429,4488 L 2476,4488"/>
 <path fill="none" stroke="rgb(221,221,221)" stroke-linejoin="round" d="M 29429,2751 L 2476,2751"/>
 <path fill="none" stroke="rgb(179,179,179)" stroke-linejoin="round" d="M 2476,17667 L 2476,17517"/>
 <path fill="none" stroke="rgb(179,179,179)" stroke-linejoin="round" d="M 2476,17667 L 2476,17517"/>
 <path fill="none" stroke="rgb(179,179,179)" stroke-linejoin="round" d="M 5171,17667 L 5171,17517"/>
 <path fill="none" stroke="rgb(179,179,179)" stroke-linejoin="round" d="M 5171,17667 L 5171,17517"/>
 <path fill="none" stroke="rgb(179,179,179)" stroke-linejoin="round" d="M 7866,17667 L 7866,17517"/>
 <path fill="none" stroke="rgb(179,179,179)" stroke-linejoin="round" d="M 7866,17667 L 7866,17517"/>
 <path fill="none" stroke="rgb(179,179,179)" stroke-linejoin="round" d="M 10562,17667 L 10562,17517"/>
 <path fill="none" stroke="rgb(179,179,179)" stroke-linejoin="round" d="M 10562,17667 L 10562,17517"/>
 <path fill="none" stroke="rgb(179,179,179)" stroke-linejoin="round" d="M 13257,17667 L 13257,17517"/>
 <path fill="none" stroke="rgb(179,179,179)" stroke-linejoin="round" d="M 13257,17667 L 13257,17517"/>
 <path fill="none" stroke="rgb(179,179,179)" stroke-linejoin="round" d="M 15953,17667 L 15953,17517"/>
 <path fill="none" stroke="rgb(179,179,179)" stroke-linejoin="round" d="M 15953,17667 L 15953,17517"/>
 <path fill="none" stroke="rgb(179,179,179)" stroke-linejoin="round" d="M 18647,17667 L 18647,17517"/>
 <path fill="none" stroke="rgb(179,179,179)" stroke-linejoin="round" d="M 18647,17667 L 18647,17517"/>
 <path fill="none" stroke="rgb(179,179,179)" stroke-linejoin="round" d="M 21342,17667 L 21342,17517"/>
 <path fill="none" stroke="rgb(179,179,179)" stroke-linejoin="round" d="M 21342,17667 L 21342,17517"/>
 <path fill="none" stroke="rgb(179,179,179)" stroke-linejoin="round" d="M 24038,17667 L 24038,17517"/>
 <path fill="none" stroke="rgb(179,179,179)" stroke-linejoin="round" d="M 24038,17667 L 24038,17517"/>
 <path fill="none" stroke="rgb(179,179,179)" stroke-linejoin="round" d="M 26733,17667 L 26733,17517"/>
 <path fill="none" stroke="rgb(179,179,179)" stroke-linejoin="round" d="M 26733,17667 L 26733,17517"/>
 <path fill="none" stroke="rgb(179,179,179)" stroke-linejoin="round" d="M 29429,17667 L 29429,17517"/>
 <path fill="none" stroke="rgb(179,179,179)" stroke-linejoin="round" d="M 29429,17667 L 29429,17517"/>
 <path fill="none" stroke="rgb(179,179,179)" stroke-linejoin="round" d="M 2476,17517 L 29429,17517"/>
 <path fill="none" stroke="rgb(179,179,179)" stroke-linejoin="round" d="M 2326,17517 L 2476,17517"/>
 <path fill="none" stroke="rgb(179,179,179)" stroke-linejoin="round" d="M 2326,17517 L 2476,17517"/>
 <path fill="none" stroke="rgb(179,179,179)" stroke-linejoin="round" d="M 2326,15779 L 2476,15779"/>
 <path fill="none" stroke="rgb(179,179,179)" stroke-linejoin="round" d="M 2326,15779 L 2476,15779"/>
 <path fill="none" stroke="rgb(179,179,179)" stroke-linejoin="round" d="M 2326,14042 L 2476,14042"/>
 <path fill="none" stroke="rgb(179,179,179)" stroke-linejoin="round" d="M 2326,14042 L 2476,14042"/>
 <path fill="none" stroke="rgb(179,179,179)" stroke-linejoin="round" d="M 2326,12305 L 2476,12305"/>
 <path fill="none" stroke="rgb(179,179,179)" stroke-linejoin="round" d="M 2326,12305 L 2476,12305"/>
 <path fill="none" stroke="rgb(179,179,179)" stroke-linejoin="round" d="M 2326,10568 L 2476,10568"/>
 <path fill="none" stroke="rgb(179,179,179)" stroke-linejoin="round" d="M 2326,10568 L 2476,10568"/>
 <path fill="none" stroke="rgb(179,179,179)" stroke-linejoin="round" d="M 2326,8831 L 2476,8831"/>
 <path fill="none" stroke="rgb(179,179,179)" stroke-linejoin="round" d="M 2326,8831 L 2476,8831"/>
 <path fill="none" stroke="rgb(179,179,179)" stroke-linejoin="round" d="M 2326,7094 L 2476,7094"/>
 <path fill="none" stroke="rgb(179,179,179)" stroke-linejoin="round" d="M 2326,7094 L 2476,7094"/>
 <path fill="none" stroke="rgb(179,179,179)" stroke-linejoin="round" d="M 2326,5357 L 2476,5357"/>
 <path fill="none" stroke="rgb(179,179,179)" stroke-linejoin="round" d="M 2326,5357 L 2476,5357"/>
 <path fill="none" stroke="rgb(179,179,179)" stroke-linejoin="round" d="M 2326,3620 L 2476,3620"/>
 <path fill="none" stroke="rgb(179,179,179)" stroke-linejoin="round" d="M 2326,3620 L 2476,3620"/>
 <path fill="none" stroke="rgb(179,179,179)" stroke-linejoin="round" d="M 2326,1883 L 2476,1883"/>
 <path fill="none" stroke="rgb(179,179,179)" stroke-linejoin="round" d="M 2326,1883 L 2476,1883"/>
 <path fill="none" stroke="rgb(179,179,179)" stroke-linejoin="round" d="M 2476,17517 L 2476,1883"/>
 <path fill="rgb(255,66,14)" stroke="none" d="M 5640,3550 L 5765,3675 5890,3550 5765,3425 5640,3550 Z"/>
 <path fill="none" stroke="rgb(255,66,14)" stroke-linejoin="round" d="M 5640,3550 L 5765,3675 5890,3550 5765,3425 5640,3550 Z"/>
 <path fill="rgb(255,66,14)" stroke="none" d="M 6095,7330 L 6220,7455 6345,7330 6220,7205 6095,7330 Z"/>
 <path fill="none" stroke="rgb(255,66,14)" stroke-linejoin="round" d="M 6095,7330 L 6220,7455 6345,7330 6220,7205 6095,7330 Z"/>
 <path fill="rgb(255,66,14)" stroke="none" d="M 8074,8920 L 8199,9045 8324,8920 8199,8795 8074,8920 Z"/>
 <path fill="none" stroke="rgb(255,66,14)" stroke-linejoin="round" d="M 8074,8920 L 8199,9045 8324,8920 8199,8795 8074,8920 Z"/>
 <path fill="rgb(255,66,14)" stroke="none" d="M 8272,4496 L 8397,4621 8522,4496 8397,4371 8272,4496 Z"/>
 <path fill="none" stroke="rgb(255,66,14)" stroke-linejoin="round" d="M 8272,4496 L 8397,4621 8522,4496 8397,4371 8272,4496 Z"/>
 <path fill="rgb(255,66,14)" stroke="none" d="M 9681,4145 L 9806,4270 9931,4145 9806,4020 9681,4145 Z"/>
 <path fill="none" stroke="rgb(255,66,14)" stroke-linejoin="round" d="M 9681,4145 L 9806,4270 9931,4145 9806,4020 9681,4145 Z"/>
 <path fill="rgb(255,66,14)" stroke="none" d="M 11491,10417 L 11616,10542 11741,10417 11616,10292 11491,10417 Z"/>
 <path fill="none" stroke="rgb(255,66,14)" stroke-linejoin="round" d="M 11491,10417 L 11616,10542 11741,10417 11616,10292 11491,10417 Z"/>
 <path fill="rgb(255,66,14)" stroke="none" d="M 18997,8070 L 19122,8195 19247,8070 19122,7945 18997,8070 Z"/>
 <path fill="none" stroke="rgb(255,66,14)" stroke-linejoin="round" d="M 18997,8070 L 19122,8195 19247,8070 19122,7945 18997,8070 Z"/>
 <path fill="rgb(255,66,14)" stroke="none" d="M 22645,7983 L 22770,8108 22895,7983 22770,7858 22645,7983 Z"/>
 <path fill="none" stroke="rgb(255,66,14)" stroke-linejoin="round" d="M 22645,7983 L 22770,8108 22895,7983 22770,7858 22645,7983 Z"/>
 <path fill="rgb(255,66,14)" stroke="none" d="M 23858,11076 L 23983,11201 24108,11076 23983,10951 23858,11076 Z"/>
 <path fill="none" stroke="rgb(255,66,14)" stroke-linejoin="round" d="M 23858,11076 L 23983,11201 24108,11076 23983,10951 23858,11076 Z"/>
 <path fill="rgb(255,66,14)" stroke="none" d="M 26460,12506 L 26585,12631 26710,12506 26585,12381 26460,12506 Z"/>
 <path fill="none" stroke="rgb(255,66,14)" stroke-linejoin="round" d="M 26460,12506 L 26585,12631 26710,12506 26585,12381 26460,12506 Z"/>
 <path fill="rgb(0,69,134)" stroke="none" d="M 5640,4073 L 5640,4323 5890,4323 5890,4073 5640,4073 Z"/>
 <path fill="none" stroke="rgb(0,69,134)" stroke-linejoin="round" d="M 5640,4073 L 5640,4323 5890,4323 5890,4073 5640,4073 Z"/>
 <path fill="rgb(0,69,134)" stroke="none" d="M 6095,7591 L 6095,7841 6345,7841 6345,7591 6095,7591 Z"/>
 <path fill="none" stroke="rgb(0,69,134)" stroke-linejoin="round" d="M 6095,7591 L 6095,7841 6345,7841 6345,7591 6095,7591 Z"/>
 <path fill="rgb(0,69,134)" stroke="none" d="M 8074,8923 L 8074,9173 8324,9173 8324,8923 8074,8923 Z"/>
 <path fill="none" stroke="rgb(0,69,134)" stroke-linejoin="round" d="M 8074,8923 L 8074,9173 8324,9173 8324,8923 8074,8923 Z"/>
 <path fill="rgb(0,69,134)" stroke="none" d="M 8272,7481 L 8272,7731 8522,7731 8522,7481 8272,7481 Z"/>
 <path fill="none" stroke="rgb(0,69,134)" stroke-linejoin="round" d="M 8272,7481 L 8272,7731 8522,7731 8522,7481 8272,7481 Z"/>
 <path fill="rgb(0,69,134)" stroke="none" d="M 9681,3801 L 9681,4051 9931,4051 9931,3801 9681,3801 Z"/>
 <path fill="none" stroke="rgb(0,69,134)" stroke-linejoin="round" d="M 9681,3801 L 9681,4051 9931,4051 9931,3801 9681,3801 Z"/>
 <path fill="rgb(0,69,134)" stroke="none" d="M 11491,9846 L 11491,10096 11741,10096 11741,9846 11491,9846 Z"/>
 <path fill="none" stroke="rgb(0,69,134)" stroke-linejoin="round" d="M 11491,9846 L 11491,10096 11741,10096 11741,9846 11491,9846 Z"/>
 <path fill="rgb(0,69,134)" stroke="none" d="M 18997,11483 L 18997,11733 19247,11733 19247,11483 18997,11483 Z"/>
 <path fill="none" stroke="rgb(0,69,134)" stroke-linejoin="round" d="M 18997,11483 L 18997,11733 19247,11733 19247,11483 18997,11483 Z"/>
 <path fill="rgb(0,69,134)" stroke="none" d="M 22645,8241 L 22645,8491 22895,8491 22895,8241 22645,8241 Z"/>
 <path fill="none" stroke="rgb(0,69,134)" stroke-linejoin="round" d="M 22645,8241 L 22645,8491 22895,8491 22895,8241 22645,8241 Z"/>
 <path fill="rgb(0,69,134)" stroke="none" d="M 23858,10949 L 23858,11199 24108,11199 24108,10949 23858,10949 Z"/>
 <path fill="none" stroke="rgb(0,69,134)" stroke-linejoin="round" d="M 23858,10949 L 23858,11199 24108,11199 24108,10949 23858,10949 Z"/>
 <path fill="rgb(0,69,134)" stroke="none" d="M 26460,10798 L 26460,11048 26710,11048 26710,10798 26460,10798 Z"/>
 <path fill="none" stroke="rgb(0,69,134)" stroke-linejoin="round" d="M 26460,10798 L 26460,11048 26710,11048 26710,10798 26460,10798 Z"/>
 <text class="SVGTextShape"><tspan class="TextParagraph" font-family="Liberation Sans, sans-serif" font-size="353px" font-weight="400"><tspan class="TextPosition" x="1642" y="18085"><tspan fill="rgb(0,0,0)" stroke="none" style="white-space: pre">410000000</tspan></tspan></tspan></text>
 <text class="SVGTextShape"><tspan class="TextParagraph" font-family="Liberation Sans, sans-serif" font-size="353px" font-weight="400"><tspan class="TextPosition" x="4337" y="18085"><tspan fill="rgb(0,0,0)" stroke="none" style="white-space: pre">420000000</tspan></tspan></tspan></text>
 <text class="SVGTextShape"><tspan class="TextParagraph" font-family="Liberation Sans, sans-serif" font-size="353px" font-weight="400"><tspan class="TextPosition" x="7032" y="18085"><tspan fill="rgb(0,0,0)" stroke="none" style="white-space: pre">430000000</tspan></tspan></tspan></text>
 <text class="SVGTextShape"><tspan class="TextParagraph" font-family="Liberation Sans, sans-serif" font-size="353px" font-weight="400"><tspan class="TextPosition" x="9728" y="18085"><tspan fill="rgb(0,0,0)" stroke="none" style="white-space: pre">440000000</tspan></tspan></tspan></text>
 <text class="SVGTextShape"><tspan class="TextParagraph" font-family="Liberation Sans, sans-serif" font-size="353px" font-weight="400"><tspan class="TextPosition" x="12423" y="18085"><tspan fill="rgb(0,0,0)" stroke="none" style="white-space: pre">450000000</tspan></tspan></tspan></text>
 <text class="SVGTextShape"><tspan class="TextParagraph" font-family="Liberation Sans, sans-serif" font-size="353px" font-weight="400"><tspan class="TextPosition" x="15119" y="18085"><tspan fill="rgb(0,0,0)" stroke="none" style="white-space: pre">460000000</tspan></tspan></tspan></text>
 <text class="SVGTextShape"><tspan class="TextParagraph" font-family="Liberation Sans, sans-serif" font-size="353px" font-weight="400"><tspan class="TextPosition" x="17813" y="18085"><tspan fill="rgb(0,0,0)" stroke="none" style="white-space: pre">470000000</tspan></tspan></tspan></text>
 <text class="SVGTextShape"><tspan class="TextParagraph" font-family="Liberation Sans, sans-serif" font-size="353px" font-weight="400"><tspan class="TextPosition" x="20508" y="18085"><tspan fill="rgb(0,0,0)" stroke="none" style="white-space: pre">480000000</tspan></tspan></tspan></text>
 <text class="SVGTextShape"><tspan class="TextParagraph" font-family="Liberation Sans, sans-serif" font-size="353px" font-weight="400"><tspan class="TextPosition" x="23204" y="18085"><tspan fill="rgb(0,0,0)" stroke="none" style="white-space: pre">490000000</tspan></tspan></tspan></text>
 <text class="SVGTextShape"><tspan class="TextParagraph" font-family="Liberation Sans, sans-serif" font-size="353px" font-weight="400"><tspan class="TextPosition" x="25899" y="18085"><tspan fill="rgb(0,0,0)" stroke="none" style="white-space: pre">500000000</tspan></tspan></tspan></text>
 <text class="SVGTextShape"><tspan class="TextParagraph" font-family="Liberation Sans, sans-serif" font-size="353px" font-weight="400"><tspan class="TextPosition" x="28595" y="18085"><tspan fill="rgb(0,0,0)" stroke="none" style="white-space: pre">510000000</tspan></tspan></tspan></text>
 <text class="SVGTextShape"><tspan class="TextParagraph" font-family="Liberation Sans, sans-serif" font-size="353px" font-weight="400"><tspan class="TextPosition" x="2041" y="17637"><tspan fill="rgb(0,0,0)" stroke="none" style="white-space: pre">0</tspan></tspan></tspan></text>
 <text class="SVGTextShape"><tspan class="TextParagraph" font-family="Liberation Sans, sans-serif" font-size="353px" font-weight="400"><tspan class="TextPosition" x="1750" y="15899"><tspan fill="rgb(0,0,0)" stroke="none" style="white-space: pre">0.5</tspan></tspan></tspan></text>
 <text class="SVGTextShape"><tspan class="TextParagraph" font-family="Liberation Sans, sans-serif" font-size="353px" font-weight="400"><tspan class="TextPosition" x="2041" y="14162"><tspan fill="rgb(0,0,0)" stroke="none" style="white-space: pre">1</tspan></tspan></tspan></text>
 <text class="SVGTextShape"><tspan class="TextParagraph" font-family="Liberation Sans, sans-serif" font-size="353px" font-weight="400"><tspan class="TextPosition" x="1750" y="12425"><tspan fill="rgb(0,0,0)" stroke="none" style="white-space: pre">1.5</tspan></tspan></tspan></text>
 <text class="SVGTextShape"><tspan class="TextParagraph" font-family="Liberation Sans, sans-serif" font-size="353px" font-weight="400"><tspan class="TextPosition" x="2041" y="10688"><tspan fill="rgb(0,0,0)" stroke="none" style="white-space: pre">2</tspan></tspan></tspan></text>
 <text class="SVGTextShape"><tspan class="TextParagraph" font-family="Liberation Sans, sans-serif" font-size="353px" font-weight="400"><tspan class="TextPosition" x="1750" y="8951"><tspan fill="rgb(0,0,0)" stroke="none" style="white-space: pre">2.5</tspan></tspan></tspan></text>
 <text class="SVGTextShape"><tspan class="TextParagraph" font-family="Liberation Sans, sans-serif" font-size="353px" font-weight="400"><tspan class="TextPosition" x="2041" y="7214"><tspan fill="rgb(0,0,0)" stroke="none" style="white-space: pre">3</tspan></tspan></tspan></text>
 <text class="SVGTextShape"><tspan class="TextParagraph" font-family="Liberation Sans, sans-serif" font-size="353px" font-weight="400"><tspan class="TextPosition" x="1750" y="5477"><tspan fill="rgb(0,0,0)" stroke="none" style="white-space: pre">3.5</tspan></tspan></tspan></text>
 <text class="SVGTextShape"><tspan class="TextParagraph" font-family="Liberation Sans, sans-serif" font-size="353px" font-weight="400"><tspan class="TextPosition" x="2041" y="3740"><tspan fill="rgb(0,0,0)" stroke="none" style="white-space: pre">4</tspan></tspan></tspan></text>
 <text class="SVGTextShape"><tspan class="TextParagraph" font-family="Liberation Sans, sans-serif" font-size="353px" font-weight="400"><tspan class="TextPosition" x="1750" y="2003"><tspan fill="rgb(0,0,0)" stroke="none" style="white-space: pre">4.5</tspan></tspan></tspan></text>
 <text class="SVGTextShape"><tspan class="TextParagraph" font-family="Liberation Sans, sans-serif" font-size="353px" font-weight="400"><tspan class="TextPosition" x="5447" y="3246"><tspan fill="rgb(0,0,0)" stroke="none" style="white-space: pre">l1c3</tspan></tspan></tspan></text>
 <text class="SVGTextShape"><tspan class="TextParagraph" font-family="Liberation Sans, sans-serif" font-size="353px" font-weight="400"><tspan class="TextPosition" x="5902" y="7026"><tspan fill="rgb(0,0,0)" stroke="none" style="white-space: pre">l1c2</tspan></tspan></tspan></text>
 <text class="SVGTextShape"><tspan class="TextParagraph" font-family="Liberation Sans, sans-serif" font-size="353px" font-weight="400"><tspan class="TextPosition" x="7881" y="8616"><tspan fill="rgb(0,0,0)" stroke="none" style="white-space: pre">l1c1</tspan></tspan></tspan></text>
 <text class="SVGTextShape"><tspan class="TextParagraph" font-family="Liberation Sans, sans-serif" font-size="353px" font-weight="400"><tspan class="TextPosition" x="7762" y="4192"><tspan fill="rgb(0,0,0)" stroke="none" style="white-space: pre">halic072</tspan></tspan></tspan></text>
 <text class="SVGTextShape"><tspan class="TextParagraph" font-family="Liberation Sans, sans-serif" font-size="353px" font-weight="400"><tspan class="TextPosition" x="9449" y="3841"><tspan fill="rgb(0,0,0)" stroke="none" style="white-space: pre">qlic2</tspan></tspan></tspan></text>
 <text class="SVGTextShape"><tspan class="TextParagraph" font-family="Liberation Sans, sans-serif" font-size="353px" font-weight="400"><tspan class="TextPosition" x="11298" y="10113"><tspan fill="rgb(0,0,0)" stroke="none" style="white-space: pre">l1c0</tspan></tspan></tspan></text>
 <text class="SVGTextShape"><tspan class="TextParagraph" font-family="Liberation Sans, sans-serif" font-size="353px" font-weight="400"><tspan class="TextPosition" x="18196" y="7766"><tspan fill="rgb(0,0,0)" stroke="none" style="white-space: pre">halic072fast</tspan></tspan></tspan></text>
 <text class="SVGTextShape"><tspan class="TextParagraph" font-family="Liberation Sans, sans-serif" font-size="353px" font-weight="400"><tspan class="TextPosition" x="22545" y="7679"><tspan fill="rgb(0,0,0)" stroke="none" style="white-space: pre">qic</tspan></tspan></tspan></text>
 <text class="SVGTextShape"><tspan class="TextParagraph" font-family="Liberation Sans, sans-serif" font-size="353px" font-weight="400"><tspan class="TextPosition" x="23745" y="10772"><tspan fill="rgb(0,0,0)" stroke="none" style="white-space: pre">fox</tspan></tspan></tspan></text>
 <text class="SVGTextShape"><tspan class="TextParagraph" font-family="Liberation Sans, sans-serif" font-size="353px" font-weight="400"><tspan class="TextPosition" x="26307" y="12202"><tspan fill="rgb(0,0,0)" stroke="none" style="white-space: pre">a05</tspan></tspan></tspan></text>
 <text class="SVGTextShape"><tspan class="TextParagraph" font-family="Liberation Sans, sans-serif" font-size="353px" font-weight="400"><tspan class="TextPosition" x="5447" y="3894"><tspan fill="rgb(0,0,0)" stroke="none" style="white-space: pre">l1c3</tspan></tspan></tspan></text>
 <text class="SVGTextShape"><tspan class="TextParagraph" font-family="Liberation Sans, sans-serif" font-size="353px" font-weight="400"><tspan class="TextPosition" x="5902" y="7412"><tspan fill="rgb(0,0,0)" stroke="none" style="white-space: pre">l1c2</tspan></tspan></tspan></text>
 <text class="SVGTextShape"><tspan class="TextParagraph" font-family="Liberation Sans, sans-serif" font-size="353px" font-weight="400"><tspan class="TextPosition" x="7881" y="8744"><tspan fill="rgb(0,0,0)" stroke="none" style="white-space: pre">l1c1</tspan></tspan></tspan></text>
 <text class="SVGTextShape"><tspan class="TextParagraph" font-family="Liberation Sans, sans-serif" font-size="353px" font-weight="400"><tspan class="TextPosition" x="7762" y="7302"><tspan fill="rgb(0,0,0)" stroke="none" style="white-space: pre">halic072</tspan></tspan></tspan></text>
 <text class="SVGTextShape"><tspan class="TextParagraph" font-family="Liberation Sans, sans-serif" font-size="353px" font-weight="400"><tspan class="TextPosition" x="9449" y="3622"><tspan fill="rgb(0,0,0)" stroke="none" style="white-space: pre">qlic2</tspan></tspan></tspan></text>
 <text class="SVGTextShape"><tspan class="TextParagraph" font-family="Liberation Sans, sans-serif" font-size="353px" font-weight="400"><tspan class="TextPosition" x="11298" y="9668"><tspan fill="rgb(0,0,0)" stroke="none" style="white-space: pre">l1c0</tspan></tspan></tspan></text>
 <text class="SVGTextShape"><tspan class="TextParagraph" font-family="Liberation Sans, sans-serif" font-size="353px" font-weight="400"><tspan class="TextPosition" x="18196" y="11304"><tspan fill="rgb(0,0,0)" stroke="none" style="white-space: pre">halic072fast</tspan></tspan></tspan></text>
 <text class="SVGTextShape"><tspan class="TextParagraph" font-family="Liberation Sans, sans-serif" font-size="353px" font-weight="400"><tspan class="TextPosition" x="22545" y="8062"><tspan fill="rgb(0,0,0)" stroke="none" style="white-space: pre">qic</tspan></tspan></tspan></text>
 <text class="SVGTextShape"><tspan class="TextParagraph" font-family="Liberation Sans, sans-serif" font-size="353px" font-weight="400"><tspan class="TextPosition" x="23745" y="10770"><tspan fill="rgb(0,0,0)" stroke="none" style="white-space: pre">fox</tspan></tspan></tspan></text>
 <text class="SVGTextShape"><tspan class="TextParagraph" font-family="Liberation Sans, sans-serif" font-size="353px" font-weight="400"><tspan class="TextPosition" x="26307" y="10619"><tspan fill="rgb(0,0,0)" stroke="none" style="white-space: pre">a05</tspan></tspan></tspan></text>
 <text class="SVGTextShape"><tspan class="TextParagraph" font-family="Liberation Sans, sans-serif" font-size="459px" font-weight="400"><tspan class="TextPosition" x="15455" y="1049"><tspan fill="rgb(0,0,0)" stroke="none" style="white-space: pre">GDCC</tspan></tspan></tspan></text>
 <path fill="rgb(0,69,134)" stroke="none" d="M 31024,9407 L 31024,9618 31235,9618 31235,9407 31024,9407 Z"/>
 <path fill="none" stroke="rgb(0,69,134)" stroke-linejoin="round" d="M 31024,9407 L 31024,9618 31235,9618 31235,9407 31024,9407 Z"/>
 <path fill="rgb(255,66,14)" stroke="none" d="M 31024,10009 L 31129,10115 31235,10009 31129,9904 31024,10009 Z"/>
 <path fill="none" stroke="rgb(255,66,14)" stroke-linejoin="round" d="M 31024,10009 L 31129,10115 31235,10009 31129,9904 31024,10009 Z"/>
 <text class="SVGTextShape"><tspan class="TextParagraph" font-family="Liberation Sans, sans-serif" font-size="353px" font-weight="400"><tspan class="TextPosition" x="31335" y="9632"><tspan fill="rgb(0,0,0)" stroke="none" style="white-space: pre">enc</tspan></tspan></tspan></text>
 <text class="SVGTextShape"><tspan class="TextParagraph" font-family="Liberation Sans, sans-serif" font-size="353px" font-weight="400"><tspan class="TextPosition" x="31335" y="10129"><tspan fill="rgb(0,0,0)" stroke="none" style="white-space: pre">dec</tspan></tspan></tspan></text>
 <text class="SVGTextShape"><tspan class="TextParagraph" font-family="Liberation Sans, sans-serif" font-size="318px" font-weight="400"><tspan class="TextPosition" x="15106" y="18942"><tspan fill="rgb(0,0,0)" stroke="none" style="white-space: pre">Size (bytes)</tspan></tspan></tspan></text>
 <text class="SVGTextShape" transform="rotate(-90 -12139 10114)"><tspan class="TextParagraph" font-family="Liberation Sans, sans-serif" font-size="318px" font-weight="400"><tspan class="TextPosition" x="824" y="10677"><tspan fill="rgb(0,0,0)" stroke="none" style="white-space: pre">Time (sec)</tspan></tspan></tspan></text>
</svg>