<?xml version="1.0" encoding="UTF-8"?>
<!DOCTYPE svg PUBLIC "-//W3C//DTD SVG 1.1//EN" "http://www.w3.org/Graphics/SVG/1.1/DTD/svg11.dtd">
<svg width="457mm" height="265mm" viewBox="0 0 45700 26500" version="1.1" xmlns="http://www.w3.org/2000/svg" xmlns:xlink="http://www.w3.org/1999/xlink" stroke-width="28.222" stroke-linejoin="round" xml:space="preserve">
 <path fill="rgb(255,255,255)" stroke="none" d="M 22854,26522 L -13,26522 -13,-13 45720,-13 45720,26522 22854,26522 Z "/>
 <path fill="none" stroke="rgb(179,179,179)" stroke-linejoin="round" d="M 22275,25345 L 1917,25345 1917,716 42633,716 42633,25345 22275,25345 Z "/>
 <path fill="none" stroke="rgb(179,179,179)" stroke-linejoin="round" d="M 1917,715 L 1917,25344 "/>
 <path fill="none" stroke="rgb(179,179,179)" stroke-linejoin="round" d="M 7006,715 L 7006,25344 "/>
 <path fill="none" stroke="rgb(179,179,179)" stroke-linejoin="round" d="M 12096,715 L 12096,25344 "/>
 <path fill="none" stroke="rgb(179,179,179)" stroke-linejoin="round" d="M 17185,715 L 17185,25344 "/>
 <path fill="none" stroke="rgb(179,179,179)" stroke-linejoin="round" d="M 22275,715 L 22275,25344 "/>
 <path fill="none" stroke="rgb(179,179,179)" stroke-linejoin="round" d="M 27364,715 L 27364,25344 "/>
 <path fill="none" stroke="rgb(179,179,179)" stroke-linejoin="round" d="M 32453,715 L 32453,25344 "/>
 <path fill="none" stroke="rgb(179,179,179)" stroke-linejoin="round" d="M 37543,715 L 37543,25344 "/>
 <path fill="none" stroke="rgb(179,179,179)" stroke-linejoin="round" d="M 42633,715 L 42633,25344 "/>
 <path fill="none" stroke="rgb(221,221,221)" stroke-linejoin="round" d="M 4461,715 L 4461,25344 "/>
 <path fill="none" stroke="rgb(221,221,221)" stroke-linejoin="round" d="M 9551,715 L 9551,25344 "/>
 <path fill="none" stroke="rgb(221,221,221)" stroke-linejoin="round" d="M 14641,715 L 14641,25344 "/>
 <path fill="none" stroke="rgb(221,221,221)" stroke-linejoin="round" d="M 19730,715 L 19730,25344 "/>
 <path fill="none" stroke="rgb(221,221,221)" stroke-linejoin="round" d="M 24819,715 L 24819,25344 "/>
 <path fill="none" stroke="rgb(221,221,221)" stroke-linejoin="round" d="M 29908,715 L 29908,25344 "/>
 <path fill="none" stroke="rgb(221,221,221)" stroke-linejoin="round" d="M 34998,715 L 34998,25344 "/>
 <path fill="none" stroke="rgb(221,221,221)" stroke-linejoin="round" d="M 40088,715 L 40088,25344 "/>
 <path fill="none" stroke="rgb(179,179,179)" stroke-linejoin="round" d="M 42633,25344 L 1917,25344 "/>
 <path fill="none" stroke="rgb(179,179,179)" stroke-linejoin="round" d="M 42633,17134 L 1917,17134 "/>
 <path fill="none" stroke="rgb(179,179,179)" stroke-linejoin="round" d="M 42633,8924 L 1917,8924 "/>
 <path fill="none" stroke="rgb(179,179,179)" stroke-linejoin="round" d="M 42633,714 L 1917,714 "/>
 <path fill="none" stroke="rgb(221,221,221)" stroke-linejoin="round" d="M 42633,22872 L 1917,22872 "/>
 <path fill="none" stroke="rgb(221,221,221)" stroke-linejoin="round" d="M 42633,21426 L 1917,21426 "/>
 <path fill="none" stroke="rgb(221,221,221)" stroke-linejoin="round" d="M 42633,20401 L 1917,20401 "/>
 <path fill="none" stroke="rgb(221,221,221)" stroke-linejoin="round" d="M 42633,19605 L 1917,19605 "/>
 <path fill="none" stroke="rgb(221,221,221)" stroke-linejoin="round" d="M 42633,18955 L 1917,18955 "/>
 <path fill="none" stroke="rgb(221,221,221)" stroke-linejoin="round" d="M 42633,18405 L 1917,18405 "/>
 <path fill="none" stroke="rgb(221,221,221)" stroke-linejoin="round" d="M 42633,17929 L 1917,17929 "/>
 <path fill="none" stroke="rgb(221,221,221)" stroke-linejoin="round" d="M 42633,17509 L 1917,17509 "/>
 <path fill="none" stroke="rgb(221,221,221)" stroke-linejoin="round" d="M 42633,14662 L 1917,14662 "/>
 <path fill="none" stroke="rgb(221,221,221)" stroke-linejoin="round" d="M 42633,13217 L 1917,13217 "/>
 <path fill="none" stroke="rgb(221,221,221)" stroke-linejoin="round" d="M 42633,12192 L 1917,12192 "/>
 <path fill="none" stroke="rgb(221,221,221)" stroke-linejoin="round" d="M 42633,11396 L 1917,11396 "/>
 <path fill="none" stroke="rgb(221,221,221)" stroke-linejoin="round" d="M 42633,10746 L 1917,10746 "/>
 <path fill="none" stroke="rgb(221,221,221)" stroke-linejoin="round" d="M 42633,10196 L 1917,10196 "/>
 <path fill="none" stroke="rgb(221,221,221)" stroke-linejoin="round" d="M 42633,9720 L 1917,9720 "/>
 <path fill="none" stroke="rgb(221,221,221)" stroke-linejoin="round" d="M 42633,9300 L 1917,9300 "/>
 <path fill="none" stroke="rgb(221,221,221)" stroke-linejoin="round" d="M 42633,6453 L 1917,6453 "/>
 <path fill="none" stroke="rgb(221,221,221)" stroke-linejoin="round" d="M 42633,5007 L 1917,5007 "/>
 <path fill="none" stroke="rgb(221,221,221)" stroke-linejoin="round" d="M 42633,3982 L 1917,3982 "/>
 <path fill="none" stroke="rgb(221,221,221)" stroke-linejoin="round" d="M 42633,3186 L 1917,3186 "/>
 <path fill="none" stroke="rgb(221,221,221)" stroke-linejoin="round" d="M 42633,2536 L 1917,2536 "/>
 <path fill="none" stroke="rgb(221,221,221)" stroke-linejoin="round" d="M 42633,1986 L 1917,1986 "/>
 <path fill="none" stroke="rgb(221,221,221)" stroke-linejoin="round" d="M 42633,1510 L 1917,1510 "/>
 <path fill="none" stroke="rgb(221,221,221)" stroke-linejoin="round" d="M 42633,1090 L 1917,1090 "/>
 <path fill="none" stroke="rgb(179,179,179)" stroke-linejoin="round" d="M 1917,25494 L 1917,25344 "/>
 <path fill="none" stroke="rgb(179,179,179)" stroke-linejoin="round" d="M 1917,25494 L 1917,25344 "/>
 <path fill="none" stroke="rgb(179,179,179)" stroke-linejoin="round" d="M 7006,25494 L 7006,25344 "/>
 <path fill="none" stroke="rgb(179,179,179)" stroke-linejoin="round" d="M 7006,25494 L 7006,25344 "/>
 <path fill="none" stroke="rgb(179,179,179)" stroke-linejoin="round" d="M 12096,25494 L 12096,25344 "/>
 <path fill="none" stroke="rgb(179,179,179)" stroke-linejoin="round" d="M 12096,25494 L 12096,25344 "/>
 <path fill="none" stroke="rgb(179,179,179)" stroke-linejoin="round" d="M 17185,25494 L 17185,25344 "/>
 <path fill="none" stroke="rgb(179,179,179)" stroke-linejoin="round" d="M 17185,25494 L 17185,25344 "/>
 <path fill="none" stroke="rgb(179,179,179)" stroke-linejoin="round" d="M 22275,25494 L 22275,25344 "/>
 <path fill="none" stroke="rgb(179,179,179)" stroke-linejoin="round" d="M 22275,25494 L 22275,25344 "/>
 <path fill="none" stroke="rgb(179,179,179)" stroke-linejoin="round" d="M 27364,25494 L 27364,25344 "/>
 <path fill="none" stroke="rgb(179,179,179)" stroke-linejoin="round" d="M 27364,25494 L 27364,25344 "/>
 <path fill="none" stroke="rgb(179,179,179)" stroke-linejoin="round" d="M 32453,25494 L 32453,25344 "/>
 <path fill="none" stroke="rgb(179,179,179)" stroke-linejoin="round" d="M 32453,25494 L 32453,25344 "/>
 <path fill="none" stroke="rgb(179,179,179)" stroke-linejoin="round" d="M 37543,25494 L 37543,25344 "/>
 <path fill="none" stroke="rgb(179,179,179)" stroke-linejoin="round" d="M 37543,25494 L 37543,25344 "/>
 <path fill="none" stroke="rgb(179,179,179)" stroke-linejoin="round" d="M 42633,25494 L 42633,25344 "/>
 <path fill="none" stroke="rgb(179,179,179)" stroke-linejoin="round" d="M 42633,25494 L 42633,25344 "/>
 <path fill="none" stroke="rgb(179,179,179)" stroke-linejoin="round" d="M 1917,25344 L 42633,25344 "/>
 <path fill="none" stroke="rgb(179,179,179)" stroke-linejoin="round" d="M 1767,25344 L 1917,25344 "/>
 <path fill="none" stroke="rgb(179,179,179)" stroke-linejoin="round" d="M 1767,25344 L 1917,25344 "/>
 <path fill="none" stroke="rgb(179,179,179)" stroke-linejoin="round" d="M 1767,17134 L 1917,17134 "/>
 <path fill="none" stroke="rgb(179,179,179)" stroke-linejoin="round" d="M 1767,17134 L 1917,17134 "/>
 <path fill="none" stroke="rgb(179,179,179)" stroke-linejoin="round" d="M 1767,8924 L 1917,8924 "/>
 <path fill="none" stroke="rgb(179,179,179)" stroke-linejoin="round" d="M 1767,8924 L 1917,8924 "/>
 <path fill="none" stroke="rgb(179,179,179)" stroke-linejoin="round" d="M 1767,715 L 1917,715 "/>
 <path fill="none" stroke="rgb(179,179,179)" stroke-linejoin="round" d="M 1767,715 L 1917,715 "/>
 <path fill="none" stroke="rgb(179,179,179)" stroke-linejoin="round" d="M 1917,25344 L 1917,715 "/>
 <path fill="rgb(255,66,14)" stroke="none" d="M 7844,11382 L 7969,11507 8094,11382 7969,11257 7844,11382 Z "/>
 <path fill="none" stroke="rgb(255,66,14)" stroke-linejoin="round" d="M 7844,11382 L 7969,11507 8094,11382 7969,11257 7844,11382 Z "/>
 <path fill="rgb(255,66,14)" stroke="none" d="M 8536,20760 L 8661,20885 8786,20760 8661,20635 8536,20760 Z "/>
 <path fill="none" stroke="rgb(255,66,14)" stroke-linejoin="round" d="M 8536,20760 L 8661,20885 8786,20760 8661,20635 8536,20760 Z "/>
 <path fill="rgb(255,66,14)" stroke="none" d="M 8536,19509 L 8661,19634 8786,19509 8661,19384 8536,19509 Z "/>
 <path fill="none" stroke="rgb(255,66,14)" stroke-linejoin="round" d="M 8536,19509 L 8661,19634 8786,19509 8661,19384 8536,19509 Z "/>
 <path fill="rgb(255,66,14)" stroke="none" d="M 8549,20895 L 8674,21020 8799,20895 8674,20770 8549,20895 Z "/>
 <path fill="none" stroke="rgb(255,66,14)" stroke-linejoin="round" d="M 8549,20895 L 8674,21020 8799,20895 8674,20770 8549,20895 Z "/>
 <path fill="rgb(255,66,14)" stroke="none" d="M 8549,19872 L 8674,19997 8799,19872 8674,19747 8549,19872 Z "/>
 <path fill="none" stroke="rgb(255,66,14)" stroke-linejoin="round" d="M 8549,19872 L 8674,19997 8799,19872 8674,19747 8549,19872 Z "/>
 <path fill="rgb(255,66,14)" stroke="none" d="M 8551,11655 L 8676,11780 8801,11655 8676,11530 8551,11655 Z "/>
 <path fill="none" stroke="rgb(255,66,14)" stroke-linejoin="round" d="M 8551,11655 L 8676,11780 8801,11655 8676,11530 8551,11655 Z "/>
 <path fill="rgb(255,66,14)" stroke="none" d="M 9532,12705 L 9657,12830 9782,12705 9657,12580 9532,12705 Z "/>
 <path fill="none" stroke="rgb(255,66,14)" stroke-linejoin="round" d="M 9532,12705 L 9657,12830 9782,12705 9657,12580 9532,12705 Z "/>
 <path fill="rgb(255,66,14)" stroke="none" d="M 10134,13280 L 10259,13405 10384,13280 10259,13156 10134,13280 Z "/>
 <path fill="none" stroke="rgb(255,66,14)" stroke-linejoin="round" d="M 10134,13280 L 10259,13405 10384,13280 10259,13156 10134,13280 Z "/>
 <path fill="rgb(255,66,14)" stroke="none" d="M 10681,21569 L 10806,21694 10931,21569 10806,21444 10681,21569 Z "/>
 <path fill="none" stroke="rgb(255,66,14)" stroke-linejoin="round" d="M 10681,21569 L 10806,21694 10931,21569 10806,21444 10681,21569 Z "/>
 <path fill="rgb(255,66,14)" stroke="none" d="M 10681,20767 L 10806,20892 10931,20767 10806,20642 10681,20767 Z "/>
 <path fill="none" stroke="rgb(255,66,14)" stroke-linejoin="round" d="M 10681,20767 L 10806,20892 10931,20767 10806,20642 10681,20767 Z "/>
 <path fill="rgb(255,66,14)" stroke="none" d="M 11200,22095 L 11325,22220 11450,22095 11325,21970 11200,22095 Z "/>
 <path fill="none" stroke="rgb(255,66,14)" stroke-linejoin="round" d="M 11200,22095 L 11325,22220 11450,22095 11325,21970 11200,22095 Z "/>
 <path fill="rgb(255,66,14)" stroke="none" d="M 11200,21548 L 11325,21673 11450,21548 11325,21423 11200,21548 Z "/>
 <path fill="none" stroke="rgb(255,66,14)" stroke-linejoin="round" d="M 11200,21548 L 11325,21673 11450,21548 11325,21423 11200,21548 Z "/>
 <path fill="rgb(255,66,14)" stroke="none" d="M 14891,9388 L 15016,9513 15141,9388 15016,9263 14891,9388 Z "/>
 <path fill="none" stroke="rgb(255,66,14)" stroke-linejoin="round" d="M 14891,9388 L 15016,9513 15141,9388 15016,9263 14891,9388 Z "/>
 <path fill="rgb(255,66,14)" stroke="none" d="M 19320,16108 L 19445,16233 19570,16108 19445,15983 19320,16108 Z "/>
 <path fill="none" stroke="rgb(255,66,14)" stroke-linejoin="round" d="M 19320,16108 L 19445,16233 19570,16108 19445,15983 19320,16108 Z "/>
 <path fill="rgb(255,66,14)" stroke="none" d="M 24808,16577 L 24933,16702 25058,16577 24933,16452 24808,16577 Z "/>
 <path fill="none" stroke="rgb(255,66,14)" stroke-linejoin="round" d="M 24808,16577 L 24933,16702 25058,16577 24933,16452 24808,16577 Z "/>
 <path fill="rgb(255,66,14)" stroke="none" d="M 40368,18829 L 40493,18954 40618,18829 40493,18704 40368,18829 Z "/>
 <path fill="none" stroke="rgb(255,66,14)" stroke-linejoin="round" d="M 40368,18829 L 40493,18954 40618,18829 40493,18704 40368,18829 Z "/>
 <path fill="rgb(0,69,134)" stroke="none" d="M 7844,3603 L 7844,3853 8094,3853 8094,3603 7844,3603 Z "/>
 <path fill="none" stroke="rgb(0,69,134)" stroke-linejoin="round" d="M 7844,3603 L 7844,3853 8094,3853 8094,3603 7844,3603 Z "/>
 <path fill="rgb(0,69,134)" stroke="none" d="M 8536,20419 L 8536,20669 8786,20669 8786,20419 8536,20419 Z "/>
 <path fill="none" stroke="rgb(0,69,134)" stroke-linejoin="round" d="M 8536,20419 L 8536,20669 8786,20669 8786,20419 8536,20419 Z "/>
 <path fill="rgb(0,69,134)" stroke="none" d="M 8536,18233 L 8536,18483 8786,18483 8786,18233 8536,18233 Z "/>
 <path fill="none" stroke="rgb(0,69,134)" stroke-linejoin="round" d="M 8536,18233 L 8536,18483 8786,18483 8786,18233 8536,18233 Z "/>
 <path fill="rgb(0,69,134)" stroke="none" d="M 8549,20492 L 8549,20742 8799,20742 8799,20492 8549,20492 Z "/>
 <path fill="none" stroke="rgb(0,69,134)" stroke-linejoin="round" d="M 8549,20492 L 8549,20742 8799,20742 8799,20492 8549,20492 Z "/>
 <path fill="rgb(0,69,134)" stroke="none" d="M 8549,18498 L 8549,18748 8799,18748 8799,18498 8549,18498 Z "/>
 <path fill="none" stroke="rgb(0,69,134)" stroke-linejoin="round" d="M 8549,18498 L 8549,18748 8799,18748 8799,18498 8549,18498 Z "/>
 <path fill="rgb(0,69,134)" stroke="none" d="M 8551,5258 L 8551,5508 8801,5508 8801,5258 8551,5258 Z "/>
 <path fill="none" stroke="rgb(0,69,134)" stroke-linejoin="round" d="M 8551,5258 L 8551,5508 8801,5508 8801,5258 8551,5258 Z "/>
 <path fill="rgb(0,69,134)" stroke="none" d="M 9532,7938 L 9532,8188 9782,8188 9782,7938 9532,7938 Z "/>
 <path fill="none" stroke="rgb(0,69,134)" stroke-linejoin="round" d="M 9532,7938 L 9532,8188 9782,8188 9782,7938 9532,7938 Z "/>
 <path fill="rgb(0,69,134)" stroke="none" d="M 10134,12110 L 10134,12360 10384,12360 10384,12110 10134,12110 Z "/>
 <path fill="none" stroke="rgb(0,69,134)" stroke-linejoin="round" d="M 10134,12110 L 10134,12360 10384,12360 10384,12110 10134,12110 Z "/>
 <path fill="rgb(0,69,134)" stroke="none" d="M 10681,21050 L 10681,21300 10931,21300 10931,21050 10681,21050 Z "/>
 <path fill="none" stroke="rgb(0,69,134)" stroke-linejoin="round" d="M 10681,21050 L 10681,21300 10931,21300 10931,21050 10681,21050 Z "/>
 <path fill="rgb(0,69,134)" stroke="none" d="M 10681,19112 L 10681,19362 10931,19362 10931,19112 10681,19112 Z "/>
 <path fill="none" stroke="rgb(0,69,134)" stroke-linejoin="round" d="M 10681,19112 L 10681,19362 10931,19362 10931,19112 10681,19112 Z "/>
 <path fill="rgb(0,69,134)" stroke="none" d="M 11200,21219 L 11200,21469 11450,21469 11450,21219 11200,21219 Z "/>
 <path fill="none" stroke="rgb(0,69,134)" stroke-linejoin="round" d="M 11200,21219 L 11200,21469 11450,21469 11450,21219 11200,21219 Z "/>
 <path fill="rgb(0,69,134)" stroke="none" d="M 11200,19576 L 11200,19826 11450,19826 11450,19576 11200,19576 Z "/>
 <path fill="none" stroke="rgb(0,69,134)" stroke-linejoin="round" d="M 11200,19576 L 11200,19826 11450,19826 11450,19576 11200,19576 Z "/>
 <path fill="rgb(0,69,134)" stroke="none" d="M 14891,9951 L 14891,10201 15141,10201 15141,9951 14891,9951 Z "/>
 <path fill="none" stroke="rgb(0,69,134)" stroke-linejoin="round" d="M 14891,9951 L 14891,10201 15141,10201 15141,9951 14891,9951 Z "/>
 <path fill="rgb(0,69,134)" stroke="none" d="M 19320,14641 L 19320,14891 19570,14891 19570,14641 19320,14641 Z "/>
 <path fill="none" stroke="rgb(0,69,134)" stroke-linejoin="round" d="M 19320,14641 L 19320,14891 19570,14891 19570,14641 19320,14641 Z "/>
 <path fill="rgb(0,69,134)" stroke="none" d="M 24808,20785 L 24808,21035 25058,21035 25058,20785 24808,20785 Z "/>
 <path fill="none" stroke="rgb(0,69,134)" stroke-linejoin="round" d="M 24808,20785 L 24808,21035 25058,21035 25058,20785 24808,20785 Z "/>
 <path fill="rgb(0,69,134)" stroke="none" d="M 40368,6667 L 40368,6917 40618,6917 40618,6667 40368,6667 Z "/>
 <path fill="none" stroke="rgb(0,69,134)" stroke-linejoin="round" d="M 40368,6667 L 40368,6917 40618,6917 40618,6667 40368,6667 Z "/>
 <text class="SVGTextShape"><tspan class="TextParagraph"><tspan class="TextPosition" x="1057" y="25912"><tspan font-family="Liberation Sans, sans-serif" font-size="353px" font-weight="400" fill="rgb(0,0,0)" stroke="none" style="white-space: pre">280000000</tspan></tspan></tspan></text>
 <text class="SVGTextShape"><tspan class="TextParagraph"><tspan class="TextPosition" x="6146" y="25912"><tspan font-family="Liberation Sans, sans-serif" font-size="353px" font-weight="400" fill="rgb(0,0,0)" stroke="none" style="white-space: pre">300000000</tspan></tspan></tspan></text>
 <text class="SVGTextShape"><tspan class="TextParagraph"><tspan class="TextPosition" x="11236" y="25912"><tspan font-family="Liberation Sans, sans-serif" font-size="353px" font-weight="400" fill="rgb(0,0,0)" stroke="none" style="white-space: pre">320000000</tspan></tspan></tspan></text>
 <text class="SVGTextShape"><tspan class="TextParagraph"><tspan class="TextPosition" x="16325" y="25912"><tspan font-family="Liberation Sans, sans-serif" font-size="353px" font-weight="400" fill="rgb(0,0,0)" stroke="none" style="white-space: pre">340000000</tspan></tspan></tspan></text>
 <text class="SVGTextShape"><tspan class="TextParagraph"><tspan class="TextPosition" x="21415" y="25912"><tspan font-family="Liberation Sans, sans-serif" font-size="353px" font-weight="400" fill="rgb(0,0,0)" stroke="none" style="white-space: pre">360000000</tspan></tspan></tspan></text>
 <text class="SVGTextShape"><tspan class="TextParagraph"><tspan class="TextPosition" x="26504" y="25912"><tspan font-family="Liberation Sans, sans-serif" font-size="353px" font-weight="400" fill="rgb(0,0,0)" stroke="none" style="white-space: pre">380000000</tspan></tspan></tspan></text>
 <text class="SVGTextShape"><tspan class="TextParagraph"><tspan class="TextPosition" x="31593" y="25912"><tspan font-family="Liberation Sans, sans-serif" font-size="353px" font-weight="400" fill="rgb(0,0,0)" stroke="none" style="white-space: pre">400000000</tspan></tspan></tspan></text>
 <text class="SVGTextShape"><tspan class="TextParagraph"><tspan class="TextPosition" x="36683" y="25912"><tspan font-family="Liberation Sans, sans-serif" font-size="353px" font-weight="400" fill="rgb(0,0,0)" stroke="none" style="white-space: pre">420000000</tspan></tspan></tspan></text>
 <text class="SVGTextShape"><tspan class="TextParagraph"><tspan class="TextPosition" x="41773" y="25912"><tspan font-family="Liberation Sans, sans-serif" font-size="353px" font-weight="400" fill="rgb(0,0,0)" stroke="none" style="white-space: pre">440000000</tspan></tspan></tspan></text>
 <text class="SVGTextShape"><tspan class="TextParagraph"><tspan class="TextPosition" x="1476" y="25465"><tspan font-family="Liberation Sans, sans-serif" font-size="353px" font-weight="400" fill="rgb(0,0,0)" stroke="none" style="white-space: pre">1</tspan></tspan></tspan></text>
 <text class="SVGTextShape"><tspan class="TextParagraph"><tspan class="TextPosition" x="1284" y="17255"><tspan font-family="Liberation Sans, sans-serif" font-size="353px" font-weight="400" fill="rgb(0,0,0)" stroke="none" style="white-space: pre">10</tspan></tspan></tspan></text>
 <text class="SVGTextShape"><tspan class="TextParagraph"><tspan class="TextPosition" x="1093" y="9045"><tspan font-family="Liberation Sans, sans-serif" font-size="353px" font-weight="400" fill="rgb(0,0,0)" stroke="none" style="white-space: pre">100</tspan></tspan></tspan></text>
 <text class="SVGTextShape"><tspan class="TextParagraph"><tspan class="TextPosition" x="902" y="836"><tspan font-family="Liberation Sans, sans-serif" font-size="353px" font-weight="400" fill="rgb(0,0,0)" stroke="none" style="white-space: pre">1000</tspan></tspan></tspan></text>
 <text class="SVGTextShape"><tspan class="TextParagraph"><tspan class="TextPosition" x="7712" y="11078"><tspan font-family="Liberation Sans, sans-serif" font-size="353px" font-weight="400" fill="rgb(0,0,0)" stroke="none" style="white-space: pre">jxl6</tspan></tspan></tspan></text>
 <text class="SVGTextShape"><tspan class="TextParagraph"><tspan class="TextPosition" x="7983" y="20456"><tspan font-family="Liberation Sans, sans-serif" font-size="353px" font-weight="400" fill="rgb(0,0,0)" stroke="none" style="white-space: pre">l1c3avx2</tspan></tspan></tspan></text>
 <text class="SVGTextShape"><tspan class="TextParagraph"><tspan class="TextPosition" x="7887" y="19205"><tspan font-family="Liberation Sans, sans-serif" font-size="353px" font-weight="400" fill="rgb(0,0,0)" stroke="none" style="white-space: pre">l1c3sse41</tspan></tspan></tspan></text>
 <text class="SVGTextShape"><tspan class="TextParagraph"><tspan class="TextPosition" x="7996" y="20591"><tspan font-family="Liberation Sans, sans-serif" font-size="353px" font-weight="400" fill="rgb(0,0,0)" stroke="none" style="white-space: pre">l1c2avx2</tspan></tspan></tspan></text>
 <text class="SVGTextShape"><tspan class="TextParagraph"><tspan class="TextPosition" x="7900" y="19568"><tspan font-family="Liberation Sans, sans-serif" font-size="353px" font-weight="400" fill="rgb(0,0,0)" stroke="none" style="white-space: pre">l1c2sse41</tspan></tspan></tspan></text>
 <text class="SVGTextShape"><tspan class="TextParagraph"><tspan class="TextPosition" x="8419" y="11351"><tspan font-family="Liberation Sans, sans-serif" font-size="353px" font-weight="400" fill="rgb(0,0,0)" stroke="none" style="white-space: pre">jxl5</tspan></tspan></tspan></text>
 <text class="SVGTextShape"><tspan class="TextParagraph"><tspan class="TextPosition" x="9400" y="12401"><tspan font-family="Liberation Sans, sans-serif" font-size="353px" font-weight="400" fill="rgb(0,0,0)" stroke="none" style="white-space: pre">jxl4</tspan></tspan></tspan></text>
 <text class="SVGTextShape"><tspan class="TextParagraph"><tspan class="TextPosition" x="10002" y="12977"><tspan font-family="Liberation Sans, sans-serif" font-size="353px" font-weight="400" fill="rgb(0,0,0)" stroke="none" style="white-space: pre">jxl3</tspan></tspan></tspan></text>
 <text class="SVGTextShape"><tspan class="TextParagraph"><tspan class="TextPosition" x="10128" y="21265"><tspan font-family="Liberation Sans, sans-serif" font-size="353px" font-weight="400" fill="rgb(0,0,0)" stroke="none" style="white-space: pre">l1c1avx2</tspan></tspan></tspan></text>
 <text class="SVGTextShape"><tspan class="TextParagraph"><tspan class="TextPosition" x="10032" y="20463"><tspan font-family="Liberation Sans, sans-serif" font-size="353px" font-weight="400" fill="rgb(0,0,0)" stroke="none" style="white-space: pre">l1c1sse41</tspan></tspan></tspan></text>
 <text class="SVGTextShape"><tspan class="TextParagraph"><tspan class="TextPosition" x="10647" y="21791"><tspan font-family="Liberation Sans, sans-serif" font-size="353px" font-weight="400" fill="rgb(0,0,0)" stroke="none" style="white-space: pre">l1c0avx2</tspan></tspan></tspan></text>
 <text class="SVGTextShape"><tspan class="TextParagraph"><tspan class="TextPosition" x="10551" y="21244"><tspan font-family="Liberation Sans, sans-serif" font-size="353px" font-weight="400" fill="rgb(0,0,0)" stroke="none" style="white-space: pre">l1c0sse41</tspan></tspan></tspan></text>
 <text class="SVGTextShape"><tspan class="TextParagraph"><tspan class="TextPosition" x="14797" y="9084"><tspan font-family="Liberation Sans, sans-serif" font-size="353px" font-weight="400" fill="rgb(0,0,0)" stroke="none" style="white-space: pre">j2k</tspan></tspan></tspan></text>
 <text class="SVGTextShape"><tspan class="TextParagraph"><tspan class="TextPosition" x="19188" y="15804"><tspan font-family="Liberation Sans, sans-serif" font-size="353px" font-weight="400" fill="rgb(0,0,0)" stroke="none" style="white-space: pre">jxl2</tspan></tspan></tspan></text>
 <text class="SVGTextShape"><tspan class="TextParagraph"><tspan class="TextPosition" x="24676" y="16273"><tspan font-family="Liberation Sans, sans-serif" font-size="353px" font-weight="400" fill="rgb(0,0,0)" stroke="none" style="white-space: pre">jxl1</tspan></tspan></tspan></text>
 <text class="SVGTextShape"><tspan class="TextParagraph"><tspan class="TextPosition" x="40207" y="18525"><tspan font-family="Liberation Sans, sans-serif" font-size="353px" font-weight="400" fill="rgb(0,0,0)" stroke="none" style="white-space: pre">png</tspan></tspan></tspan></text>
 <text class="SVGTextShape"><tspan class="TextParagraph"><tspan class="TextPosition" x="7712" y="3424"><tspan font-family="Liberation Sans, sans-serif" font-size="353px" font-weight="400" fill="rgb(0,0,0)" stroke="none" style="white-space: pre">jxl6</tspan></tspan></tspan></text>
 <text class="SVGTextShape"><tspan class="TextParagraph"><tspan class="TextPosition" x="7983" y="20240"><tspan font-family="Liberation Sans, sans-serif" font-size="353px" font-weight="400" fill="rgb(0,0,0)" stroke="none" style="white-space: pre">l1c3avx2</tspan></tspan></tspan></text>
 <text class="SVGTextShape"><tspan class="TextParagraph"><tspan class="TextPosition" x="7887" y="18054"><tspan font-family="Liberation Sans, sans-serif" font-size="353px" font-weight="400" fill="rgb(0,0,0)" stroke="none" style="white-space: pre">l1c3sse41</tspan></tspan></tspan></text>
 <text class="SVGTextShape"><tspan class="TextParagraph"><tspan class="TextPosition" x="7996" y="20313"><tspan font-family="Liberation Sans, sans-serif" font-size="353px" font-weight="400" fill="rgb(0,0,0)" stroke="none" style="white-space: pre">l1c2avx2</tspan></tspan></tspan></text>
 <text class="SVGTextShape"><tspan class="TextParagraph"><tspan class="TextPosition" x="7900" y="18319"><tspan font-family="Liberation Sans, sans-serif" font-size="353px" font-weight="400" fill="rgb(0,0,0)" stroke="none" style="white-space: pre">l1c2sse41</tspan></tspan></tspan></text>
 <text class="SVGTextShape"><tspan class="TextParagraph"><tspan class="TextPosition" x="8419" y="5079"><tspan font-family="Liberation Sans, sans-serif" font-size="353px" font-weight="400" fill="rgb(0,0,0)" stroke="none" style="white-space: pre">jxl5</tspan></tspan></tspan></text>
 <text class="SVGTextShape"><tspan class="TextParagraph"><tspan class="TextPosition" x="9400" y="7759"><tspan font-family="Liberation Sans, sans-serif" font-size="353px" font-weight="400" fill="rgb(0,0,0)" stroke="none" style="white-space: pre">jxl4</tspan></tspan></tspan></text>
 <text class="SVGTextShape"><tspan class="TextParagraph"><tspan class="TextPosition" x="10002" y="11931"><tspan font-family="Liberation Sans, sans-serif" font-size="353px" font-weight="400" fill="rgb(0,0,0)" stroke="none" style="white-space: pre">jxl3</tspan></tspan></tspan></text>
 <text class="SVGTextShape"><tspan class="TextParagraph"><tspan class="TextPosition" x="10128" y="20871"><tspan font-family="Liberation Sans, sans-serif" font-size="353px" font-weight="400" fill="rgb(0,0,0)" stroke="none" style="white-space: pre">l1c1avx2</tspan></tspan></tspan></text>
 <text class="SVGTextShape"><tspan class="TextParagraph"><tspan class="TextPosition" x="10032" y="18933"><tspan font-family="Liberation Sans, sans-serif" font-size="353px" font-weight="400" fill="rgb(0,0,0)" stroke="none" style="white-space: pre">l1c1sse41</tspan></tspan></tspan></text>
 <text class="SVGTextShape"><tspan class="TextParagraph"><tspan class="TextPosition" x="10647" y="21040"><tspan font-family="Liberation Sans, sans-serif" font-size="353px" font-weight="400" fill="rgb(0,0,0)" stroke="none" style="white-space: pre">l1c0avx2</tspan></tspan></tspan></text>
 <text class="SVGTextShape"><tspan class="TextParagraph"><tspan class="TextPosition" x="10551" y="19397"><tspan font-family="Liberation Sans, sans-serif" font-size="353px" font-weight="400" fill="rgb(0,0,0)" stroke="none" style="white-space: pre">l1c0sse41</tspan></tspan></tspan></text>
 <text class="SVGTextShape"><tspan class="TextParagraph"><tspan class="TextPosition" x="14797" y="9772"><tspan font-family="Liberation Sans, sans-serif" font-size="353px" font-weight="400" fill="rgb(0,0,0)" stroke="none" style="white-space: pre">j2k</tspan></tspan></tspan></text>
 <text class="SVGTextShape"><tspan class="TextParagraph"><tspan class="TextPosition" x="19188" y="14462"><tspan font-family="Liberation Sans, sans-serif" font-size="353px" font-weight="400" fill="rgb(0,0,0)" stroke="none" style="white-space: pre">jxl2</tspan></tspan></tspan></text>
 <text class="SVGTextShape"><tspan class="TextParagraph"><tspan class="TextPosition" x="24676" y="20606"><tspan font-family="Liberation Sans, sans-serif" font-size="353px" font-weight="400" fill="rgb(0,0,0)" stroke="none" style="white-space: pre">jxl1</tspan></tspan></tspan></text>
 <text class="SVGTextShape"><tspan class="TextParagraph"><tspan class="TextPosition" x="40207" y="6488"><tspan font-family="Liberation Sans, sans-serif" font-size="353px" font-weight="400" fill="rgb(0,0,0)" stroke="none" style="white-space: pre">png</tspan></tspan></tspan></text>
 <path fill="rgb(0,69,134)" stroke="none" d="M 44526,12900 L 44526,13111 44737,13111 44737,12900 44526,12900 Z "/>
 <path fill="none" stroke="rgb(0,69,134)" stroke-linejoin="round" d="M 44526,12900 L 44526,13111 44737,13111 44737,12900 44526,12900 Z "/>
 <path fill="rgb(255,66,14)" stroke="none" d="M 44526,13502 L 44631,13608 44737,13502 44631,13397 44526,13502 Z "/>
 <path fill="none" stroke="rgb(255,66,14)" stroke-linejoin="round" d="M 44526,13502 L 44631,13608 44737,13502 44631,13397 44526,13502 Z "/>
 <text class="SVGTextShape"><tspan class="TextParagraph"><tspan class="TextPosition" x="44837" y="13125"><tspan font-family="Liberation Sans, sans-serif" font-size="353px" font-weight="400" fill="rgb(0,0,0)" stroke="none" style="white-space: pre">enc</tspan></tspan></tspan></text>
 <text class="SVGTextShape"><tspan class="TextParagraph"><tspan class="TextPosition" x="44837" y="13622"><tspan font-family="Liberation Sans, sans-serif" font-size="353px" font-weight="400" fill="rgb(0,0,0)" stroke="none" style="white-space: pre">dec</tspan></tspan></tspan></text>
</svg>