<?xml version="1.0" encoding="UTF-8"?>
<!DOCTYPE svg PUBLIC "-//W3C//DTD SVG 1.1//EN" "http://www.w3.org/Graphics/SVG/1.1/DTD/svg11.dtd">
<svg width="314mm" height="186mm" viewBox="0 0 31400 18600" version="1.1" xmlns="http://www.w3.org/2000/svg" xmlns:xlink="http://www.w3.org/1999/xlink" stroke-width="28.222" stroke-linejoin="round" xml:space="preserve">
 <path fill="rgb(255,255,255)" stroke="none" d="M 15709,18606 L -13,18606 -13,-13 31430,-13 31430,18606 15709,18606 Z"/>
 <path fill="none" stroke="rgb(179,179,179)" stroke-linejoin="round" d="M 15558,16606 L 2552,16606 2552,1845 28563,1845 28563,16606 15558,16606 Z"/>
 <path fill="none" stroke="rgb(179,179,179)" stroke-linejoin="round" d="M 2552,1844 L 2552,16605"/>
 <path fill="none" stroke="rgb(179,179,179)" stroke-linejoin="round" d="M 6887,1844 L 6887,16605"/>
 <path fill="none" stroke="rgb(179,179,179)" stroke-linejoin="round" d="M 11222,1844 L 11222,16605"/>
 <path fill="none" stroke="rgb(179,179,179)" stroke-linejoin="round" d="M 15558,1844 L 15558,16605"/>
 <path fill="none" stroke="rgb(179,179,179)" stroke-linejoin="round" d="M 19892,1844 L 19892,16605"/>
 <path fill="none" stroke="rgb(179,179,179)" stroke-linejoin="round" d="M 24227,1844 L 24227,16605"/>
 <path fill="none" stroke="rgb(179,179,179)" stroke-linejoin="round" d="M 28563,1844 L 28563,16605"/>
 <path fill="none" stroke="rgb(221,221,221)" stroke-linejoin="round" d="M 4719,1844 L 4719,16605"/>
 <path fill="none" stroke="rgb(221,221,221)" stroke-linejoin="round" d="M 9055,1844 L 9055,16605"/>
 <path fill="none" stroke="rgb(221,221,221)" stroke-linejoin="round" d="M 13390,1844 L 13390,16605"/>
 <path fill="none" stroke="rgb(221,221,221)" stroke-linejoin="round" d="M 17724,1844 L 17724,16605"/>
 <path fill="none" stroke="rgb(221,221,221)" stroke-linejoin="round" d="M 22060,1844 L 22060,16605"/>
 <path fill="none" stroke="rgb(221,221,221)" stroke-linejoin="round" d="M 26395,1844 L 26395,16605"/>
 <path fill="none" stroke="rgb(179,179,179)" stroke-linejoin="round" d="M 28563,16605 L 2552,16605"/>
 <path fill="none" stroke="rgb(179,179,179)" stroke-linejoin="round" d="M 28563,14144 L 2552,14144"/>
 <path fill="none" stroke="rgb(179,179,179)" stroke-linejoin="round" d="M 28563,11684 L 2552,11684"/>
 <path fill="none" stroke="rgb(179,179,179)" stroke-linejoin="round" d="M 28563,9225 L 2552,9225"/>
 <path fill="none" stroke="rgb(179,179,179)" stroke-linejoin="round" d="M 28563,6764 L 2552,6764"/>
 <path fill="none" stroke="rgb(179,179,179)" stroke-linejoin="round" d="M 28563,4304 L 2552,4304"/>
 <path fill="none" stroke="rgb(179,179,179)" stroke-linejoin="round" d="M 28563,1844 L 2552,1844"/>
 <path fill="none" stroke="rgb(221,221,221)" stroke-linejoin="round" d="M 28563,16112 L 2552,16112"/>
 <path fill="none" stroke="rgb(221,221,221)" stroke-linejoin="round" d="M 28563,15620 L 2552,15620"/>
 <path fill="none" stroke="rgb(221,221,221)" stroke-linejoin="round" d="M 28563,15128 L 2552,15128"/>
 <path fill="none" stroke="rgb(221,221,221)" stroke-linejoin="round" d="M 28563,14636 L 2552,14636"/>
 <path fill="none" stroke="rgb(221,221,221)" stroke-linejoin="round" d="M 28563,13652 L 2552,13652"/>
 <path fill="none" stroke="rgb(221,221,221)" stroke-linejoin="round" d="M 28563,13160 L 2552,13160"/>
 <path fill="none" stroke="rgb(221,221,221)" stroke-linejoin="round" d="M 28563,12668 L 2552,12668"/>
 <path fill="none" stroke="rgb(221,221,221)" stroke-linejoin="round" d="M 28563,12176 L 2552,12176"/>
 <path fill="none" stroke="rgb(221,221,221)" stroke-linejoin="round" d="M 28563,11192 L 2552,11192"/>
 <path fill="none" stroke="rgb(221,221,221)" stroke-linejoin="round" d="M 28563,10700 L 2552,10700"/>
 <path fill="none" stroke="rgb(221,221,221)" stroke-linejoin="round" d="M 28563,10208 L 2552,10208"/>
 <path fill="none" stroke="rgb(221,221,221)" stroke-linejoin="round" d="M 28563,9716 L 2552,9716"/>
 <path fill="none" stroke="rgb(221,221,221)" stroke-linejoin="round" d="M 28563,8732 L 2552,8732"/>
 <path fill="none" stroke="rgb(221,221,221)" stroke-linejoin="round" d="M 28563,8240 L 2552,8240"/>
 <path fill="none" stroke="rgb(221,221,221)" stroke-linejoin="round" d="M 28563,7748 L 2552,7748"/>
 <path fill="none" stroke="rgb(221,221,221)" stroke-linejoin="round" d="M 28563,7256 L 2552,7256"/>
 <path fill="none" stroke="rgb(221,221,221)" stroke-linejoin="round" d="M 28563,6272 L 2552,6272"/>
 <path fill="none" stroke="rgb(221,221,221)" stroke-linejoin="round" d="M 28563,5780 L 2552,5780"/>
 <path fill="none" stroke="rgb(221,221,221)" stroke-linejoin="round" d="M 28563,5288 L 2552,5288"/>
 <path fill="none" stroke="rgb(221,221,221)" stroke-linejoin="round" d="M 28563,4796 L 2552,4796"/>
 <path fill="none" stroke="rgb(221,221,221)" stroke-linejoin="round" d="M 28563,3812 L 2552,3812"/>
 <path fill="none" stroke="rgb(221,221,221)" stroke-linejoin="round" d="M 28563,3320 L 2552,3320"/>
 <path fill="none" stroke="rgb(221,221,221)" stroke-linejoin="round" d="M 28563,2828 L 2552,2828"/>
 <path fill="none" stroke="rgb(221,221,221)" stroke-linejoin="round" d="M 28563,2336 L 2552,2336"/>
 <path fill="none" stroke="rgb(179,179,179)" stroke-linejoin="round" d="M 2552,16755 L 2552,16605"/>
 <path fill="none" stroke="rgb(179,179,179)" stroke-linejoin="round" d="M 2552,16755 L 2552,16605"/>
 <path fill="none" stroke="rgb(179,179,179)" stroke-linejoin="round" d="M 6887,16755 L 6887,16605"/>
 <path fill="none" stroke="rgb(179,179,179)" stroke-linejoin="round" d="M 6887,16755 L 6887,16605"/>
 <path fill="none" stroke="rgb(179,179,179)" stroke-linejoin="round" d="M 11222,16755 L 11222,16605"/>
 <path fill="none" stroke="rgb(179,179,179)" stroke-linejoin="round" d="M 11222,16755 L 11222,16605"/>
 <path fill="none" stroke="rgb(179,179,179)" stroke-linejoin="round" d="M 15558,16755 L 15558,16605"/>
 <path fill="none" stroke="rgb(179,179,179)" stroke-linejoin="round" d="M 15558,16755 L 15558,16605"/>
 <path fill="none" stroke="rgb(179,179,179)" stroke-linejoin="round" d="M 19892,16755 L 19892,16605"/>
 <path fill="none" stroke="rgb(179,179,179)" stroke-linejoin="round" d="M 19892,16755 L 19892,16605"/>
 <path fill="none" stroke="rgb(179,179,179)" stroke-linejoin="round" d="M 24227,16755 L 24227,16605"/>
 <path fill="none" stroke="rgb(179,179,179)" stroke-linejoin="round" d="M 24227,16755 L 24227,16605"/>
 <path fill="none" stroke="rgb(179,179,179)" stroke-linejoin="round" d="M 28563,16755 L 28563,16605"/>
 <path fill="none" stroke="rgb(179,179,179)" stroke-linejoin="round" d="M 28563,16755 L 28563,16605"/>
 <path fill="none" stroke="rgb(179,179,179)" stroke-linejoin="round" d="M 2552,16605 L 28563,16605"/>
 <path fill="none" stroke="rgb(179,179,179)" stroke-linejoin="round" d="M 2402,16605 L 2552,16605"/>
 <path fill="none" stroke="rgb(179,179,179)" stroke-linejoin="round" d="M 2402,16605 L 2552,16605"/>
 <path fill="none" stroke="rgb(179,179,179)" stroke-linejoin="round" d="M 2402,14144 L 2552,14144"/>
 <path fill="none" stroke="rgb(179,179,179)" stroke-linejoin="round" d="M 2402,14144 L 2552,14144"/>
 <path fill="none" stroke="rgb(179,179,179)" stroke-linejoin="round" d="M 2402,11684 L 2552,11684"/>
 <path fill="none" stroke="rgb(179,179,179)" stroke-linejoin="round" d="M 2402,11684 L 2552,11684"/>
 <path fill="none" stroke="rgb(179,179,179)" stroke-linejoin="round" d="M 2402,9225 L 2552,9225"/>
 <path fill="none" stroke="rgb(179,179,179)" stroke-linejoin="round" d="M 2402,9225 L 2552,9225"/>
 <path fill="none" stroke="rgb(179,179,179)" stroke-linejoin="round" d="M 2402,6764 L 2552,6764"/>
 <path fill="none" stroke="rgb(179,179,179)" stroke-linejoin="round" d="M 2402,6764 L 2552,6764"/>
 <path fill="none" stroke="rgb(179,179,179)" stroke-linejoin="round" d="M 2402,4304 L 2552,4304"/>
 <path fill="none" stroke="rgb(179,179,179)" stroke-linejoin="round" d="M 2402,4304 L 2552,4304"/>
 <path fill="none" stroke="rgb(179,179,179)" stroke-linejoin="round" d="M 2402,1844 L 2552,1844"/>
 <path fill="none" stroke="rgb(179,179,179)" stroke-linejoin="round" d="M 2402,1844 L 2552,1844"/>
 <path fill="none" stroke="rgb(179,179,179)" stroke-linejoin="round" d="M 2552,16605 L 2552,1844"/>
 <path fill="rgb(255,66,14)" stroke="none" d="M 4784,10050 L 4909,10175 5034,10050 4909,9925 4784,10050 Z"/>
 <path fill="none" stroke="rgb(255,66,14)" stroke-linejoin="round" d="M 4784,10050 L 4909,10175 5034,10050 4909,9925 4784,10050 Z"/>
 <path fill="rgb(255,66,14)" stroke="none" d="M 6180,11865 L 6305,11990 6430,11865 6305,11740 6180,11865 Z"/>
 <path fill="none" stroke="rgb(255,66,14)" stroke-linejoin="round" d="M 6180,11865 L 6305,11990 6430,11865 6305,11740 6180,11865 Z"/>
 <path fill="rgb(255,66,14)" stroke="none" d="M 10037,12649 L 10162,12774 10287,12649 10162,12524 10037,12649 Z"/>
 <path fill="none" stroke="rgb(255,66,14)" stroke-linejoin="round" d="M 10037,12649 L 10162,12774 10287,12649 10162,12524 10037,12649 Z"/>
 <path fill="rgb(255,66,14)" stroke="none" d="M 10075,9338 L 10200,9463 10325,9338 10200,9214 10075,9338 Z"/>
 <path fill="none" stroke="rgb(255,66,14)" stroke-linejoin="round" d="M 10075,9338 L 10200,9463 10325,9338 10200,9214 10075,9338 Z"/>
 <path fill="rgb(255,66,14)" stroke="none" d="M 13513,9690 L 13638,9815 13763,9690 13638,9565 13513,9690 Z"/>
 <path fill="none" stroke="rgb(255,66,14)" stroke-linejoin="round" d="M 13513,9690 L 13638,9815 13763,9690 13638,9565 13513,9690 Z"/>
 <path fill="rgb(255,66,14)" stroke="none" d="M 17295,13486 L 17420,13611 17545,13486 17420,13361 17295,13486 Z"/>
 <path fill="none" stroke="rgb(255,66,14)" stroke-linejoin="round" d="M 17295,13486 L 17420,13611 17545,13486 17420,13361 17295,13486 Z"/>
 <path fill="rgb(255,66,14)" stroke="none" d="M 23852,10522 L 23977,10647 24102,10522 23977,10397 23852,10522 Z"/>
 <path fill="none" stroke="rgb(255,66,14)" stroke-linejoin="round" d="M 23852,10522 L 23977,10647 24102,10522 23977,10397 23852,10522 Z"/>
 <path fill="rgb(0,69,134)" stroke="none" d="M 4784,10288 L 4784,10538 5034,10538 5034,10288 4784,10288 Z"/>
 <path fill="none" stroke="rgb(0,69,134)" stroke-linejoin="round" d="M 4784,10288 L 4784,10538 5034,10538 5034,10288 4784,10288 Z"/>
 <path fill="rgb(0,69,134)" stroke="none" d="M 6180,12038 L 6180,12288 6430,12288 6430,12038 6180,12038 Z"/>
 <path fill="none" stroke="rgb(0,69,134)" stroke-linejoin="round" d="M 6180,12038 L 6180,12288 6430,12288 6430,12038 6180,12038 Z"/>
 <path fill="rgb(0,69,134)" stroke="none" d="M 10037,12663 L 10037,12913 10287,12913 10287,12663 10037,12663 Z"/>
 <path fill="none" stroke="rgb(0,69,134)" stroke-linejoin="round" d="M 10037,12663 L 10037,12913 10287,12913 10287,12663 10037,12663 Z"/>
 <path fill="rgb(0,69,134)" stroke="none" d="M 10075,3660 L 10075,3910 10325,3910 10325,3660 10075,3660 Z"/>
 <path fill="none" stroke="rgb(0,69,134)" stroke-linejoin="round" d="M 10075,3660 L 10075,3910 10325,3910 10325,3660 10075,3660 Z"/>
 <path fill="rgb(0,69,134)" stroke="none" d="M 13513,10426 L 13513,10676 13763,10676 13763,10426 13513,10426 Z"/>
 <path fill="none" stroke="rgb(0,69,134)" stroke-linejoin="round" d="M 13513,10426 L 13513,10676 13763,10676 13763,10426 13513,10426 Z"/>
 <path fill="rgb(0,69,134)" stroke="none" d="M 17295,13256 L 17295,13506 17545,13506 17545,13256 17295,13256 Z"/>
 <path fill="none" stroke="rgb(0,69,134)" stroke-linejoin="round" d="M 17295,13256 L 17295,13506 17545,13506 17545,13256 17295,13256 Z"/>
 <path fill="rgb(0,69,134)" stroke="none" d="M 23852,12510 L 23852,12760 24102,12760 24102,12510 23852,12510 Z"/>
 <path fill="none" stroke="rgb(0,69,134)" stroke-linejoin="round" d="M 23852,12510 L 23852,12760 24102,12760 24102,12510 23852,12510 Z"/>
 <text class="SVGTextShape"><tspan class="TextParagraph" font-family="Liberation Sans, sans-serif" font-size="353px" font-weight="400"><tspan class="TextPosition" x="1626" y="17173"><tspan fill="rgb(0,0,0)" stroke="none" style="white-space: pre">1100000000</tspan></tspan></tspan></text>
 <text class="SVGTextShape"><tspan class="TextParagraph" font-family="Liberation Sans, sans-serif" font-size="353px" font-weight="400"><tspan class="TextPosition" x="5961" y="17173"><tspan fill="rgb(0,0,0)" stroke="none" style="white-space: pre">1120000000</tspan></tspan></tspan></text>
 <text class="SVGTextShape"><tspan class="TextParagraph" font-family="Liberation Sans, sans-serif" font-size="353px" font-weight="400"><tspan class="TextPosition" x="10296" y="17173"><tspan fill="rgb(0,0,0)" stroke="none" style="white-space: pre">1140000000</tspan></tspan></tspan></text>
 <text class="SVGTextShape"><tspan class="TextParagraph" font-family="Liberation Sans, sans-serif" font-size="353px" font-weight="400"><tspan class="TextPosition" x="14632" y="17173"><tspan fill="rgb(0,0,0)" stroke="none" style="white-space: pre">1160000000</tspan></tspan></tspan></text>
 <text class="SVGTextShape"><tspan class="TextParagraph" font-family="Liberation Sans, sans-serif" font-size="353px" font-weight="400"><tspan class="TextPosition" x="18966" y="17173"><tspan fill="rgb(0,0,0)" stroke="none" style="white-space: pre">1180000000</tspan></tspan></tspan></text>
 <text class="SVGTextShape"><tspan class="TextParagraph" font-family="Liberation Sans, sans-serif" font-size="353px" font-weight="400"><tspan class="TextPosition" x="23301" y="17173"><tspan fill="rgb(0,0,0)" stroke="none" style="white-space: pre">1200000000</tspan></tspan></tspan></text>
 <text class="SVGTextShape"><tspan class="TextParagraph" font-family="Liberation Sans, sans-serif" font-size="353px" font-weight="400"><tspan class="TextPosition" x="27637" y="17173"><tspan fill="rgb(0,0,0)" stroke="none" style="white-space: pre">1220000000</tspan></tspan></tspan></text>
 <text class="SVGTextShape"><tspan class="TextParagraph" font-family="Liberation Sans, sans-serif" font-size="353px" font-weight="400"><tspan class="TextPosition" x="2117" y="16725"><tspan fill="rgb(0,0,0)" stroke="none" style="white-space: pre">0</tspan></tspan></tspan></text>
 <text class="SVGTextShape"><tspan class="TextParagraph" font-family="Liberation Sans, sans-serif" font-size="353px" font-weight="400"><tspan class="TextPosition" x="2117" y="14264"><tspan fill="rgb(0,0,0)" stroke="none" style="white-space: pre">5</tspan></tspan></tspan></text>
 <text class="SVGTextShape"><tspan class="TextParagraph" font-family="Liberation Sans, sans-serif" font-size="353px" font-weight="400"><tspan class="TextPosition" x="1932" y="11804"><tspan fill="rgb(0,0,0)" stroke="none" style="white-space: pre">10</tspan></tspan></tspan></text>
 <text class="SVGTextShape"><tspan class="TextParagraph" font-family="Liberation Sans, sans-serif" font-size="353px" font-weight="400"><tspan class="TextPosition" x="1932" y="9345"><tspan fill="rgb(0,0,0)" stroke="none" style="white-space: pre">15</tspan></tspan></tspan></text>
 <text class="SVGTextShape"><tspan class="TextParagraph" font-family="Liberation Sans, sans-serif" font-size="353px" font-weight="400"><tspan class="TextPosition" x="1932" y="6884"><tspan fill="rgb(0,0,0)" stroke="none" style="white-space: pre">20</tspan></tspan></tspan></text>
 <text class="SVGTextShape"><tspan class="TextParagraph" font-family="Liberation Sans, sans-serif" font-size="353px" font-weight="400"><tspan class="TextPosition" x="1932" y="4424"><tspan fill="rgb(0,0,0)" stroke="none" style="white-space: pre">25</tspan></tspan></tspan></text>
 <text class="SVGTextShape"><tspan class="TextParagraph" font-family="Liberation Sans, sans-serif" font-size="353px" font-weight="400"><tspan class="TextPosition" x="1932" y="1964"><tspan fill="rgb(0,0,0)" stroke="none" style="white-space: pre">30</tspan></tspan></tspan></text>
 <text class="SVGTextShape"><tspan class="TextParagraph" font-family="Liberation Sans, sans-serif" font-size="353px" font-weight="400"><tspan class="TextPosition" x="4168" y="9746"><tspan fill="rgb(0,0,0)" stroke="none" style="white-space: pre">l1c3-avx2</tspan></tspan></tspan></text>
 <text class="SVGTextShape"><tspan class="TextParagraph" font-family="Liberation Sans, sans-serif" font-size="353px" font-weight="400"><tspan class="TextPosition" x="5564" y="11561"><tspan fill="rgb(0,0,0)" stroke="none" style="white-space: pre">l1c2-avx2</tspan></tspan></tspan></text>
 <text class="SVGTextShape"><tspan class="TextParagraph" font-family="Liberation Sans, sans-serif" font-size="353px" font-weight="400"><tspan class="TextPosition" x="9421" y="12345"><tspan fill="rgb(0,0,0)" stroke="none" style="white-space: pre">l1c1-avx2</tspan></tspan></tspan></text>
 <text class="SVGTextShape"><tspan class="TextParagraph" font-family="Liberation Sans, sans-serif" font-size="353px" font-weight="400"><tspan class="TextPosition" x="9459" y="9035"><tspan fill="rgb(0,0,0)" stroke="none" style="white-space: pre">fnbli-avx2</tspan></tspan></tspan></text>
 <text class="SVGTextShape"><tspan class="TextParagraph" font-family="Liberation Sans, sans-serif" font-size="353px" font-weight="400"><tspan class="TextPosition" x="12950" y="9387"><tspan fill="rgb(0,0,0)" stroke="none" style="white-space: pre">qlic2-x86</tspan></tspan></tspan></text>
 <text class="SVGTextShape"><tspan class="TextParagraph" font-family="Liberation Sans, sans-serif" font-size="353px" font-weight="400"><tspan class="TextPosition" x="16679" y="13182"><tspan fill="rgb(0,0,0)" stroke="none" style="white-space: pre">l1c0-avx2</tspan></tspan></tspan></text>
 <text class="SVGTextShape"><tspan class="TextParagraph" font-family="Liberation Sans, sans-serif" font-size="353px" font-weight="400"><tspan class="TextPosition" x="22918" y="10218"><tspan fill="rgb(0,0,0)" stroke="none" style="white-space: pre">halic072-avx2</tspan></tspan></tspan></text>
 <text class="SVGTextShape"><tspan class="TextParagraph" font-family="Liberation Sans, sans-serif" font-size="353px" font-weight="400"><tspan class="TextPosition" x="4168" y="10109"><tspan fill="rgb(0,0,0)" stroke="none" style="white-space: pre">l1c3-avx2</tspan></tspan></tspan></text>
 <text class="SVGTextShape"><tspan class="TextParagraph" font-family="Liberation Sans, sans-serif" font-size="353px" font-weight="400"><tspan class="TextPosition" x="5564" y="11859"><tspan fill="rgb(0,0,0)" stroke="none" style="white-space: pre">l1c2-avx2</tspan></tspan></tspan></text>
 <text class="SVGTextShape"><tspan class="TextParagraph" font-family="Liberation Sans, sans-serif" font-size="353px" font-weight="400"><tspan class="TextPosition" x="9421" y="12484"><tspan fill="rgb(0,0,0)" stroke="none" style="white-space: pre">l1c1-avx2</tspan></tspan></tspan></text>
 <text class="SVGTextShape"><tspan class="TextParagraph" font-family="Liberation Sans, sans-serif" font-size="353px" font-weight="400"><tspan class="TextPosition" x="9459" y="3481"><tspan fill="rgb(0,0,0)" stroke="none" style="white-space: pre">fnbli-avx2</tspan></tspan></tspan></text>
 <text class="SVGTextShape"><tspan class="TextParagraph" font-family="Liberation Sans, sans-serif" font-size="353px" font-weight="400"><tspan class="TextPosition" x="12950" y="10247"><tspan fill="rgb(0,0,0)" stroke="none" style="white-space: pre">qlic2-x86</tspan></tspan></tspan></text>
 <text class="SVGTextShape"><tspan class="TextParagraph" font-family="Liberation Sans, sans-serif" font-size="353px" font-weight="400"><tspan class="TextPosition" x="16679" y="13077"><tspan fill="rgb(0,0,0)" stroke="none" style="white-space: pre">l1c0-avx2</tspan></tspan></tspan></text>
 <text class="SVGTextShape"><tspan class="TextParagraph" font-family="Liberation Sans, sans-serif" font-size="353px" font-weight="400"><tspan class="TextPosition" x="22918" y="12331"><tspan fill="rgb(0,0,0)" stroke="none" style="white-space: pre">halic072-avx2</tspan></tspan></tspan></text>
 <text class="SVGTextShape"><tspan class="TextParagraph" font-family="Liberation Sans, sans-serif" font-size="459px" font-weight="400"><tspan class="TextPosition" x="13791" y="1030"><tspan fill="rgb(0,0,0)" stroke="none" style="white-space: pre">LPCB (i7-13700KF)</tspan></tspan></tspan></text>
 <path fill="rgb(0,69,134)" stroke="none" d="M 30235,8942 L 30235,9153 30446,9153 30446,8942 30235,8942 Z"/>
 <path fill="none" stroke="rgb(0,69,134)" stroke-linejoin="round" d="M 30235,8942 L 30235,9153 30446,9153 30446,8942 30235,8942 Z"/>
 <path fill="rgb(255,66,14)" stroke="none" d="M 30235,9544 L 30340,9650 30446,9544 30340,9439 30235,9544 Z"/>
 <path fill="none" stroke="rgb(255,66,14)" stroke-linejoin="round" d="M 30235,9544 L 30340,9650 30446,9544 30340,9439 30235,9544 Z"/>
 <text class="SVGTextShape"><tspan class="TextParagraph" font-family="Liberation Sans, sans-serif" font-size="353px" font-weight="400"><tspan class="TextPosition" x="30546" y="9167"><tspan fill="rgb(0,0,0)" stroke="none" style="white-space: pre">enc</tspan></tspan></tspan></text>
 <text class="SVGTextShape"><tspan class="TextParagraph" font-family="Liberation Sans, sans-serif" font-size="353px" font-weight="400"><tspan class="TextPosition" x="30546" y="9664"><tspan fill="rgb(0,0,0)" stroke="none" style="white-space: pre">dec</tspan></tspan></tspan></text>
 <text class="SVGTextShape"><tspan class="TextParagraph" font-family="Liberation Sans, sans-serif" font-size="318px" font-weight="400"><tspan class="TextPosition" x="14752" y="18011"><tspan fill="rgb(0,0,0)" stroke="none" style="white-space: pre">Size(bytes)</tspan></tspan></tspan></text>
 <text class="SVGTextShape" transform="rotate(-90 -8758 9698)"><tspan class="TextParagraph" font-family="Liberation Sans, sans-serif" font-size="318px" font-weight="400"><tspan class="TextPosition" x="824" y="10202"><tspan fill="rgb(0,0,0)" stroke="none" style="white-space: pre">Time (sec)</tspan></tspan></tspan></text>
</svg>