<?xml version="1.0" encoding="UTF-8"?>
<!DOCTYPE svg PUBLIC "-//W3C//DTD SVG 1.1//EN" "http://www.w3.org/Graphics/SVG/1.1/DTD/svg11.dtd">
<svg width="342mm" height="217mm" viewBox="0 0 34200 21700" version="1.1" xmlns="http://www.w3.org/2000/svg" xmlns:xlink="http://www.w3.org/1999/xlink" stroke-width="28.222" stroke-linejoin="round" xml:space="preserve">
 <path fill="rgb(255,255,255)" stroke="none" d="M 17098,21693 L -13,21693 -13,-13 34209,-13 34209,21693 17098,21693 Z "/>
 <path fill="none" stroke="rgb(179,179,179)" stroke-linejoin="round" d="M 16520,20612 L 1687,20612 1687,620 31352,620 31352,20612 16520,20612 Z "/>
 <path fill="none" stroke="rgb(179,179,179)" stroke-linejoin="round" d="M 1687,619 L 1687,20611 "/>
 <path fill="none" stroke="rgb(179,179,179)" stroke-linejoin="round" d="M 5395,619 L 5395,20611 "/>
 <path fill="none" stroke="rgb(179,179,179)" stroke-linejoin="round" d="M 9103,619 L 9103,20611 "/>
 <path fill="none" stroke="rgb(179,179,179)" stroke-linejoin="round" d="M 12811,619 L 12811,20611 "/>
 <path fill="none" stroke="rgb(179,179,179)" stroke-linejoin="round" d="M 16520,619 L 16520,20611 "/>
 <path fill="none" stroke="rgb(179,179,179)" stroke-linejoin="round" d="M 20227,619 L 20227,20611 "/>
 <path fill="none" stroke="rgb(179,179,179)" stroke-linejoin="round" d="M 23935,619 L 23935,20611 "/>
 <path fill="none" stroke="rgb(179,179,179)" stroke-linejoin="round" d="M 27643,619 L 27643,20611 "/>
 <path fill="none" stroke="rgb(179,179,179)" stroke-linejoin="round" d="M 31352,619 L 31352,20611 "/>
 <path fill="none" stroke="rgb(221,221,221)" stroke-linejoin="round" d="M 3541,619 L 3541,20611 "/>
 <path fill="none" stroke="rgb(221,221,221)" stroke-linejoin="round" d="M 7249,619 L 7249,20611 "/>
 <path fill="none" stroke="rgb(221,221,221)" stroke-linejoin="round" d="M 10957,619 L 10957,20611 "/>
 <path fill="none" stroke="rgb(221,221,221)" stroke-linejoin="round" d="M 14665,619 L 14665,20611 "/>
 <path fill="none" stroke="rgb(221,221,221)" stroke-linejoin="round" d="M 18373,619 L 18373,20611 "/>
 <path fill="none" stroke="rgb(221,221,221)" stroke-linejoin="round" d="M 22081,619 L 22081,20611 "/>
 <path fill="none" stroke="rgb(221,221,221)" stroke-linejoin="round" d="M 25789,619 L 25789,20611 "/>
 <path fill="none" stroke="rgb(221,221,221)" stroke-linejoin="round" d="M 29497,619 L 29497,20611 "/>
 <path fill="none" stroke="rgb(179,179,179)" stroke-linejoin="round" d="M 31352,20611 L 1687,20611 "/>
 <path fill="none" stroke="rgb(179,179,179)" stroke-linejoin="round" d="M 31352,13946 L 1687,13946 "/>
 <path fill="none" stroke="rgb(179,179,179)" stroke-linejoin="round" d="M 31352,7283 L 1687,7283 "/>
 <path fill="none" stroke="rgb(179,179,179)" stroke-linejoin="round" d="M 31352,618 L 1687,618 "/>
 <path fill="none" stroke="rgb(221,221,221)" stroke-linejoin="round" d="M 31352,18604 L 1687,18604 "/>
 <path fill="none" stroke="rgb(221,221,221)" stroke-linejoin="round" d="M 31352,17431 L 1687,17431 "/>
 <path fill="none" stroke="rgb(221,221,221)" stroke-linejoin="round" d="M 31352,16598 L 1687,16598 "/>
 <path fill="none" stroke="rgb(221,221,221)" stroke-linejoin="round" d="M 31352,15952 L 1687,15952 "/>
 <path fill="none" stroke="rgb(221,221,221)" stroke-linejoin="round" d="M 31352,15425 L 1687,15425 "/>
 <path fill="none" stroke="rgb(221,221,221)" stroke-linejoin="round" d="M 31352,14978 L 1687,14978 "/>
 <path fill="none" stroke="rgb(221,221,221)" stroke-linejoin="round" d="M 31352,14592 L 1687,14592 "/>
 <path fill="none" stroke="rgb(221,221,221)" stroke-linejoin="round" d="M 31352,14251 L 1687,14251 "/>
 <path fill="none" stroke="rgb(221,221,221)" stroke-linejoin="round" d="M 31352,11940 L 1687,11940 "/>
 <path fill="none" stroke="rgb(221,221,221)" stroke-linejoin="round" d="M 31352,10767 L 1687,10767 "/>
 <path fill="none" stroke="rgb(221,221,221)" stroke-linejoin="round" d="M 31352,9935 L 1687,9935 "/>
 <path fill="none" stroke="rgb(221,221,221)" stroke-linejoin="round" d="M 31352,9289 L 1687,9289 "/>
 <path fill="none" stroke="rgb(221,221,221)" stroke-linejoin="round" d="M 31352,8761 L 1687,8761 "/>
 <path fill="none" stroke="rgb(221,221,221)" stroke-linejoin="round" d="M 31352,8315 L 1687,8315 "/>
 <path fill="none" stroke="rgb(221,221,221)" stroke-linejoin="round" d="M 31352,7929 L 1687,7929 "/>
 <path fill="none" stroke="rgb(221,221,221)" stroke-linejoin="round" d="M 31352,7588 L 1687,7588 "/>
 <path fill="none" stroke="rgb(221,221,221)" stroke-linejoin="round" d="M 31352,5277 L 1687,5277 "/>
 <path fill="none" stroke="rgb(221,221,221)" stroke-linejoin="round" d="M 31352,4103 L 1687,4103 "/>
 <path fill="none" stroke="rgb(221,221,221)" stroke-linejoin="round" d="M 31352,3271 L 1687,3271 "/>
 <path fill="none" stroke="rgb(221,221,221)" stroke-linejoin="round" d="M 31352,2625 L 1687,2625 "/>
 <path fill="none" stroke="rgb(221,221,221)" stroke-linejoin="round" d="M 31352,2097 L 1687,2097 "/>
 <path fill="none" stroke="rgb(221,221,221)" stroke-linejoin="round" d="M 31352,1651 L 1687,1651 "/>
 <path fill="none" stroke="rgb(221,221,221)" stroke-linejoin="round" d="M 31352,1264 L 1687,1264 "/>
 <path fill="none" stroke="rgb(221,221,221)" stroke-linejoin="round" d="M 31352,923 L 1687,923 "/>
 <path fill="none" stroke="rgb(179,179,179)" stroke-linejoin="round" d="M 1687,20761 L 1687,20611 "/>
 <path fill="none" stroke="rgb(179,179,179)" stroke-linejoin="round" d="M 1687,20761 L 1687,20611 "/>
 <path fill="none" stroke="rgb(179,179,179)" stroke-linejoin="round" d="M 5395,20761 L 5395,20611 "/>
 <path fill="none" stroke="rgb(179,179,179)" stroke-linejoin="round" d="M 5395,20761 L 5395,20611 "/>
 <path fill="none" stroke="rgb(179,179,179)" stroke-linejoin="round" d="M 9103,20761 L 9103,20611 "/>
 <path fill="none" stroke="rgb(179,179,179)" stroke-linejoin="round" d="M 9103,20761 L 9103,20611 "/>
 <path fill="none" stroke="rgb(179,179,179)" stroke-linejoin="round" d="M 12811,20761 L 12811,20611 "/>
 <path fill="none" stroke="rgb(179,179,179)" stroke-linejoin="round" d="M 12811,20761 L 12811,20611 "/>
 <path fill="none" stroke="rgb(179,179,179)" stroke-linejoin="round" d="M 16520,20761 L 16520,20611 "/>
 <path fill="none" stroke="rgb(179,179,179)" stroke-linejoin="round" d="M 16520,20761 L 16520,20611 "/>
 <path fill="none" stroke="rgb(179,179,179)" stroke-linejoin="round" d="M 20227,20761 L 20227,20611 "/>
 <path fill="none" stroke="rgb(179,179,179)" stroke-linejoin="round" d="M 20227,20761 L 20227,20611 "/>
 <path fill="none" stroke="rgb(179,179,179)" stroke-linejoin="round" d="M 23935,20761 L 23935,20611 "/>
 <path fill="none" stroke="rgb(179,179,179)" stroke-linejoin="round" d="M 23935,20761 L 23935,20611 "/>
 <path fill="none" stroke="rgb(179,179,179)" stroke-linejoin="round" d="M 27643,20761 L 27643,20611 "/>
 <path fill="none" stroke="rgb(179,179,179)" stroke-linejoin="round" d="M 27643,20761 L 27643,20611 "/>
 <path fill="none" stroke="rgb(179,179,179)" stroke-linejoin="round" d="M 31352,20761 L 31352,20611 "/>
 <path fill="none" stroke="rgb(179,179,179)" stroke-linejoin="round" d="M 31352,20761 L 31352,20611 "/>
 <path fill="none" stroke="rgb(179,179,179)" stroke-linejoin="round" d="M 1687,20611 L 31352,20611 "/>
 <path fill="none" stroke="rgb(179,179,179)" stroke-linejoin="round" d="M 1537,20611 L 1687,20611 "/>
 <path fill="none" stroke="rgb(179,179,179)" stroke-linejoin="round" d="M 1537,20611 L 1687,20611 "/>
 <path fill="none" stroke="rgb(179,179,179)" stroke-linejoin="round" d="M 1537,13946 L 1687,13946 "/>
 <path fill="none" stroke="rgb(179,179,179)" stroke-linejoin="round" d="M 1537,13946 L 1687,13946 "/>
 <path fill="none" stroke="rgb(179,179,179)" stroke-linejoin="round" d="M 1537,7283 L 1687,7283 "/>
 <path fill="none" stroke="rgb(179,179,179)" stroke-linejoin="round" d="M 1537,7283 L 1687,7283 "/>
 <path fill="none" stroke="rgb(179,179,179)" stroke-linejoin="round" d="M 1537,619 L 1687,619 "/>
 <path fill="none" stroke="rgb(179,179,179)" stroke-linejoin="round" d="M 1537,619 L 1687,619 "/>
 <path fill="none" stroke="rgb(179,179,179)" stroke-linejoin="round" d="M 1687,20611 L 1687,619 "/>
 <path fill="rgb(255,66,14)" stroke="none" d="M 5971,9278 L 6096,9403 6221,9278 6096,9153 5971,9278 Z "/>
 <path fill="none" stroke="rgb(255,66,14)" stroke-linejoin="round" d="M 5971,9278 L 6096,9403 6221,9278 6096,9153 5971,9278 Z "/>
 <path fill="rgb(255,66,14)" stroke="none" d="M 6082,16829 L 6207,16954 6332,16829 6207,16704 6082,16829 Z "/>
 <path fill="none" stroke="rgb(255,66,14)" stroke-linejoin="round" d="M 6082,16829 L 6207,16954 6332,16829 6207,16704 6082,16829 Z "/>
 <path fill="rgb(255,66,14)" stroke="none" d="M 6082,15956 L 6207,16081 6332,15956 6207,15831 6082,15956 Z "/>
 <path fill="none" stroke="rgb(255,66,14)" stroke-linejoin="round" d="M 6082,15956 L 6207,16081 6332,15956 6207,15831 6082,15956 Z "/>
 <path fill="rgb(255,66,14)" stroke="none" d="M 6087,17089 L 6212,17214 6337,17089 6212,16964 6087,17089 Z "/>
 <path fill="none" stroke="rgb(255,66,14)" stroke-linejoin="round" d="M 6087,17089 L 6212,17214 6337,17089 6212,16964 6087,17089 Z "/>
 <path fill="rgb(255,66,14)" stroke="none" d="M 6087,16185 L 6212,16310 6337,16185 6212,16060 6087,16185 Z "/>
 <path fill="none" stroke="rgb(255,66,14)" stroke-linejoin="round" d="M 6087,16185 L 6212,16310 6337,16185 6212,16060 6087,16185 Z "/>
 <path fill="rgb(255,66,14)" stroke="none" d="M 6486,9499 L 6611,9624 6736,9499 6611,9374 6486,9499 Z "/>
 <path fill="none" stroke="rgb(255,66,14)" stroke-linejoin="round" d="M 6486,9499 L 6611,9624 6736,9499 6611,9374 6486,9499 Z "/>
 <path fill="rgb(255,66,14)" stroke="none" d="M 7126,17492 L 7251,17617 7376,17492 7251,17367 7126,17492 Z "/>
 <path fill="none" stroke="rgb(255,66,14)" stroke-linejoin="round" d="M 7126,17492 L 7251,17617 7376,17492 7251,17367 7126,17492 Z "/>
 <path fill="rgb(255,66,14)" stroke="none" d="M 7201,10352 L 7326,10477 7451,10352 7326,10227 7201,10352 Z "/>
 <path fill="none" stroke="rgb(255,66,14)" stroke-linejoin="round" d="M 7201,10352 L 7326,10477 7451,10352 7326,10227 7201,10352 Z "/>
 <path fill="rgb(255,66,14)" stroke="none" d="M 7376,17516 L 7501,17641 7626,17516 7501,17391 7376,17516 Z "/>
 <path fill="none" stroke="rgb(255,66,14)" stroke-linejoin="round" d="M 7376,17516 L 7501,17641 7626,17516 7501,17391 7376,17516 Z "/>
 <path fill="rgb(255,66,14)" stroke="none" d="M 7376,16781 L 7501,16906 7626,16781 7501,16656 7376,16781 Z "/>
 <path fill="none" stroke="rgb(255,66,14)" stroke-linejoin="round" d="M 7376,16781 L 7501,16906 7626,16781 7501,16656 7376,16781 Z "/>
 <path fill="rgb(255,66,14)" stroke="none" d="M 7640,10819 L 7765,10943 7890,10819 7765,10694 7640,10819 Z "/>
 <path fill="none" stroke="rgb(255,66,14)" stroke-linejoin="round" d="M 7640,10819 L 7765,10943 7890,10819 7765,10694 7640,10819 Z "/>
 <path fill="rgb(255,66,14)" stroke="none" d="M 7991,18092 L 8116,18217 8241,18092 8116,17967 7991,18092 Z "/>
 <path fill="none" stroke="rgb(255,66,14)" stroke-linejoin="round" d="M 7991,18092 L 8116,18217 8241,18092 8116,17967 7991,18092 Z "/>
 <path fill="rgb(255,66,14)" stroke="none" d="M 8409,17923 L 8534,18048 8659,17923 8534,17798 8409,17923 Z "/>
 <path fill="none" stroke="rgb(255,66,14)" stroke-linejoin="round" d="M 8409,17923 L 8534,18048 8659,17923 8534,17798 8409,17923 Z "/>
 <path fill="rgb(255,66,14)" stroke="none" d="M 8409,17662 L 8534,17787 8659,17662 8534,17537 8409,17662 Z "/>
 <path fill="none" stroke="rgb(255,66,14)" stroke-linejoin="round" d="M 8409,17662 L 8534,17787 8659,17662 8534,17537 8409,17662 Z "/>
 <path fill="rgb(255,66,14)" stroke="none" d="M 8591,18352 L 8716,18477 8841,18352 8716,18227 8591,18352 Z "/>
 <path fill="none" stroke="rgb(255,66,14)" stroke-linejoin="round" d="M 8591,18352 L 8716,18477 8841,18352 8716,18227 8591,18352 Z "/>
 <path fill="rgb(255,66,14)" stroke="none" d="M 11106,7659 L 11231,7784 11356,7659 11231,7534 11106,7659 Z "/>
 <path fill="none" stroke="rgb(255,66,14)" stroke-linejoin="round" d="M 11106,7659 L 11231,7784 11356,7659 11231,7534 11106,7659 Z "/>
 <path fill="rgb(255,66,14)" stroke="none" d="M 14333,13113 L 14458,13238 14583,13113 14458,12988 14333,13113 Z "/>
 <path fill="none" stroke="rgb(255,66,14)" stroke-linejoin="round" d="M 14333,13113 L 14458,13238 14583,13113 14458,12988 14333,13113 Z "/>
 <path fill="rgb(255,66,14)" stroke="none" d="M 18331,13494 L 18456,13619 18581,13494 18456,13369 18331,13494 Z "/>
 <path fill="none" stroke="rgb(255,66,14)" stroke-linejoin="round" d="M 18331,13494 L 18456,13619 18581,13494 18456,13369 18331,13494 Z "/>
 <path fill="rgb(255,66,14)" stroke="none" d="M 29668,15322 L 29793,15447 29918,15322 29793,15197 29668,15322 Z "/>
 <path fill="none" stroke="rgb(255,66,14)" stroke-linejoin="round" d="M 29668,15322 L 29793,15447 29918,15322 29793,15197 29668,15322 Z "/>
 <path fill="rgb(0,69,134)" stroke="none" d="M 5971,2940 L 5971,3190 6221,3190 6221,2940 5971,2940 Z "/>
 <path fill="none" stroke="rgb(0,69,134)" stroke-linejoin="round" d="M 5971,2940 L 5971,3190 6221,3190 6221,2940 5971,2940 Z "/>
 <path fill="rgb(0,69,134)" stroke="none" d="M 6082,16677 L 6082,16927 6332,16927 6332,16677 6082,16677 Z "/>
 <path fill="none" stroke="rgb(0,69,134)" stroke-linejoin="round" d="M 6082,16677 L 6082,16927 6332,16927 6332,16677 6082,16677 Z "/>
 <path fill="rgb(0,69,134)" stroke="none" d="M 6082,15507 L 6082,15757 6332,15757 6332,15507 6082,15507 Z "/>
 <path fill="none" stroke="rgb(0,69,134)" stroke-linejoin="round" d="M 6082,15507 L 6082,15757 6332,15757 6332,15507 6082,15507 Z "/>
 <path fill="rgb(0,69,134)" stroke="none" d="M 6087,16932 L 6087,17182 6337,17182 6337,16932 6087,16932 Z "/>
 <path fill="none" stroke="rgb(0,69,134)" stroke-linejoin="round" d="M 6087,16932 L 6087,17182 6337,17182 6337,16932 6087,16932 Z "/>
 <path fill="rgb(0,69,134)" stroke="none" d="M 6087,15754 L 6087,16004 6337,16004 6337,15754 6087,15754 Z "/>
 <path fill="none" stroke="rgb(0,69,134)" stroke-linejoin="round" d="M 6087,15754 L 6087,16004 6337,16004 6337,15754 6087,15754 Z "/>
 <path fill="rgb(0,69,134)" stroke="none" d="M 6486,4283 L 6486,4533 6736,4533 6736,4283 6486,4283 Z "/>
 <path fill="none" stroke="rgb(0,69,134)" stroke-linejoin="round" d="M 6486,4283 L 6486,4533 6736,4533 6736,4283 6486,4283 Z "/>
 <path fill="rgb(0,69,134)" stroke="none" d="M 7126,16979 L 7126,17229 7376,17229 7376,16979 7126,16979 Z "/>
 <path fill="none" stroke="rgb(0,69,134)" stroke-linejoin="round" d="M 7126,16979 L 7126,17229 7376,17229 7376,16979 7126,16979 Z "/>
 <path fill="rgb(0,69,134)" stroke="none" d="M 7201,6458 L 7201,6708 7451,6708 7451,6458 7201,6458 Z "/>
 <path fill="none" stroke="rgb(0,69,134)" stroke-linejoin="round" d="M 7201,6458 L 7201,6708 7451,6708 7451,6458 7201,6458 Z "/>
 <path fill="rgb(0,69,134)" stroke="none" d="M 7376,17298 L 7376,17548 7626,17548 7626,17298 7376,17298 Z "/>
 <path fill="none" stroke="rgb(0,69,134)" stroke-linejoin="round" d="M 7376,17298 L 7376,17548 7626,17548 7626,17298 7376,17298 Z "/>
 <path fill="rgb(0,69,134)" stroke="none" d="M 7376,16184 L 7376,16434 7626,16434 7626,16184 7376,16184 Z "/>
 <path fill="none" stroke="rgb(0,69,134)" stroke-linejoin="round" d="M 7376,16184 L 7376,16434 7626,16434 7626,16184 7376,16184 Z "/>
 <path fill="rgb(0,69,134)" stroke="none" d="M 7640,9845 L 7640,10095 7890,10095 7890,9845 7640,9845 Z "/>
 <path fill="none" stroke="rgb(0,69,134)" stroke-linejoin="round" d="M 7640,9845 L 7640,10095 7890,10095 7890,9845 7640,9845 Z "/>
 <path fill="rgb(0,69,134)" stroke="none" d="M 7991,17386 L 7991,17636 8241,17636 8241,17386 7991,17386 Z "/>
 <path fill="none" stroke="rgb(0,69,134)" stroke-linejoin="round" d="M 7991,17386 L 7991,17636 8241,17636 8241,17386 7991,17386 Z "/>
 <path fill="rgb(0,69,134)" stroke="none" d="M 8409,17456 L 8409,17706 8659,17706 8659,17456 8409,17456 Z "/>
 <path fill="none" stroke="rgb(0,69,134)" stroke-linejoin="round" d="M 8409,17456 L 8409,17706 8659,17706 8659,17456 8409,17456 Z "/>
 <path fill="rgb(0,69,134)" stroke="none" d="M 8409,16866 L 8409,17116 8659,17116 8659,16866 8409,16866 Z "/>
 <path fill="none" stroke="rgb(0,69,134)" stroke-linejoin="round" d="M 8409,16866 L 8409,17116 8659,17116 8659,16866 8409,16866 Z "/>
 <path fill="rgb(0,69,134)" stroke="none" d="M 8591,17654 L 8591,17904 8841,17904 8841,17654 8591,17654 Z "/>
 <path fill="none" stroke="rgb(0,69,134)" stroke-linejoin="round" d="M 8591,17654 L 8591,17904 8841,17904 8841,17654 8591,17654 Z "/>
 <path fill="rgb(0,69,134)" stroke="none" d="M 11106,8093 L 11106,8343 11356,8343 11356,8093 11106,8093 Z "/>
 <path fill="none" stroke="rgb(0,69,134)" stroke-linejoin="round" d="M 11106,8093 L 11106,8343 11356,8343 11356,8093 11106,8093 Z "/>
 <path fill="rgb(0,69,134)" stroke="none" d="M 14333,11899 L 14333,12149 14583,12149 14583,11899 14333,11899 Z "/>
 <path fill="none" stroke="rgb(0,69,134)" stroke-linejoin="round" d="M 14333,11899 L 14333,12149 14583,12149 14583,11899 14333,11899 Z "/>
 <path fill="rgb(0,69,134)" stroke="none" d="M 18331,16887 L 18331,17137 18581,17137 18581,16887 18331,16887 Z "/>
 <path fill="none" stroke="rgb(0,69,134)" stroke-linejoin="round" d="M 18331,16887 L 18331,17137 18581,17137 18581,16887 18331,16887 Z "/>
 <path fill="rgb(0,69,134)" stroke="none" d="M 29668,5427 L 29668,5677 29918,5677 29918,5427 29668,5427 Z "/>
 <path fill="none" stroke="rgb(0,69,134)" stroke-linejoin="round" d="M 29668,5427 L 29668,5677 29918,5677 29918,5427 29668,5427 Z "/>
 <text class="SVGTextShape"><tspan class="TextParagraph"><tspan class="TextPosition" x="827" y="21179"><tspan font-family="Liberation Sans, sans-serif" font-size="353px" font-weight="400" fill="rgb(0,0,0)" stroke="none" style="white-space: pre">280000000</tspan></tspan></tspan></text>
 <text class="SVGTextShape"><tspan class="TextParagraph"><tspan class="TextPosition" x="4535" y="21179"><tspan font-family="Liberation Sans, sans-serif" font-size="353px" font-weight="400" fill="rgb(0,0,0)" stroke="none" style="white-space: pre">300000000</tspan></tspan></tspan></text>
 <text class="SVGTextShape"><tspan class="TextParagraph"><tspan class="TextPosition" x="8243" y="21179"><tspan font-family="Liberation Sans, sans-serif" font-size="353px" font-weight="400" fill="rgb(0,0,0)" stroke="none" style="white-space: pre">320000000</tspan></tspan></tspan></text>
 <text class="SVGTextShape"><tspan class="TextParagraph"><tspan class="TextPosition" x="11951" y="21179"><tspan font-family="Liberation Sans, sans-serif" font-size="353px" font-weight="400" fill="rgb(0,0,0)" stroke="none" style="white-space: pre">340000000</tspan></tspan></tspan></text>
 <text class="SVGTextShape"><tspan class="TextParagraph"><tspan class="TextPosition" x="15660" y="21179"><tspan font-family="Liberation Sans, sans-serif" font-size="353px" font-weight="400" fill="rgb(0,0,0)" stroke="none" style="white-space: pre">360000000</tspan></tspan></tspan></text>
 <text class="SVGTextShape"><tspan class="TextParagraph"><tspan class="TextPosition" x="19367" y="21179"><tspan font-family="Liberation Sans, sans-serif" font-size="353px" font-weight="400" fill="rgb(0,0,0)" stroke="none" style="white-space: pre">380000000</tspan></tspan></tspan></text>
 <text class="SVGTextShape"><tspan class="TextParagraph"><tspan class="TextPosition" x="23075" y="21179"><tspan font-family="Liberation Sans, sans-serif" font-size="353px" font-weight="400" fill="rgb(0,0,0)" stroke="none" style="white-space: pre">400000000</tspan></tspan></tspan></text>
 <text class="SVGTextShape"><tspan class="TextParagraph"><tspan class="TextPosition" x="26783" y="21179"><tspan font-family="Liberation Sans, sans-serif" font-size="353px" font-weight="400" fill="rgb(0,0,0)" stroke="none" style="white-space: pre">420000000</tspan></tspan></tspan></text>
 <text class="SVGTextShape"><tspan class="TextParagraph"><tspan class="TextPosition" x="30492" y="21179"><tspan font-family="Liberation Sans, sans-serif" font-size="353px" font-weight="400" fill="rgb(0,0,0)" stroke="none" style="white-space: pre">440000000</tspan></tspan></tspan></text>
 <text class="SVGTextShape"><tspan class="TextParagraph"><tspan class="TextPosition" x="1246" y="20732"><tspan font-family="Liberation Sans, sans-serif" font-size="353px" font-weight="400" fill="rgb(0,0,0)" stroke="none" style="white-space: pre">1</tspan></tspan></tspan></text>
 <text class="SVGTextShape"><tspan class="TextParagraph"><tspan class="TextPosition" x="1054" y="14067"><tspan font-family="Liberation Sans, sans-serif" font-size="353px" font-weight="400" fill="rgb(0,0,0)" stroke="none" style="white-space: pre">10</tspan></tspan></tspan></text>
 <text class="SVGTextShape"><tspan class="TextParagraph"><tspan class="TextPosition" x="863" y="7404"><tspan font-family="Liberation Sans, sans-serif" font-size="353px" font-weight="400" fill="rgb(0,0,0)" stroke="none" style="white-space: pre">100</tspan></tspan></tspan></text>
 <text class="SVGTextShape"><tspan class="TextParagraph"><tspan class="TextPosition" x="672" y="740"><tspan font-family="Liberation Sans, sans-serif" font-size="353px" font-weight="400" fill="rgb(0,0,0)" stroke="none" style="white-space: pre">1000</tspan></tspan></tspan></text>
 <text class="SVGTextShape"><tspan class="TextParagraph"><tspan class="TextPosition" x="5779" y="8973"><tspan font-family="Liberation Sans, sans-serif" font-size="423px" font-weight="400" fill="rgb(0,0,0)" stroke="none" style="white-space: pre">jxl6</tspan></tspan></tspan></text>
 <text class="SVGTextShape"><tspan class="TextParagraph"><tspan class="TextPosition" x="5372" y="16524"><tspan font-family="Liberation Sans, sans-serif" font-size="423px" font-weight="400" fill="rgb(0,0,0)" stroke="none" style="white-space: pre">l1c2avx2</tspan></tspan></tspan></text>
 <text class="SVGTextShape"><tspan class="TextParagraph"><tspan class="TextPosition" x="5255" y="15651"><tspan font-family="Liberation Sans, sans-serif" font-size="423px" font-weight="400" fill="rgb(0,0,0)" stroke="none" style="white-space: pre">l1c3sse41</tspan></tspan></tspan></text>
 <text class="SVGTextShape"><tspan class="TextParagraph"><tspan class="TextPosition" x="5377" y="16784"><tspan font-family="Liberation Sans, sans-serif" font-size="423px" font-weight="400" fill="rgb(0,0,0)" stroke="none" style="white-space: pre">l1c2avx2</tspan></tspan></tspan></text>
 <text class="SVGTextShape"><tspan class="TextParagraph"><tspan class="TextPosition" x="5260" y="15880"><tspan font-family="Liberation Sans, sans-serif" font-size="423px" font-weight="400" fill="rgb(0,0,0)" stroke="none" style="white-space: pre">l1c2sse41</tspan></tspan></tspan></text>
 <text class="SVGTextShape"><tspan class="TextParagraph"><tspan class="TextPosition" x="6294" y="9194"><tspan font-family="Liberation Sans, sans-serif" font-size="423px" font-weight="400" fill="rgb(0,0,0)" stroke="none" style="white-space: pre">jxl5</tspan></tspan></tspan></text>
 <text class="SVGTextShape"><tspan class="TextParagraph"><tspan class="TextPosition" x="6181" y="17187"><tspan font-family="Liberation Sans, sans-serif" font-size="423px" font-weight="400" fill="rgb(0,0,0)" stroke="none" style="white-space: pre">l1c2avx512</tspan></tspan></tspan></text>
 <text class="SVGTextShape"><tspan class="TextParagraph"><tspan class="TextPosition" x="7009" y="10047"><tspan font-family="Liberation Sans, sans-serif" font-size="423px" font-weight="400" fill="rgb(0,0,0)" stroke="none" style="white-space: pre">jxl4</tspan></tspan></tspan></text>
 <text class="SVGTextShape"><tspan class="TextParagraph"><tspan class="TextPosition" x="6666" y="17211"><tspan font-family="Liberation Sans, sans-serif" font-size="423px" font-weight="400" fill="rgb(0,0,0)" stroke="none" style="white-space: pre">l1c1avx2</tspan></tspan></tspan></text>
 <text class="SVGTextShape"><tspan class="TextParagraph"><tspan class="TextPosition" x="6549" y="16476"><tspan font-family="Liberation Sans, sans-serif" font-size="423px" font-weight="400" fill="rgb(0,0,0)" stroke="none" style="white-space: pre">l1c1sse41</tspan></tspan></tspan></text>
 <text class="SVGTextShape"><tspan class="TextParagraph"><tspan class="TextPosition" x="7448" y="10514"><tspan font-family="Liberation Sans, sans-serif" font-size="423px" font-weight="400" fill="rgb(0,0,0)" stroke="none" style="white-space: pre">jxl3</tspan></tspan></tspan></text>
 <text class="SVGTextShape"><tspan class="TextParagraph"><tspan class="TextPosition" x="7046" y="17787"><tspan font-family="Liberation Sans, sans-serif" font-size="423px" font-weight="400" fill="rgb(0,0,0)" stroke="none" style="white-space: pre">l1c1avx512</tspan></tspan></tspan></text>
 <text class="SVGTextShape"><tspan class="TextParagraph"><tspan class="TextPosition" x="7699" y="17618"><tspan font-family="Liberation Sans, sans-serif" font-size="423px" font-weight="400" fill="rgb(0,0,0)" stroke="none" style="white-space: pre">l1c0avx2</tspan></tspan></tspan></text>
 <text class="SVGTextShape"><tspan class="TextParagraph"><tspan class="TextPosition" x="7582" y="17357"><tspan font-family="Liberation Sans, sans-serif" font-size="423px" font-weight="400" fill="rgb(0,0,0)" stroke="none" style="white-space: pre">l1c0sse41</tspan></tspan></tspan></text>
 <text class="SVGTextShape"><tspan class="TextParagraph"><tspan class="TextPosition" x="7646" y="18047"><tspan font-family="Liberation Sans, sans-serif" font-size="423px" font-weight="400" fill="rgb(0,0,0)" stroke="none" style="white-space: pre">l1c0avx512</tspan></tspan></tspan></text>
 <text class="SVGTextShape"><tspan class="TextParagraph"><tspan class="TextPosition" x="10961" y="7354"><tspan font-family="Liberation Sans, sans-serif" font-size="423px" font-weight="400" fill="rgb(0,0,0)" stroke="none" style="white-space: pre">j2k</tspan></tspan></tspan></text>
 <text class="SVGTextShape"><tspan class="TextParagraph"><tspan class="TextPosition" x="14141" y="12808"><tspan font-family="Liberation Sans, sans-serif" font-size="423px" font-weight="400" fill="rgb(0,0,0)" stroke="none" style="white-space: pre">jxl2</tspan></tspan></tspan></text>
 <text class="SVGTextShape"><tspan class="TextParagraph"><tspan class="TextPosition" x="18139" y="13189"><tspan font-family="Liberation Sans, sans-serif" font-size="423px" font-weight="400" fill="rgb(0,0,0)" stroke="none" style="white-space: pre">jxl1</tspan></tspan></tspan></text>
 <text class="SVGTextShape"><tspan class="TextParagraph"><tspan class="TextPosition" x="29441" y="15017"><tspan font-family="Liberation Sans, sans-serif" font-size="423px" font-weight="400" fill="rgb(0,0,0)" stroke="none" style="white-space: pre">png</tspan></tspan></tspan></text>
 <text class="SVGTextShape"><tspan class="TextParagraph"><tspan class="TextPosition" x="5779" y="2760"><tspan font-family="Liberation Sans, sans-serif" font-size="423px" font-weight="400" fill="rgb(0,0,0)" stroke="none" style="white-space: pre">jxl6</tspan></tspan></tspan></text>
 <text class="SVGTextShape"><tspan class="TextParagraph"><tspan class="TextPosition" x="5372" y="16497"><tspan font-family="Liberation Sans, sans-serif" font-size="423px" font-weight="400" fill="rgb(0,0,0)" stroke="none" style="white-space: pre">l1c2avx2</tspan></tspan></tspan></text>
 <text class="SVGTextShape"><tspan class="TextParagraph"><tspan class="TextPosition" x="5255" y="15327"><tspan font-family="Liberation Sans, sans-serif" font-size="423px" font-weight="400" fill="rgb(0,0,0)" stroke="none" style="white-space: pre">l1c3sse41</tspan></tspan></tspan></text>
 <text class="SVGTextShape"><tspan class="TextParagraph"><tspan class="TextPosition" x="5377" y="16752"><tspan font-family="Liberation Sans, sans-serif" font-size="423px" font-weight="400" fill="rgb(0,0,0)" stroke="none" style="white-space: pre">l1c2avx2</tspan></tspan></tspan></text>
 <text class="SVGTextShape"><tspan class="TextParagraph"><tspan class="TextPosition" x="5260" y="15574"><tspan font-family="Liberation Sans, sans-serif" font-size="423px" font-weight="400" fill="rgb(0,0,0)" stroke="none" style="white-space: pre">l1c2sse41</tspan></tspan></tspan></text>
 <text class="SVGTextShape"><tspan class="TextParagraph"><tspan class="TextPosition" x="6294" y="4103"><tspan font-family="Liberation Sans, sans-serif" font-size="423px" font-weight="400" fill="rgb(0,0,0)" stroke="none" style="white-space: pre">jxl5</tspan></tspan></tspan></text>
 <text class="SVGTextShape"><tspan class="TextParagraph"><tspan class="TextPosition" x="6181" y="16799"><tspan font-family="Liberation Sans, sans-serif" font-size="423px" font-weight="400" fill="rgb(0,0,0)" stroke="none" style="white-space: pre">l1c2avx512</tspan></tspan></tspan></text>
 <text class="SVGTextShape"><tspan class="TextParagraph"><tspan class="TextPosition" x="7009" y="6278"><tspan font-family="Liberation Sans, sans-serif" font-size="423px" font-weight="400" fill="rgb(0,0,0)" stroke="none" style="white-space: pre">jxl4</tspan></tspan></tspan></text>
 <text class="SVGTextShape"><tspan class="TextParagraph"><tspan class="TextPosition" x="6666" y="17118"><tspan font-family="Liberation Sans, sans-serif" font-size="423px" font-weight="400" fill="rgb(0,0,0)" stroke="none" style="white-space: pre">l1c1avx2</tspan></tspan></tspan></text>
 <text class="SVGTextShape"><tspan class="TextParagraph"><tspan class="TextPosition" x="6549" y="16004"><tspan font-family="Liberation Sans, sans-serif" font-size="423px" font-weight="400" fill="rgb(0,0,0)" stroke="none" style="white-space: pre">l1c1sse41</tspan></tspan></tspan></text>
 <text class="SVGTextShape"><tspan class="TextParagraph"><tspan class="TextPosition" x="7448" y="9665"><tspan font-family="Liberation Sans, sans-serif" font-size="423px" font-weight="400" fill="rgb(0,0,0)" stroke="none" style="white-space: pre">jxl3</tspan></tspan></tspan></text>
 <text class="SVGTextShape"><tspan class="TextParagraph"><tspan class="TextPosition" x="7046" y="17206"><tspan font-family="Liberation Sans, sans-serif" font-size="423px" font-weight="400" fill="rgb(0,0,0)" stroke="none" style="white-space: pre">l1c1avx512</tspan></tspan></tspan></text>
 <text class="SVGTextShape"><tspan class="TextParagraph"><tspan class="TextPosition" x="7699" y="17276"><tspan font-family="Liberation Sans, sans-serif" font-size="423px" font-weight="400" fill="rgb(0,0,0)" stroke="none" style="white-space: pre">l1c0avx2</tspan></tspan></tspan></text>
 <text class="SVGTextShape"><tspan class="TextParagraph"><tspan class="TextPosition" x="7582" y="16686"><tspan font-family="Liberation Sans, sans-serif" font-size="423px" font-weight="400" fill="rgb(0,0,0)" stroke="none" style="white-space: pre">l1c0sse41</tspan></tspan></tspan></text>
 <text class="SVGTextShape"><tspan class="TextParagraph"><tspan class="TextPosition" x="7646" y="17474"><tspan font-family="Liberation Sans, sans-serif" font-size="423px" font-weight="400" fill="rgb(0,0,0)" stroke="none" style="white-space: pre">l1c0avx512</tspan></tspan></tspan></text>
 <text class="SVGTextShape"><tspan class="TextParagraph"><tspan class="TextPosition" x="10961" y="7913"><tspan font-family="Liberation Sans, sans-serif" font-size="423px" font-weight="400" fill="rgb(0,0,0)" stroke="none" style="white-space: pre">j2k</tspan></tspan></tspan></text>
 <text class="SVGTextShape"><tspan class="TextParagraph"><tspan class="TextPosition" x="14141" y="11719"><tspan font-family="Liberation Sans, sans-serif" font-size="423px" font-weight="400" fill="rgb(0,0,0)" stroke="none" style="white-space: pre">jxl2</tspan></tspan></tspan></text>
 <text class="SVGTextShape"><tspan class="TextParagraph"><tspan class="TextPosition" x="18139" y="16707"><tspan font-family="Liberation Sans, sans-serif" font-size="423px" font-weight="400" fill="rgb(0,0,0)" stroke="none" style="white-space: pre">jxl1</tspan></tspan></tspan></text>
 <text class="SVGTextShape"><tspan class="TextParagraph"><tspan class="TextPosition" x="29441" y="5247"><tspan font-family="Liberation Sans, sans-serif" font-size="423px" font-weight="400" fill="rgb(0,0,0)" stroke="none" style="white-space: pre">png</tspan></tspan></tspan></text>
 <path fill="rgb(0,69,134)" stroke="none" d="M 33015,10485 L 33015,10696 33226,10696 33226,10485 33015,10485 Z "/>
 <path fill="none" stroke="rgb(0,69,134)" stroke-linejoin="round" d="M 33015,10485 L 33015,10696 33226,10696 33226,10485 33015,10485 Z "/>
 <path fill="rgb(255,66,14)" stroke="none" d="M 33015,11087 L 33120,11193 33226,11087 33120,10982 33015,11087 Z "/>
 <path fill="none" stroke="rgb(255,66,14)" stroke-linejoin="round" d="M 33015,11087 L 33120,11193 33226,11087 33120,10982 33015,11087 Z "/>
 <text class="SVGTextShape"><tspan class="TextParagraph"><tspan class="TextPosition" x="33326" y="10710"><tspan font-family="Liberation Sans, sans-serif" font-size="353px" font-weight="400" fill="rgb(0,0,0)" stroke="none" style="white-space: pre">enc</tspan></tspan></tspan></text>
 <text class="SVGTextShape"><tspan class="TextParagraph"><tspan class="TextPosition" x="33326" y="11207"><tspan font-family="Liberation Sans, sans-serif" font-size="353px" font-weight="400" fill="rgb(0,0,0)" stroke="none" style="white-space: pre">dec</tspan></tspan></tspan></text>
</svg>