<?xml version="1.0" encoding="UTF-8"?>
<!DOCTYPE svg PUBLIC "-//W3C//DTD SVG 1.1//EN" "http://www.w3.org/Graphics/SVG/1.1/DTD/svg11.dtd">
<svg width="339mm" height="212mm" viewBox="0 0 33900 21200" version="1.1" xmlns="http://www.w3.org/2000/svg" xmlns:xlink="http://www.w3.org/1999/xlink" stroke-width="28.222" stroke-linejoin="round" xml:space="preserve">
 <path fill="rgb(255,255,255)" stroke="none" d="M 16937,21177 L -13,21177 -13,-13 33887,-13 33887,21177 16937,21177 Z "/>
 <path fill="none" stroke="rgb(179,179,179)" stroke-linejoin="round" d="M 16281,20107 L 1526,20107 1526,610 31036,610 31036,20107 16281,20107 Z "/>
 <path fill="none" stroke="rgb(179,179,179)" stroke-linejoin="round" d="M 1526,609 L 1526,20106 "/>
 <path fill="none" stroke="rgb(179,179,179)" stroke-linejoin="round" d="M 4477,609 L 4477,20106 "/>
 <path fill="none" stroke="rgb(179,179,179)" stroke-linejoin="round" d="M 7428,609 L 7428,20106 "/>
 <path fill="none" stroke="rgb(179,179,179)" stroke-linejoin="round" d="M 10379,609 L 10379,20106 "/>
 <path fill="none" stroke="rgb(179,179,179)" stroke-linejoin="round" d="M 13330,609 L 13330,20106 "/>
 <path fill="none" stroke="rgb(179,179,179)" stroke-linejoin="round" d="M 16281,609 L 16281,20106 "/>
 <path fill="none" stroke="rgb(179,179,179)" stroke-linejoin="round" d="M 19231,609 L 19231,20106 "/>
 <path fill="none" stroke="rgb(179,179,179)" stroke-linejoin="round" d="M 22182,609 L 22182,20106 "/>
 <path fill="none" stroke="rgb(179,179,179)" stroke-linejoin="round" d="M 25133,609 L 25133,20106 "/>
 <path fill="none" stroke="rgb(179,179,179)" stroke-linejoin="round" d="M 28084,609 L 28084,20106 "/>
 <path fill="none" stroke="rgb(179,179,179)" stroke-linejoin="round" d="M 31036,609 L 31036,20106 "/>
 <path fill="none" stroke="rgb(221,221,221)" stroke-linejoin="round" d="M 3001,609 L 3001,20106 "/>
 <path fill="none" stroke="rgb(221,221,221)" stroke-linejoin="round" d="M 5952,609 L 5952,20106 "/>
 <path fill="none" stroke="rgb(221,221,221)" stroke-linejoin="round" d="M 8903,609 L 8903,20106 "/>
 <path fill="none" stroke="rgb(221,221,221)" stroke-linejoin="round" d="M 11854,609 L 11854,20106 "/>
 <path fill="none" stroke="rgb(221,221,221)" stroke-linejoin="round" d="M 14805,609 L 14805,20106 "/>
 <path fill="none" stroke="rgb(221,221,221)" stroke-linejoin="round" d="M 17756,609 L 17756,20106 "/>
 <path fill="none" stroke="rgb(221,221,221)" stroke-linejoin="round" d="M 20707,609 L 20707,20106 "/>
 <path fill="none" stroke="rgb(221,221,221)" stroke-linejoin="round" d="M 23658,609 L 23658,20106 "/>
 <path fill="none" stroke="rgb(221,221,221)" stroke-linejoin="round" d="M 26609,609 L 26609,20106 "/>
 <path fill="none" stroke="rgb(221,221,221)" stroke-linejoin="round" d="M 29560,609 L 29560,20106 "/>
 <path fill="none" stroke="rgb(179,179,179)" stroke-linejoin="round" d="M 31036,20106 L 1526,20106 "/>
 <path fill="none" stroke="rgb(179,179,179)" stroke-linejoin="round" d="M 31036,17320 L 1526,17320 "/>
 <path fill="none" stroke="rgb(179,179,179)" stroke-linejoin="round" d="M 31036,14535 L 1526,14535 "/>
 <path fill="none" stroke="rgb(179,179,179)" stroke-linejoin="round" d="M 31036,11749 L 1526,11749 "/>
 <path fill="none" stroke="rgb(179,179,179)" stroke-linejoin="round" d="M 31036,8965 L 1526,8965 "/>
 <path fill="none" stroke="rgb(179,179,179)" stroke-linejoin="round" d="M 31036,6179 L 1526,6179 "/>
 <path fill="none" stroke="rgb(179,179,179)" stroke-linejoin="round" d="M 31036,3394 L 1526,3394 "/>
 <path fill="none" stroke="rgb(179,179,179)" stroke-linejoin="round" d="M 31036,609 L 1526,609 "/>
 <path fill="none" stroke="rgb(221,221,221)" stroke-linejoin="round" d="M 31036,18713 L 1526,18713 "/>
 <path fill="none" stroke="rgb(221,221,221)" stroke-linejoin="round" d="M 31036,15927 L 1526,15927 "/>
 <path fill="none" stroke="rgb(221,221,221)" stroke-linejoin="round" d="M 31036,13142 L 1526,13142 "/>
 <path fill="none" stroke="rgb(221,221,221)" stroke-linejoin="round" d="M 31036,10358 L 1526,10358 "/>
 <path fill="none" stroke="rgb(221,221,221)" stroke-linejoin="round" d="M 31036,7572 L 1526,7572 "/>
 <path fill="none" stroke="rgb(221,221,221)" stroke-linejoin="round" d="M 31036,4787 L 1526,4787 "/>
 <path fill="none" stroke="rgb(221,221,221)" stroke-linejoin="round" d="M 31036,2001 L 1526,2001 "/>
 <path fill="none" stroke="rgb(179,179,179)" stroke-linejoin="round" d="M 1526,20256 L 1526,20106 "/>
 <path fill="none" stroke="rgb(179,179,179)" stroke-linejoin="round" d="M 1526,20256 L 1526,20106 "/>
 <path fill="none" stroke="rgb(179,179,179)" stroke-linejoin="round" d="M 4477,20256 L 4477,20106 "/>
 <path fill="none" stroke="rgb(179,179,179)" stroke-linejoin="round" d="M 4477,20256 L 4477,20106 "/>
 <path fill="none" stroke="rgb(179,179,179)" stroke-linejoin="round" d="M 7428,20256 L 7428,20106 "/>
 <path fill="none" stroke="rgb(179,179,179)" stroke-linejoin="round" d="M 7428,20256 L 7428,20106 "/>
 <path fill="none" stroke="rgb(179,179,179)" stroke-linejoin="round" d="M 10379,20256 L 10379,20106 "/>
 <path fill="none" stroke="rgb(179,179,179)" stroke-linejoin="round" d="M 10379,20256 L 10379,20106 "/>
 <path fill="none" stroke="rgb(179,179,179)" stroke-linejoin="round" d="M 13330,20256 L 13330,20106 "/>
 <path fill="none" stroke="rgb(179,179,179)" stroke-linejoin="round" d="M 13330,20256 L 13330,20106 "/>
 <path fill="none" stroke="rgb(179,179,179)" stroke-linejoin="round" d="M 16281,20256 L 16281,20106 "/>
 <path fill="none" stroke="rgb(179,179,179)" stroke-linejoin="round" d="M 16281,20256 L 16281,20106 "/>
 <path fill="none" stroke="rgb(179,179,179)" stroke-linejoin="round" d="M 19231,20256 L 19231,20106 "/>
 <path fill="none" stroke="rgb(179,179,179)" stroke-linejoin="round" d="M 19231,20256 L 19231,20106 "/>
 <path fill="none" stroke="rgb(179,179,179)" stroke-linejoin="round" d="M 22182,20256 L 22182,20106 "/>
 <path fill="none" stroke="rgb(179,179,179)" stroke-linejoin="round" d="M 22182,20256 L 22182,20106 "/>
 <path fill="none" stroke="rgb(179,179,179)" stroke-linejoin="round" d="M 25133,20256 L 25133,20106 "/>
 <path fill="none" stroke="rgb(179,179,179)" stroke-linejoin="round" d="M 25133,20256 L 25133,20106 "/>
 <path fill="none" stroke="rgb(179,179,179)" stroke-linejoin="round" d="M 28084,20256 L 28084,20106 "/>
 <path fill="none" stroke="rgb(179,179,179)" stroke-linejoin="round" d="M 28084,20256 L 28084,20106 "/>
 <path fill="none" stroke="rgb(179,179,179)" stroke-linejoin="round" d="M 31036,20256 L 31036,20106 "/>
 <path fill="none" stroke="rgb(179,179,179)" stroke-linejoin="round" d="M 31036,20256 L 31036,20106 "/>
 <path fill="none" stroke="rgb(179,179,179)" stroke-linejoin="round" d="M 1526,20106 L 31036,20106 "/>
 <path fill="none" stroke="rgb(179,179,179)" stroke-linejoin="round" d="M 1376,20106 L 1526,20106 "/>
 <path fill="none" stroke="rgb(179,179,179)" stroke-linejoin="round" d="M 1376,20106 L 1526,20106 "/>
 <path fill="none" stroke="rgb(179,179,179)" stroke-linejoin="round" d="M 1376,17320 L 1526,17320 "/>
 <path fill="none" stroke="rgb(179,179,179)" stroke-linejoin="round" d="M 1376,17320 L 1526,17320 "/>
 <path fill="none" stroke="rgb(179,179,179)" stroke-linejoin="round" d="M 1376,14535 L 1526,14535 "/>
 <path fill="none" stroke="rgb(179,179,179)" stroke-linejoin="round" d="M 1376,14535 L 1526,14535 "/>
 <path fill="none" stroke="rgb(179,179,179)" stroke-linejoin="round" d="M 1376,11749 L 1526,11749 "/>
 <path fill="none" stroke="rgb(179,179,179)" stroke-linejoin="round" d="M 1376,11749 L 1526,11749 "/>
 <path fill="none" stroke="rgb(179,179,179)" stroke-linejoin="round" d="M 1376,8965 L 1526,8965 "/>
 <path fill="none" stroke="rgb(179,179,179)" stroke-linejoin="round" d="M 1376,8965 L 1526,8965 "/>
 <path fill="none" stroke="rgb(179,179,179)" stroke-linejoin="round" d="M 1376,6179 L 1526,6179 "/>
 <path fill="none" stroke="rgb(179,179,179)" stroke-linejoin="round" d="M 1376,6179 L 1526,6179 "/>
 <path fill="none" stroke="rgb(179,179,179)" stroke-linejoin="round" d="M 1376,3394 L 1526,3394 "/>
 <path fill="none" stroke="rgb(179,179,179)" stroke-linejoin="round" d="M 1376,3394 L 1526,3394 "/>
 <path fill="none" stroke="rgb(179,179,179)" stroke-linejoin="round" d="M 1376,609 L 1526,609 "/>
 <path fill="none" stroke="rgb(179,179,179)" stroke-linejoin="round" d="M 1376,609 L 1526,609 "/>
 <path fill="none" stroke="rgb(179,179,179)" stroke-linejoin="round" d="M 1526,20106 L 1526,609 "/>
 <path fill="rgb(255,66,14)" stroke="none" d="M 7868,9820 L 7993,9945 8118,9820 7993,9695 7868,9820 Z "/>
 <path fill="none" stroke="rgb(255,66,14)" stroke-linejoin="round" d="M 7868,9820 L 7993,9945 8118,9820 7993,9695 7868,9820 Z "/>
 <path fill="rgb(255,66,14)" stroke="none" d="M 7868,6197 L 7993,6322 8118,6197 7993,6072 7868,6197 Z "/>
 <path fill="none" stroke="rgb(255,66,14)" stroke-linejoin="round" d="M 7868,6197 L 7993,6322 8118,6197 7993,6072 7868,6197 Z "/>
 <path fill="rgb(255,66,14)" stroke="none" d="M 7903,10703 L 8028,10828 8153,10703 8028,10579 7903,10703 Z "/>
 <path fill="none" stroke="rgb(255,66,14)" stroke-linejoin="round" d="M 7903,10703 L 8028,10828 8153,10703 8028,10579 7903,10703 Z "/>
 <path fill="rgb(255,66,14)" stroke="none" d="M 7903,7253 L 8028,7378 8153,7253 8028,7128 7903,7253 Z "/>
 <path fill="none" stroke="rgb(255,66,14)" stroke-linejoin="round" d="M 7903,7253 L 8028,7378 8153,7253 8028,7128 7903,7253 Z "/>
 <path fill="rgb(255,66,14)" stroke="none" d="M 16172,11925 L 16297,12050 16422,11925 16297,11800 16172,11925 Z "/>
 <path fill="none" stroke="rgb(255,66,14)" stroke-linejoin="round" d="M 16172,11925 L 16297,12050 16422,11925 16297,11800 16172,11925 Z "/>
 <path fill="rgb(255,66,14)" stroke="none" d="M 18161,11991 L 18286,12116 18411,11991 18286,11866 18161,11991 Z "/>
 <path fill="none" stroke="rgb(255,66,14)" stroke-linejoin="round" d="M 18161,11991 L 18286,12116 18411,11991 18286,11866 18161,11991 Z "/>
 <path fill="rgb(255,66,14)" stroke="none" d="M 18161,9647 L 18286,9772 18411,9647 18286,9522 18161,9647 Z "/>
 <path fill="none" stroke="rgb(255,66,14)" stroke-linejoin="round" d="M 18161,9647 L 18286,9772 18411,9647 18286,9522 18161,9647 Z "/>
 <path fill="rgb(255,66,14)" stroke="none" d="M 23053,13457 L 23178,13582 23303,13457 23178,13332 23053,13457 Z "/>
 <path fill="none" stroke="rgb(255,66,14)" stroke-linejoin="round" d="M 23053,13457 L 23178,13582 23303,13457 23178,13332 23053,13457 Z "/>
 <path fill="rgb(255,66,14)" stroke="none" d="M 26386,13057 L 26511,13182 26636,13057 26511,12932 26386,13057 Z "/>
 <path fill="none" stroke="rgb(255,66,14)" stroke-linejoin="round" d="M 26386,13057 L 26511,13182 26636,13057 26511,12932 26386,13057 Z "/>
 <path fill="rgb(255,66,14)" stroke="none" d="M 26386,12390 L 26511,12515 26636,12390 26511,12265 26386,12390 Z "/>
 <path fill="none" stroke="rgb(255,66,14)" stroke-linejoin="round" d="M 26386,12390 L 26511,12515 26636,12390 26511,12265 26386,12390 Z "/>
 <path fill="rgb(255,66,14)" stroke="none" d="M 27833,14027 L 27958,14152 28083,14027 27958,13902 27833,14027 Z "/>
 <path fill="none" stroke="rgb(255,66,14)" stroke-linejoin="round" d="M 27833,14027 L 27958,14152 28083,14027 27958,13902 27833,14027 Z "/>
 <path fill="rgb(0,69,134)" stroke="none" d="M 7868,9599 L 7868,9849 8118,9849 8118,9599 7868,9599 Z "/>
 <path fill="none" stroke="rgb(0,69,134)" stroke-linejoin="round" d="M 7868,9599 L 7868,9849 8118,9849 8118,9599 7868,9599 Z "/>
 <path fill="rgb(0,69,134)" stroke="none" d="M 7868,4425 L 7868,4675 8118,4675 8118,4425 7868,4425 Z "/>
 <path fill="none" stroke="rgb(0,69,134)" stroke-linejoin="round" d="M 7868,4425 L 7868,4675 8118,4675 8118,4425 7868,4425 Z "/>
 <path fill="rgb(0,69,134)" stroke="none" d="M 7903,10472 L 7903,10721 8153,10721 8153,10472 7903,10472 Z "/>
 <path fill="none" stroke="rgb(0,69,134)" stroke-linejoin="round" d="M 7903,10472 L 7903,10721 8153,10721 8153,10472 7903,10472 Z "/>
 <path fill="rgb(0,69,134)" stroke="none" d="M 7903,5695 L 7903,5945 8153,5945 8153,5695 7903,5695 Z "/>
 <path fill="none" stroke="rgb(0,69,134)" stroke-linejoin="round" d="M 7903,5695 L 7903,5945 8153,5945 8153,5695 7903,5695 Z "/>
 <path fill="rgb(0,69,134)" stroke="none" d="M 16172,10624 L 16172,10874 16422,10874 16422,10624 16172,10624 Z "/>
 <path fill="none" stroke="rgb(0,69,134)" stroke-linejoin="round" d="M 16172,10624 L 16172,10874 16422,10874 16422,10624 16172,10624 Z "/>
 <path fill="rgb(0,69,134)" stroke="none" d="M 18161,11601 L 18161,11851 18411,11851 18411,11601 18161,11601 Z "/>
 <path fill="none" stroke="rgb(0,69,134)" stroke-linejoin="round" d="M 18161,11601 L 18161,11851 18411,11851 18411,11601 18161,11601 Z "/>
 <path fill="rgb(0,69,134)" stroke="none" d="M 18161,7671 L 18161,7921 18411,7921 18411,7671 18161,7671 Z "/>
 <path fill="none" stroke="rgb(0,69,134)" stroke-linejoin="round" d="M 18161,7671 L 18161,7921 18411,7921 18411,7671 18161,7671 Z "/>
 <path fill="rgb(0,69,134)" stroke="none" d="M 23053,11853 L 23053,12103 23303,12103 23303,11853 23053,11853 Z "/>
 <path fill="none" stroke="rgb(0,69,134)" stroke-linejoin="round" d="M 23053,11853 L 23053,12103 23303,12103 23303,11853 23053,11853 Z "/>
 <path fill="rgb(0,69,134)" stroke="none" d="M 26386,12046 L 26386,12296 26636,12296 26636,12046 26386,12046 Z "/>
 <path fill="none" stroke="rgb(0,69,134)" stroke-linejoin="round" d="M 26386,12046 L 26386,12296 26636,12296 26636,12046 26386,12046 Z "/>
 <path fill="rgb(0,69,134)" stroke="none" d="M 26386,10254 L 26386,10504 26636,10504 26636,10254 26386,10254 Z "/>
 <path fill="none" stroke="rgb(0,69,134)" stroke-linejoin="round" d="M 26386,10254 L 26386,10504 26636,10504 26636,10254 26386,10254 Z "/>
 <path fill="rgb(0,69,134)" stroke="none" d="M 27833,12572 L 27833,12822 28083,12822 28083,12572 27833,12572 Z "/>
 <path fill="none" stroke="rgb(0,69,134)" stroke-linejoin="round" d="M 27833,12572 L 27833,12822 28083,12822 28083,12572 27833,12572 Z "/>
 <text class="SVGTextShape"><tspan class="TextParagraph"><tspan class="TextPosition" x="666" y="20674"><tspan font-family="Liberation Sans, sans-serif" font-size="353px" font-weight="400" fill="rgb(0,0,0)" stroke="none" style="white-space: pre">300000000</tspan></tspan></tspan></text>
 <text class="SVGTextShape"><tspan class="TextParagraph"><tspan class="TextPosition" x="3617" y="20674"><tspan font-family="Liberation Sans, sans-serif" font-size="353px" font-weight="400" fill="rgb(0,0,0)" stroke="none" style="white-space: pre">302000000</tspan></tspan></tspan></text>
 <text class="SVGTextShape"><tspan class="TextParagraph"><tspan class="TextPosition" x="6568" y="20674"><tspan font-family="Liberation Sans, sans-serif" font-size="353px" font-weight="400" fill="rgb(0,0,0)" stroke="none" style="white-space: pre">304000000</tspan></tspan></tspan></text>
 <text class="SVGTextShape"><tspan class="TextParagraph"><tspan class="TextPosition" x="9519" y="20674"><tspan font-family="Liberation Sans, sans-serif" font-size="353px" font-weight="400" fill="rgb(0,0,0)" stroke="none" style="white-space: pre">306000000</tspan></tspan></tspan></text>
 <text class="SVGTextShape"><tspan class="TextParagraph"><tspan class="TextPosition" x="12470" y="20674"><tspan font-family="Liberation Sans, sans-serif" font-size="353px" font-weight="400" fill="rgb(0,0,0)" stroke="none" style="white-space: pre">308000000</tspan></tspan></tspan></text>
 <text class="SVGTextShape"><tspan class="TextParagraph"><tspan class="TextPosition" x="15421" y="20674"><tspan font-family="Liberation Sans, sans-serif" font-size="353px" font-weight="400" fill="rgb(0,0,0)" stroke="none" style="white-space: pre">310000000</tspan></tspan></tspan></text>
 <text class="SVGTextShape"><tspan class="TextParagraph"><tspan class="TextPosition" x="18371" y="20674"><tspan font-family="Liberation Sans, sans-serif" font-size="353px" font-weight="400" fill="rgb(0,0,0)" stroke="none" style="white-space: pre">312000000</tspan></tspan></tspan></text>
 <text class="SVGTextShape"><tspan class="TextParagraph"><tspan class="TextPosition" x="21322" y="20674"><tspan font-family="Liberation Sans, sans-serif" font-size="353px" font-weight="400" fill="rgb(0,0,0)" stroke="none" style="white-space: pre">314000000</tspan></tspan></tspan></text>
 <text class="SVGTextShape"><tspan class="TextParagraph"><tspan class="TextPosition" x="24273" y="20674"><tspan font-family="Liberation Sans, sans-serif" font-size="353px" font-weight="400" fill="rgb(0,0,0)" stroke="none" style="white-space: pre">316000000</tspan></tspan></tspan></text>
 <text class="SVGTextShape"><tspan class="TextParagraph"><tspan class="TextPosition" x="27224" y="20674"><tspan font-family="Liberation Sans, sans-serif" font-size="353px" font-weight="400" fill="rgb(0,0,0)" stroke="none" style="white-space: pre">318000000</tspan></tspan></tspan></text>
 <text class="SVGTextShape"><tspan class="TextParagraph"><tspan class="TextPosition" x="30176" y="20674"><tspan font-family="Liberation Sans, sans-serif" font-size="353px" font-weight="400" fill="rgb(0,0,0)" stroke="none" style="white-space: pre">320000000</tspan></tspan></tspan></text>
 <text class="SVGTextShape"><tspan class="TextParagraph"><tspan class="TextPosition" x="1085" y="20227"><tspan font-family="Liberation Sans, sans-serif" font-size="353px" font-weight="400" fill="rgb(0,0,0)" stroke="none" style="white-space: pre">0</tspan></tspan></tspan></text>
 <text class="SVGTextShape"><tspan class="TextParagraph"><tspan class="TextPosition" x="1085" y="17441"><tspan font-family="Liberation Sans, sans-serif" font-size="353px" font-weight="400" fill="rgb(0,0,0)" stroke="none" style="white-space: pre">1</tspan></tspan></tspan></text>
 <text class="SVGTextShape"><tspan class="TextParagraph"><tspan class="TextPosition" x="1085" y="14656"><tspan font-family="Liberation Sans, sans-serif" font-size="353px" font-weight="400" fill="rgb(0,0,0)" stroke="none" style="white-space: pre">2</tspan></tspan></tspan></text>
 <text class="SVGTextShape"><tspan class="TextParagraph"><tspan class="TextPosition" x="1085" y="11870"><tspan font-family="Liberation Sans, sans-serif" font-size="353px" font-weight="400" fill="rgb(0,0,0)" stroke="none" style="white-space: pre">3</tspan></tspan></tspan></text>
 <text class="SVGTextShape"><tspan class="TextParagraph"><tspan class="TextPosition" x="1085" y="9086"><tspan font-family="Liberation Sans, sans-serif" font-size="353px" font-weight="400" fill="rgb(0,0,0)" stroke="none" style="white-space: pre">4</tspan></tspan></tspan></text>
 <text class="SVGTextShape"><tspan class="TextParagraph"><tspan class="TextPosition" x="1085" y="6300"><tspan font-family="Liberation Sans, sans-serif" font-size="353px" font-weight="400" fill="rgb(0,0,0)" stroke="none" style="white-space: pre">5</tspan></tspan></tspan></text>
 <text class="SVGTextShape"><tspan class="TextParagraph"><tspan class="TextPosition" x="1085" y="3515"><tspan font-family="Liberation Sans, sans-serif" font-size="353px" font-weight="400" fill="rgb(0,0,0)" stroke="none" style="white-space: pre">6</tspan></tspan></tspan></text>
 <text class="SVGTextShape"><tspan class="TextParagraph"><tspan class="TextPosition" x="1085" y="730"><tspan font-family="Liberation Sans, sans-serif" font-size="353px" font-weight="400" fill="rgb(0,0,0)" stroke="none" style="white-space: pre">7</tspan></tspan></tspan></text>
 <text class="SVGTextShape"><tspan class="TextParagraph"><tspan class="TextPosition" x="7158" y="9515"><tspan font-family="Liberation Sans, sans-serif" font-size="423px" font-weight="400" fill="rgb(0,0,0)" stroke="none" style="white-space: pre">l1c2avx2</tspan></tspan></tspan></text>
 <text class="SVGTextShape"><tspan class="TextParagraph"><tspan class="TextPosition" x="7041" y="5892"><tspan font-family="Liberation Sans, sans-serif" font-size="423px" font-weight="400" fill="rgb(0,0,0)" stroke="none" style="white-space: pre">l1c3sse41</tspan></tspan></tspan></text>
 <text class="SVGTextShape"><tspan class="TextParagraph"><tspan class="TextPosition" x="7193" y="10399"><tspan font-family="Liberation Sans, sans-serif" font-size="423px" font-weight="400" fill="rgb(0,0,0)" stroke="none" style="white-space: pre">l1c2avx2</tspan></tspan></tspan></text>
 <text class="SVGTextShape"><tspan class="TextParagraph"><tspan class="TextPosition" x="7076" y="6948"><tspan font-family="Liberation Sans, sans-serif" font-size="423px" font-weight="400" fill="rgb(0,0,0)" stroke="none" style="white-space: pre">l1c2sse41</tspan></tspan></tspan></text>
 <text class="SVGTextShape"><tspan class="TextParagraph"><tspan class="TextPosition" x="15227" y="11620"><tspan font-family="Liberation Sans, sans-serif" font-size="423px" font-weight="400" fill="rgb(0,0,0)" stroke="none" style="white-space: pre">l1c2avx512</tspan></tspan></tspan></text>
 <text class="SVGTextShape"><tspan class="TextParagraph"><tspan class="TextPosition" x="17451" y="11686"><tspan font-family="Liberation Sans, sans-serif" font-size="423px" font-weight="400" fill="rgb(0,0,0)" stroke="none" style="white-space: pre">l1c1avx2</tspan></tspan></tspan></text>
 <text class="SVGTextShape"><tspan class="TextParagraph"><tspan class="TextPosition" x="17334" y="9342"><tspan font-family="Liberation Sans, sans-serif" font-size="423px" font-weight="400" fill="rgb(0,0,0)" stroke="none" style="white-space: pre">l1c1sse41</tspan></tspan></tspan></text>
 <text class="SVGTextShape"><tspan class="TextParagraph"><tspan class="TextPosition" x="22108" y="13152"><tspan font-family="Liberation Sans, sans-serif" font-size="423px" font-weight="400" fill="rgb(0,0,0)" stroke="none" style="white-space: pre">l1c1avx512</tspan></tspan></tspan></text>
 <text class="SVGTextShape"><tspan class="TextParagraph"><tspan class="TextPosition" x="25676" y="12752"><tspan font-family="Liberation Sans, sans-serif" font-size="423px" font-weight="400" fill="rgb(0,0,0)" stroke="none" style="white-space: pre">l1c0avx2</tspan></tspan></tspan></text>
 <text class="SVGTextShape"><tspan class="TextParagraph"><tspan class="TextPosition" x="25559" y="12085"><tspan font-family="Liberation Sans, sans-serif" font-size="423px" font-weight="400" fill="rgb(0,0,0)" stroke="none" style="white-space: pre">l1c0sse41</tspan></tspan></tspan></text>
 <text class="SVGTextShape"><tspan class="TextParagraph"><tspan class="TextPosition" x="26888" y="13722"><tspan font-family="Liberation Sans, sans-serif" font-size="423px" font-weight="400" fill="rgb(0,0,0)" stroke="none" style="white-space: pre">l1c0avx512</tspan></tspan></tspan></text>
 <text class="SVGTextShape"><tspan class="TextParagraph"><tspan class="TextPosition" x="7158" y="9419"><tspan font-family="Liberation Sans, sans-serif" font-size="423px" font-weight="400" fill="rgb(0,0,0)" stroke="none" style="white-space: pre">l1c2avx2</tspan></tspan></tspan></text>
 <text class="SVGTextShape"><tspan class="TextParagraph"><tspan class="TextPosition" x="7041" y="4245"><tspan font-family="Liberation Sans, sans-serif" font-size="423px" font-weight="400" fill="rgb(0,0,0)" stroke="none" style="white-space: pre">l1c3sse41</tspan></tspan></tspan></text>
 <text class="SVGTextShape"><tspan class="TextParagraph"><tspan class="TextPosition" x="7193" y="10292"><tspan font-family="Liberation Sans, sans-serif" font-size="423px" font-weight="400" fill="rgb(0,0,0)" stroke="none" style="white-space: pre">l1c2avx2</tspan></tspan></tspan></text>
 <text class="SVGTextShape"><tspan class="TextParagraph"><tspan class="TextPosition" x="7076" y="5515"><tspan font-family="Liberation Sans, sans-serif" font-size="423px" font-weight="400" fill="rgb(0,0,0)" stroke="none" style="white-space: pre">l1c2sse41</tspan></tspan></tspan></text>
 <text class="SVGTextShape"><tspan class="TextParagraph"><tspan class="TextPosition" x="15227" y="10445"><tspan font-family="Liberation Sans, sans-serif" font-size="423px" font-weight="400" fill="rgb(0,0,0)" stroke="none" style="white-space: pre">l1c2avx512</tspan></tspan></tspan></text>
 <text class="SVGTextShape"><tspan class="TextParagraph"><tspan class="TextPosition" x="17451" y="11421"><tspan font-family="Liberation Sans, sans-serif" font-size="423px" font-weight="400" fill="rgb(0,0,0)" stroke="none" style="white-space: pre">l1c1avx2</tspan></tspan></tspan></text>
 <text class="SVGTextShape"><tspan class="TextParagraph"><tspan class="TextPosition" x="17334" y="7491"><tspan font-family="Liberation Sans, sans-serif" font-size="423px" font-weight="400" fill="rgb(0,0,0)" stroke="none" style="white-space: pre">l1c1sse41</tspan></tspan></tspan></text>
 <text class="SVGTextShape"><tspan class="TextParagraph"><tspan class="TextPosition" x="22108" y="11673"><tspan font-family="Liberation Sans, sans-serif" font-size="423px" font-weight="400" fill="rgb(0,0,0)" stroke="none" style="white-space: pre">l1c1avx512</tspan></tspan></tspan></text>
 <text class="SVGTextShape"><tspan class="TextParagraph"><tspan class="TextPosition" x="25676" y="11866"><tspan font-family="Liberation Sans, sans-serif" font-size="423px" font-weight="400" fill="rgb(0,0,0)" stroke="none" style="white-space: pre">l1c0avx2</tspan></tspan></tspan></text>
 <text class="SVGTextShape"><tspan class="TextParagraph"><tspan class="TextPosition" x="25559" y="10074"><tspan font-family="Liberation Sans, sans-serif" font-size="423px" font-weight="400" fill="rgb(0,0,0)" stroke="none" style="white-space: pre">l1c0sse41</tspan></tspan></tspan></text>
 <text class="SVGTextShape"><tspan class="TextParagraph"><tspan class="TextPosition" x="26888" y="12392"><tspan font-family="Liberation Sans, sans-serif" font-size="423px" font-weight="400" fill="rgb(0,0,0)" stroke="none" style="white-space: pre">l1c0avx512</tspan></tspan></tspan></text>
 <path fill="rgb(0,69,134)" stroke="none" d="M 32693,10227 L 32693,10438 32904,10438 32904,10227 32693,10227 Z "/>
 <path fill="none" stroke="rgb(0,69,134)" stroke-linejoin="round" d="M 32693,10227 L 32693,10438 32904,10438 32904,10227 32693,10227 Z "/>
 <path fill="rgb(255,66,14)" stroke="none" d="M 32693,10829 L 32798,10935 32904,10829 32798,10724 32693,10829 Z "/>
 <path fill="none" stroke="rgb(255,66,14)" stroke-linejoin="round" d="M 32693,10829 L 32798,10935 32904,10829 32798,10724 32693,10829 Z "/>
 <text class="SVGTextShape"><tspan class="TextParagraph"><tspan class="TextPosition" x="33004" y="10452"><tspan font-family="Liberation Sans, sans-serif" font-size="353px" font-weight="400" fill="rgb(0,0,0)" stroke="none" style="white-space: pre">enc</tspan></tspan></tspan></text>
 <text class="SVGTextShape"><tspan class="TextParagraph"><tspan class="TextPosition" x="33004" y="10949"><tspan font-family="Liberation Sans, sans-serif" font-size="353px" font-weight="400" fill="rgb(0,0,0)" stroke="none" style="white-space: pre">dec</tspan></tspan></tspan></text>
</svg>